SplineFontDB: 3.0
FontName: TheanoOldStyle-Regular
FullName: Theano Old Style Regular
FamilyName: Theano Old Style
Weight: Regular
Copyright: Copyright (c) Alexey Kryukov, 2007-2010. All rights reserved.
Version: 2.10
ItalicAngle: 0
UnderlinePosition: -352
UnderlineWidth: 96
Ascent: 1580
Descent: 468
InvalidEm: 0
LayerCount: 3
Layer: 0 0 "Back" 1
Layer: 1 0 "Fore" 0
Layer: 2 1 "TTF" 0
XUID: [1021 675 718133685 3451480]
UniqueID: 4174309
FSType: 0
OS2Version: 0
OS2_WeightWidthSlopeOnly: 0
OS2_UseTypoMetrics: 1
CreationTime: 1298973684
ModificationTime: 1571827710
PfmFamily: 17
TTFWeight: 400
TTFWidth: 5
LineGap: 560
VLineGap: 0
Panose: 2 4 5 3 6 5 5 2 2 3
OS2TypoAscent: 0
OS2TypoAOffset: 1
OS2TypoDescent: 0
OS2TypoDOffset: 1
OS2TypoLinegap: 560
OS2WinAscent: 0
OS2WinAOffset: 1
OS2WinDescent: 0
OS2WinDOffset: 1
HheadAscent: 0
HheadAOffset: 1
HheadDescent: 0
HheadDOffset: 1
OS2SubXSize: 1400
OS2SubYSize: 1300
OS2SubXOff: 0
OS2SubYOff: 280
OS2SupXSize: 1400
OS2SupYSize: 1300
OS2SupXOff: 0
OS2SupYOff: 954
OS2StrikeYSize: 100
OS2StrikeYPos: 500
OS2FamilyClass: 256
OS2Vendor: '    '
Lookup: 4 0 0 "'ccmp' Simple Glyph Composition" { "'ccmp' Simple Glyph Composition-1"  } ['ccmp' ('cyrl' <'dflt' > 'grek' <'dflt' > 'latn' <'AZE ' 'CRT ' 'DEU ' 'MOL ' 'ROM ' 'TRK ' 'dflt' > ) ]
Lookup: 5 0 0 "'ccmp' Dotless Variants" { "'ccmp' Dotless Variants-1"  } ['ccmp' ('cyrl' <'dflt' > 'grek' <'dflt' > 'latn' <'AZE ' 'CRT ' 'DEU ' 'MOL ' 'ROM ' 'TRK ' 'dflt' > ) ]
Lookup: 5 0 0 "'ccmp' Cyrillic Accents" { "'ccmp' Cyrillic Accents-1"  } ['ccmp' ('cyrl' <'dflt' > 'grek' <'dflt' > 'latn' <'AZE ' 'CRT ' 'DEU ' 'MOL ' 'ROM ' 'TRK ' 'dflt' > ) ]
Lookup: 5 0 0 "'ccmp' Capital and Ascending Accents" { "'ccmp' Capital and Ascending Accents-1"  } ['ccmp' ('cyrl' <'dflt' > 'grek' <'dflt' > 'latn' <'AZE ' 'CRT ' 'DEU ' 'MOL ' 'ROM ' 'TRK ' 'dflt' > ) ]

StartChar: exclam
Encoding: 33 33 1
Width: 528
VWidth: 2078
Flags: W
HStem: -24 256<166.773 361.227> 1468 20G<216 312>
VStem: 136 256<6.77267 201.227 1031.33 1443.64>
LayerCount: 3
Fore
SplineSet
136 104 m 0
 136 176 192 232 264 232 c 0
 336 232 392 176 392 104 c 0
 392 32 336 -24 264 -24 c 0
 192 -24 136 32 136 104 c 0
146 1313 m 0
 146 1377 168 1488 264 1488 c 0
 360 1488 382 1377 382 1313 c 0
 382 1257 367 1140 352 1057 c 0
 334 959 326 898 316 801 c 10
 292 396 l 25
 236 396 l 25
 212 801 l 18
 202 898 194 960 176 1058 c 0
 161 1141 146 1257 146 1313 c 0
EndSplineSet
Layer: 2
SplineSet
136 104 m 128,-1,1
 136 158 136 158 173 195 c 128,-1,2
 210 232 210 232 264 232 c 128,-1,3
 318 232 318 232 355 195 c 128,-1,4
 392 158 392 158 392 104 c 128,-1,5
 392 50 392 50 355 13 c 128,-1,6
 318 -24 318 -24 264 -24 c 128,-1,7
 210 -24 210 -24 173 13 c 128,-1,0
 136 50 136 50 136 104 c 128,-1,1
146 1313 m 0,8,9
 146 1340 146 1340 151.5 1367.5 c 128,-1,10
 157 1395 157 1395 169 1423.5 c 128,-1,11
 181 1452 181 1452 205.5 1470 c 128,-1,12
 230 1488 230 1488 264 1488 c 128,-1,13
 298 1488 298 1488 322.5 1470 c 128,-1,14
 347 1452 347 1452 359 1423.5 c 128,-1,15
 371 1395 371 1395 376.5 1367.5 c 128,-1,16
 382 1340 382 1340 382 1313 c 0,17,18
 382 1223 382 1223 352 1057 c 0,19,20
 330 938 330 938 316 801 c 1,21,-1
 292 396 l 1,22,-1
 236 396 l 1,23,-1
 212 801 l 1,24,25
 198 940 198 940 176 1058 c 0,26,27
 146 1224 146 1224 146 1313 c 0,8,9
EndSplineSet
EndChar

StartChar: numbersign
Encoding: 35 35 3
Width: 1152
VWidth: 2078
Flags: W
HStem: 0 21G<170 262.047 592 684.047> 430 96<62 257 365 679 787 1090> 934 96<62 360 467 782 889 1090> 1468 20G<467.939 560 889.939 982>
DStem2: 170 0 258 0 0.198902 0.980019<17.5034 438.713 554.276 953.13 1068.49 1518.34> 592 0 680 0 0.198902 0.980019<17.5034 438.713 554.276 953.13 1068.49 1518.34>
LayerCount: 3
Fore
SplineSet
62 430 m 1
 62 526 l 1
 277 526 l 1
 360 934 l 1
 62 934 l 1
 62 1030 l 1
 379 1030 l 1
 472 1488 l 1
 560 1488 l 1
 467 1030 l 1
 801 1030 l 1
 894 1488 l 1
 982 1488 l 1
 889 1030 l 1
 1090 1030 l 1
 1090 934 l 1
 870 934 l 1
 787 526 l 1
 1090 526 l 1
 1090 430 l 1
 767 430 l 1
 680 0 l 1
 592 0 l 1
 679 430 l 1
 345 430 l 1
 258 0 l 1
 170 0 l 1
 257 430 l 1
 62 430 l 1
365 526 m 1
 699 526 l 1
 782 934 l 1
 448 934 l 1
 365 526 l 1
EndSplineSet
Layer: 2
SplineSet
62 430 m 1,0,-1
 62 526 l 1,1,-1
 277 526 l 1,2,-1
 360 934 l 1,3,-1
 62 934 l 1,4,-1
 62 1030 l 1,5,-1
 379 1030 l 1,6,-1
 472 1488 l 1,7,-1
 560 1488 l 1,8,-1
 467 1030 l 1,9,-1
 801 1030 l 1,10,-1
 894 1488 l 1,11,-1
 982 1488 l 1,12,-1
 889 1030 l 1,13,-1
 1090 1030 l 1,14,-1
 1090 934 l 1,15,-1
 870 934 l 1,16,-1
 787 526 l 1,17,-1
 1090 526 l 1,18,-1
 1090 430 l 1,19,-1
 767 430 l 1,20,-1
 680 0 l 1,21,-1
 592 0 l 1,22,-1
 679 430 l 1,23,-1
 345 430 l 1,24,-1
 258 0 l 1,25,-1
 170 0 l 1,26,-1
 257 430 l 1,27,-1
 62 430 l 1,0,-1
365 526 m 1,28,-1
 699 526 l 1,29,-1
 782 934 l 1,30,-1
 448 934 l 1,31,-1
 365 526 l 1,28,-1
EndSplineSet
EndChar

StartChar: dollar
Encoding: 36 36 4
Width: 1152
VWidth: 2078
Flags: W
HStem: -28 64<390.413 550 622 766.672> 1424 64<439.334 550 622 750.202>
VStem: 128 128<139.815 280.958> 144 122<1014.63 1259.2> 550 72<-200 -28 36 639 854 1424 1488 1612> 870 140<1126 1314.93> 938 106<190.638 454.08>
LayerCount: 3
Fore
SplineSet
128 272 m 0xea
 128 369 193 432 255 432 c 0
 300 432 342 404 342 357 c 0
 342 317 321 296 293 275 c 0
 270 258 256 233 256 207 c 0xea
 256 106 412 36 550 36 c 1
 550 668 l 1
 339 752 144 859 144 1088 c 0
 144 1340 398 1488 550 1488 c 1
 550 1612 l 1
 622 1612 l 1
 622 1487 l 1
 846 1487 1010 1334 1010 1170 c 0
 1010 1082 953 1015 885 1015 c 0
 840 1015 795 1045 795 1097 c 0
 795 1132 823 1169 842 1194 c 0
 861 1219 870 1244 870 1264 c 0xdc
 870 1339 738 1424 622 1424 c 1
 622 828 l 1
 898 732 1044 597 1044 372 c 0
 1044 138 854 -28 622 -28 c 1
 622 -200 l 1
 550 -200 l 1
 550 -28 l 1
 342 -28 128 91 128 272 c 0xea
266 1145 m 0xd8
 266 994 397 913 550 854 c 1
 550 1424 l 1
 444 1424 266 1318 266 1145 c 0xd8
622 36 m 1
 786 36 938 142 938 322 c 0xca
 938 478 798 568 622 639 c 1
 622 36 l 1
EndSplineSet
Layer: 2
SplineSet
128 272 m 0,0,1
 128 342 128 342 167 387 c 128,-1,2
 206 432 206 432 255 432 c 0,3,4
 290 432 290 432 316 411.5 c 128,-1,5
 342 391 342 391 342 357 c 0,6,7
 342 329 342 329 329.5 311 c 128,-1,8
 317 293 317 293 293 275 c 0,9,10
 256 248 256 248 256 207 c 0,11,12
 256 135 256 135 348 85.5 c 128,-1,13
 440 36 440 36 550 36 c 1,14,-1
 550 668 l 1,15,16
 479 696 479 696 426 722 c 128,-1,17
 373 748 373 748 317 786 c 128,-1,18
 261 824 261 824 225.5 865.5 c 128,-1,19
 190 907 190 907 167 964.5 c 128,-1,20
 144 1022 144 1022 144 1088 c 0,21,22
 144 1160 144 1160 171.5 1226 c 128,-1,23
 199 1292 199 1292 243 1338.5 c 128,-1,24
 287 1385 287 1385 341 1419.5 c 128,-1,25
 395 1454 395 1454 449.5 1471 c 128,-1,26
 504 1488 504 1488 550 1488 c 1,27,-1
 550 1612 l 1,28,-1
 622 1612 l 1,29,-1
 622 1487 l 1,30,31
 786 1487 786 1487 898 1391.5 c 128,-1,32
 1010 1296 1010 1296 1010 1170 c 0,33,34
 1010 1105 1010 1105 973.5 1060 c 128,-1,35
 937 1015 937 1015 885 1015 c 0,36,37
 849 1015 849 1015 822 1037.5 c 128,-1,38
 795 1060 795 1060 795 1097 c 0,39,40
 795 1132 795 1132 842 1194 c 0,41,42
 870 1231 870 1231 870 1264 c 0,43,44
 870 1320 870 1320 789.5 1372 c 128,-1,45
 709 1424 709 1424 622 1424 c 1,46,-1
 622 828 l 1,47,48
 835 754 835 754 939.5 645.5 c 128,-1,49
 1044 537 1044 537 1044 372 c 0,50,51
 1044 199 1044 199 921.5 85.5 c 128,-1,52
 799 -28 799 -28 622 -28 c 1,53,-1
 622 -200 l 1,54,-1
 550 -200 l 1,55,-1
 550 -28 l 1,56,57
 445 -28 445 -28 349 8.5 c 128,-1,58
 253 45 253 45 190.5 115 c 128,-1,59
 128 185 128 185 128 272 c 0,0,1
266 1145 m 0,60,61
 266 1090 266 1090 288 1044.5 c 128,-1,62
 310 999 310 999 351.5 964 c 128,-1,63
 393 929 393 929 440 903.5 c 128,-1,64
 487 878 487 878 550 854 c 1,65,-1
 550 1424 l 1,66,67
 494 1424 494 1424 429.5 1391.5 c 128,-1,68
 365 1359 365 1359 315.5 1292.5 c 128,-1,69
 266 1226 266 1226 266 1145 c 0,60,61
622 36 m 1,70,71
 751 36 751 36 844.5 114 c 128,-1,72
 938 192 938 192 938 322 c 0,73,74
 938 430 938 430 855 504.5 c 128,-1,75
 772 579 772 579 622 639 c 1,76,-1
 622 36 l 1,70,71
EndSplineSet
EndChar

StartChar: percent
Encoding: 37 37 5
Width: 1540
VWidth: 2078
Flags: W
HStem: -28 44<1116.59 1239.41> 644 44<1116.59 1239.41> 772 44<300.588 423.412> 1444 44<300.588 423.412>
VStem: 80 134<943.486 1316.51> 510 134<943.486 1316.51> 896 134<143.486 516.514> 1326 134<143.486 516.514>
DStem2: 279 -16 375 -16 0.510592 0.859823<49.0168 1734.22>
LayerCount: 3
Fore
SplineSet
80 1130 m 0
 80 1312 196 1488 362 1488 c 0
 528 1488 644 1312 644 1130 c 0
 644 948 528 772 362 772 c 0
 196 772 80 948 80 1130 c 0
214 1130 m 0
 214 1002 240 816 362 816 c 0
 484 816 510 1002 510 1130 c 0
 510 1258 484 1444 362 1444 c 0
 240 1444 214 1258 214 1130 c 0
279 -16 m 25
 1163 1476 l 25
 1261 1476 l 25
 375 -16 l 25
 279 -16 l 25
896 330 m 0
 896 512 1012 688 1178 688 c 0
 1344 688 1460 512 1460 330 c 0
 1460 148 1344 -28 1178 -28 c 0
 1012 -28 896 148 896 330 c 0
1030 330 m 0
 1030 202 1056 16 1178 16 c 0
 1300 16 1326 202 1326 330 c 0
 1326 458 1300 644 1178 644 c 0
 1056 644 1030 458 1030 330 c 0
EndSplineSet
Layer: 2
SplineSet
80 1130 m 128,-1,1
 80 1221 80 1221 115 1303 c 128,-1,2
 150 1385 150 1385 216 1436.5 c 128,-1,3
 282 1488 282 1488 362 1488 c 128,-1,4
 442 1488 442 1488 508 1436.5 c 128,-1,5
 574 1385 574 1385 609 1303 c 128,-1,6
 644 1221 644 1221 644 1130 c 128,-1,7
 644 1039 644 1039 609 957 c 128,-1,8
 574 875 574 875 508 823.5 c 128,-1,9
 442 772 442 772 362 772 c 128,-1,10
 282 772 282 772 216 823.5 c 128,-1,11
 150 875 150 875 115 957 c 128,-1,0
 80 1039 80 1039 80 1130 c 128,-1,1
214 1130 m 128,-1,13
 214 1076 214 1076 220.5 1026 c 128,-1,14
 227 976 227 976 242 926 c 128,-1,15
 257 876 257 876 288 846 c 128,-1,16
 319 816 319 816 362 816 c 128,-1,17
 405 816 405 816 436 846 c 128,-1,18
 467 876 467 876 482 926 c 128,-1,19
 497 976 497 976 503.5 1026 c 128,-1,20
 510 1076 510 1076 510 1130 c 128,-1,21
 510 1184 510 1184 503.5 1234 c 128,-1,22
 497 1284 497 1284 482 1334 c 128,-1,23
 467 1384 467 1384 436 1414 c 128,-1,24
 405 1444 405 1444 362 1444 c 128,-1,25
 319 1444 319 1444 288 1414 c 128,-1,26
 257 1384 257 1384 242 1334 c 128,-1,27
 227 1284 227 1284 220.5 1234 c 128,-1,12
 214 1184 214 1184 214 1130 c 128,-1,13
279 -16 m 1,28,-1
 1163 1476 l 1,29,-1
 1261 1476 l 1,30,-1
 375 -16 l 1,31,-1
 279 -16 l 1,28,-1
896 330 m 128,-1,33
 896 421 896 421 931 503 c 128,-1,34
 966 585 966 585 1032 636.5 c 128,-1,35
 1098 688 1098 688 1178 688 c 128,-1,36
 1258 688 1258 688 1324 636.5 c 128,-1,37
 1390 585 1390 585 1425 503 c 128,-1,38
 1460 421 1460 421 1460 330 c 128,-1,39
 1460 239 1460 239 1425 157 c 128,-1,40
 1390 75 1390 75 1324 23.5 c 128,-1,41
 1258 -28 1258 -28 1178 -28 c 128,-1,42
 1098 -28 1098 -28 1032 23.5 c 128,-1,43
 966 75 966 75 931 157 c 128,-1,32
 896 239 896 239 896 330 c 128,-1,33
1030 330 m 128,-1,45
 1030 276 1030 276 1036.5 226 c 128,-1,46
 1043 176 1043 176 1058 126 c 128,-1,47
 1073 76 1073 76 1104 46 c 128,-1,48
 1135 16 1135 16 1178 16 c 128,-1,49
 1221 16 1221 16 1252 46 c 128,-1,50
 1283 76 1283 76 1298 126 c 128,-1,51
 1313 176 1313 176 1319.5 226 c 128,-1,52
 1326 276 1326 276 1326 330 c 128,-1,53
 1326 384 1326 384 1319.5 434 c 128,-1,54
 1313 484 1313 484 1298 534 c 128,-1,55
 1283 584 1283 584 1252 614 c 128,-1,56
 1221 644 1221 644 1178 644 c 128,-1,57
 1135 644 1135 644 1104 614 c 128,-1,58
 1073 584 1073 584 1058 534 c 128,-1,59
 1043 484 1043 484 1036.5 434 c 128,-1,44
 1030 384 1030 384 1030 330 c 128,-1,45
EndSplineSet
EndChar

StartChar: ampersand
Encoding: 38 38 6
Width: 1622
VWidth: 2078
Flags: W
HStem: -28 94<439.081 755.595 1236.54 1464.39> 760 64<1070 1220.8 1436.57 1550> 1424 64<685.745 867.618>
VStem: 88 198<212.636 497.532> 460 144<981.167 1304.19> 918 118<1117.93 1386.99>
LayerCount: 3
Fore
SplineSet
88 330 m 0
 88 572 326 716 520 830 c 1
 485 918 460 1009 460 1118 c 0
 460 1340 620 1488 802 1488 c 0
 971 1488 1036 1365 1036 1271 c 0
 1036 1099 891 980 702 863 c 1
 792 668 910 476 1053 300 c 1
 1165 419 1248 558 1248 655 c 0
 1248 715 1205 760 1146 760 c 2
 1070 760 l 1
 1070 824 l 1
 1550 824 l 1
 1550 760 l 1
 1456 760 1393 727 1310 561 c 0
 1259 460 1187 345 1096 249 c 1
 1186 140 1277 64 1346 64 c 0
 1422 64 1466 84 1518 114 c 1
 1544 72 l 1
 1466 6 1392 -28 1278 -28 c 0
 1166 -28 1059 27 959 128 c 1
 830 33 681 -28 502 -28 c 0
 265 -28 88 109 88 330 c 0
286 399 m 0
 286 131 479 66 631 66 c 0
 724 66 821 110 916 176 c 1
 750 378 646 544 543 772 c 1
 412 694 286 561 286 399 c 0
604 1206 m 0
 604 1126 625 1020 678 913 c 1
 822 1006 918 1094 918 1260 c 0
 918 1341 882 1424 778 1424 c 0
 666 1424 604 1318 604 1206 c 0
EndSplineSet
Layer: 2
SplineSet
88 330 m 0,0,1
 88 380 88 380 102.5 428 c 128,-1,2
 117 476 117 476 138.5 514.5 c 128,-1,3
 160 553 160 553 198 593 c 128,-1,4
 236 633 236 633 267.5 661 c 128,-1,5
 299 689 299 689 350.5 724 c 128,-1,6
 402 759 402 759 434.5 779 c 128,-1,7
 467 799 467 799 520 830 c 1,8,9
 460 981 460 981 460 1118 c 0,10,11
 460 1280 460 1280 560.5 1384 c 128,-1,12
 661 1488 661 1488 802 1488 c 0,13,14
 862 1488 862 1488 909 1467.5 c 128,-1,15
 956 1447 956 1447 982.5 1414.5 c 128,-1,16
 1009 1382 1009 1382 1022.5 1345 c 128,-1,17
 1036 1308 1036 1308 1036 1271 c 0,18,19
 1036 1209 1036 1209 1011.5 1152.5 c 128,-1,20
 987 1096 987 1096 938.5 1045.5 c 128,-1,21
 890 995 890 995 835 953 c 128,-1,22
 780 911 780 911 702 863 c 1,23,24
 842 560 842 560 1053 300 c 1,25,26
 1140 392 1140 392 1194 488 c 128,-1,27
 1248 584 1248 584 1248 655 c 0,28,29
 1248 700 1248 700 1219 730 c 128,-1,30
 1190 760 1190 760 1146 760 c 2,31,-1
 1070 760 l 1,32,-1
 1070 824 l 1,33,-1
 1550 824 l 1,34,-1
 1550 760 l 1,35,36
 1475 760 1475 760 1422 719.5 c 128,-1,37
 1369 679 1369 679 1310 561 c 0,38,39
 1217 376 1217 376 1096 249 c 1,40,41
 1249 64 1249 64 1346 64 c 0,42,43
 1399 64 1399 64 1436 76 c 128,-1,44
 1473 88 1473 88 1518 114 c 1,45,-1
 1544 72 l 1,46,47
 1483 20 1483 20 1421.5 -4 c 128,-1,48
 1360 -28 1360 -28 1278 -28 c 0,49,50
 1113 -28 1113 -28 959 128 c 1,51,52
 747 -28 747 -28 502 -28 c 0,53,54
 321 -28 321 -28 204.5 69.5 c 128,-1,55
 88 167 88 167 88 330 c 0,0,1
286 399 m 0,56,57
 286 322 286 322 307.5 262 c 128,-1,58
 329 202 329 202 363 166 c 128,-1,59
 397 130 397 130 444 106.5 c 128,-1,60
 491 83 491 83 536.5 74.5 c 128,-1,61
 582 66 582 66 631 66 c 0,62,63
 758 66 758 66 916 176 c 1,64,65
 791 328 791 328 705.5 464.5 c 128,-1,66
 620 601 620 601 543 772 c 1,67,68
 433 707 433 707 359.5 609.5 c 128,-1,69
 286 512 286 512 286 399 c 0,56,57
604 1206 m 0,70,71
 604 1062 604 1062 678 913 c 1,72,73
 758 965 758 965 806 1008.5 c 128,-1,74
 854 1052 854 1052 886 1116 c 128,-1,75
 918 1180 918 1180 918 1260 c 0,76,77
 918 1329 918 1329 884 1376.5 c 128,-1,78
 850 1424 850 1424 778 1424 c 0,79,80
 698 1424 698 1424 651 1359.5 c 128,-1,81
 604 1295 604 1295 604 1206 c 0,70,71
EndSplineSet
EndChar

StartChar: quotesingle
Encoding: 39 39 7
Width: 528
VWidth: 2078
Flags: W
HStem: 824 664<236 292>
VStem: 170 188<990.875 1474.27>
LayerCount: 3
Fore
SplineSet
170 1382 m 0
 170 1442 204 1488 264 1488 c 0
 324 1488 358 1442 358 1382 c 0
 358 1366 354 1318 348 1269 c 2
 292 824 l 1
 236 824 l 1
 180 1269 l 2
 174 1319 170 1366 170 1382 c 0
EndSplineSet
Layer: 2
SplineSet
170 1382 m 0,0,1
 170 1428 170 1428 195 1458 c 128,-1,2
 220 1488 220 1488 264 1488 c 128,-1,3
 308 1488 308 1488 333 1458 c 128,-1,4
 358 1428 358 1428 358 1382 c 0,5,6
 358 1351 358 1351 348 1269 c 2,7,-1
 292 824 l 1,8,-1
 236 824 l 1,9,-1
 180 1269 l 2,10,11
 170 1352 170 1352 170 1382 c 0,0,1
EndSplineSet
EndChar

StartChar: parenleft
Encoding: 40 40 8
Width: 760
VWidth: 2078
Flags: W
HStem: -560 21G<466 622> 1468 20G<466 623>
VStem: 144 170<146.652 781.523>
LayerCount: 3
Fore
SplineSet
144 464 m 0
 144 848 330 1216 602 1488 c 9
 644 1448 l 17
 438 1210 314 888 314 464 c 0
 314 40 438 -280 644 -518 c 9
 602 -560 l 17
 330 -288 144 80 144 464 c 0
EndSplineSet
Layer: 2
SplineSet
144 464 m 128,-1,1
 144 743 144 743 267.5 1010 c 128,-1,2
 391 1277 391 1277 602 1488 c 1,3,-1
 644 1448 l 1,4,5
 314 1067 314 1067 314 464 c 0,6,7
 314 -137 314 -137 644 -518 c 1,8,-1
 602 -560 l 1,9,10
 391 -349 391 -349 267.5 -82 c 128,-1,0
 144 185 144 185 144 464 c 128,-1,1
EndSplineSet
EndChar

StartChar: parenright
Encoding: 41 41 9
Width: 760
VWidth: 2078
Flags: W
HStem: -560 21G<137 294> 1468 20G<138 294>
VStem: 446 170<147.294 782.165>
LayerCount: 3
Fore
SplineSet
116 -520 m 17
 322 -282 446 41 446 465 c 0
 446 889 322 1208 116 1446 c 9
 158 1488 l 17
 430 1216 616 849 616 465 c 0
 616 81 430 -288 158 -560 c 9
 116 -520 l 17
EndSplineSet
Layer: 2
SplineSet
116 -520 m 1,0,1
 446 -139 446 -139 446 465 c 0,2,3
 446 1065 446 1065 116 1446 c 1,4,-1
 158 1488 l 1,5,6
 369 1277 369 1277 492.5 1010.5 c 128,-1,7
 616 744 616 744 616 465 c 0,8,9
 616 185 616 185 492.5 -82 c 128,-1,10
 369 -349 369 -349 158 -560 c 1,11,-1
 116 -520 l 1,0,1
EndSplineSet
EndChar

StartChar: asterisk
Encoding: 42 42 10
Width: 1104
VWidth: 1606
Flags: W
HStem: 771 185<173.207 318.226 785.774 930.793> 978 118<482.139 525.996 578.004 621.861> 1118 185<173.207 318.226 785.774 930.793> 1468 20G<525.5 578.5>
VStem: 468 168<595.277 834.406 1013.01 1060.99 1239.59 1478.72> 526 52<790.126 977.996 1096 1283.87>
LayerCount: 3
Fore
SplineSet
148 852 m 0xf4
 148 920 214 945 296 956 c 0
 342 962 405 982 460 1013 c 0
 460 1013 482 1024 482 1037 c 0
 482 1050 460 1061 460 1061 c 0
 405 1092 342 1112 296 1118 c 0
 214 1129 148 1154 148 1222 c 0
 148 1259 177 1303 230 1303 c 0
 278 1303 313 1270 353 1217 c 0
 382 1180 424 1143 477 1110 c 0
 484 1105 499 1096 508 1096 c 0
 521 1096 526 1101 526 1129 c 0xf4
 526 1191 512 1255 495 1299 c 0
 479 1336 468 1376 468 1393 c 0
 468 1446 499 1488 552 1488 c 0
 605 1488 636 1446 636 1393 c 0xf8
 636 1376 625 1336 609 1299 c 0
 592 1255 578 1191 578 1129 c 0
 578 1101 583 1096 596 1096 c 0
 605 1096 620 1105 627 1110 c 0
 680 1143 722 1180 751 1217 c 0
 791 1270 826 1303 874 1303 c 0
 927 1303 956 1259 956 1222 c 0
 956 1154 890 1129 808 1118 c 0
 762 1112 699 1092 644 1061 c 0
 644 1061 622 1050 622 1037 c 0
 622 1024 644 1013 644 1013 c 0
 699 982 762 962 808 956 c 0
 890 945 956 920 956 852 c 0
 956 815 927 771 874 771 c 0
 826 771 791 804 751 857 c 0
 722 894 680 931 627 964 c 0
 620 969 605 978 596 978 c 0
 583 978 578 973 578 945 c 0xf4
 578 883 592 819 609 775 c 0
 625 738 636 698 636 681 c 0
 636 628 605 586 552 586 c 0
 499 586 468 628 468 681 c 0xf8
 468 698 479 738 495 775 c 0
 512 819 526 883 526 945 c 0
 526 973 521 978 508 978 c 0
 499 978 484 969 477 964 c 0
 424 931 382 894 353 857 c 0
 313 804 278 771 230 771 c 0
 177 771 148 815 148 852 c 0xf4
EndSplineSet
Layer: 2
SplineSet
148 852 m 0,0,1
 148 936 148 936 296 956 c 0,2,3
 378 967 378 967 460 1013 c 1,4,5
 482 1024 482 1024 482 1037 c 0,6,7
 482 1043 482 1043 476.5 1049 c 128,-1,8
 471 1055 471 1055 465.5 1058 c 2,9,-1
 460 1061 l 1,10,11
 378 1107 378 1107 296 1118 c 0,12,13
 148 1138 148 1138 148 1222 c 0,14,15
 148 1253 148 1253 170.5 1278 c 128,-1,16
 193 1303 193 1303 230 1303 c 0,17,18
 264 1303 264 1303 292 1282 c 128,-1,19
 320 1261 320 1261 353 1217 c 1,20,21
 399 1159 399 1159 477 1110 c 1,22,23
 497 1096 497 1096 508 1096 c 0,24,25
 518 1096 518 1096 522 1102.5 c 128,-1,26
 526 1109 526 1109 526 1129 c 0,27,28
 526 1219 526 1219 495 1299 c 1,29,30
 468 1361 468 1361 468 1393 c 0,31,32
 468 1434 468 1434 490.5 1461 c 128,-1,33
 513 1488 513 1488 552 1488 c 128,-1,34
 591 1488 591 1488 613.5 1461 c 128,-1,35
 636 1434 636 1434 636 1393 c 0,36,37
 636 1361 636 1361 609 1299 c 1,38,39
 578 1219 578 1219 578 1129 c 0,40,41
 578 1109 578 1109 582 1102.5 c 128,-1,42
 586 1096 586 1096 596 1096 c 0,43,44
 607 1096 607 1096 627 1110 c 1,45,46
 705 1159 705 1159 751 1217 c 1,47,48
 784 1261 784 1261 812 1282 c 128,-1,49
 840 1303 840 1303 874 1303 c 0,50,51
 911 1303 911 1303 933.5 1278 c 128,-1,52
 956 1253 956 1253 956 1222 c 0,53,54
 956 1138 956 1138 808 1118 c 0,55,56
 726 1107 726 1107 644 1061 c 1,57,58
 622 1050 622 1050 622 1037 c 0,59,60
 622 1031 622 1031 627.5 1025 c 128,-1,61
 633 1019 633 1019 638.5 1016 c 2,62,-1
 644 1013 l 1,63,64
 726 967 726 967 808 956 c 0,65,66
 956 936 956 936 956 852 c 0,67,68
 956 821 956 821 933.5 796 c 128,-1,69
 911 771 911 771 874 771 c 0,70,71
 840 771 840 771 812 792 c 128,-1,72
 784 813 784 813 751 857 c 1,73,74
 705 915 705 915 627 964 c 1,75,76
 607 978 607 978 596 978 c 0,77,78
 586 978 586 978 582 971.5 c 128,-1,79
 578 965 578 965 578 945 c 0,80,81
 578 855 578 855 609 775 c 1,82,83
 636 713 636 713 636 681 c 0,84,85
 636 640 636 640 613.5 613 c 128,-1,86
 591 586 591 586 552 586 c 128,-1,87
 513 586 513 586 490.5 613 c 128,-1,88
 468 640 468 640 468 681 c 0,89,90
 468 713 468 713 495 775 c 1,91,92
 526 855 526 855 526 945 c 0,93,94
 526 965 526 965 522 971.5 c 128,-1,95
 518 978 518 978 508 978 c 0,96,97
 497 978 497 978 477 964 c 1,98,99
 399 915 399 915 353 857 c 1,100,101
 320 813 320 813 292 792 c 128,-1,102
 264 771 264 771 230 771 c 0,103,104
 193 771 193 771 170.5 796 c 128,-1,105
 148 821 148 821 148 852 c 0,0,1
EndSplineSet
EndChar

StartChar: plus
Encoding: 43 43 11
Width: 1152
VWidth: 2078
Flags: W
HStem: 0 21G<522 630> 466 96<62 522 630 1090>
VStem: 522 108<0 466 562 1028>
LayerCount: 3
Fore
SplineSet
62 466 m 1
 62 562 l 1
 522 562 l 1
 522 1028 l 1
 630 1028 l 1
 630 562 l 1
 1090 562 l 1
 1090 466 l 1
 630 466 l 1
 630 0 l 1
 522 0 l 1
 522 466 l 1
 62 466 l 1
EndSplineSet
Layer: 2
SplineSet
62 466 m 1,0,-1
 62 562 l 1,1,-1
 522 562 l 1,2,-1
 522 1028 l 1,3,-1
 630 1028 l 1,4,-1
 630 562 l 1,5,-1
 1090 562 l 1,6,-1
 1090 466 l 1,7,-1
 630 466 l 1,8,-1
 630 0 l 1,9,-1
 522 0 l 1,10,-1
 522 466 l 1,11,-1
 62 466 l 1,0,-1
EndSplineSet
EndChar

StartChar: comma
Encoding: 44 44 12
Width: 528
VWidth: 2078
Flags: W
HStem: -2 204<148.414 289.108>
VStem: 324 88<-182.199 -18.9087>
LayerCount: 3
Fore
SplineSet
126 -341 m 1
 191 -308 229 -280 264 -242 c 0
 308 -194 324 -145 324 -100 c 0
 324 -73 317 -46 290 -23 c 0
 271 -7 250 -4 219 -2 c 0
 170 1 129 41 129 94 c 0
 129 161 179 202 239 202 c 0
 287 202 327 182 360 141 c 0
 403 87 412 23 412 -21 c 0
 412 -86 381 -184 324 -251 c 0
 275 -308 213 -349 149 -380 c 1
 126 -341 l 1
EndSplineSet
Layer: 2
SplineSet
126 -341 m 1,0,1
 214 -296 214 -296 264 -242 c 0,2,3
 324 -177 324 -177 324 -100 c 0,4,5
 324 -52 324 -52 290 -23 c 0,6,7
 269 -5 269 -5 219 -2 c 0,8,9
 182 0 182 0 155.5 27.5 c 128,-1,10
 129 55 129 55 129 94 c 0,11,12
 129 143 129 143 161 172.5 c 128,-1,13
 193 202 193 202 239 202 c 0,14,15
 311 202 311 202 360 141 c 0,16,17
 412 76 412 76 412 -21 c 0,18,19
 412 -73 412 -73 388.5 -138 c 128,-1,20
 365 -203 365 -203 324 -251 c 0,21,22
 259 -327 259 -327 149 -380 c 1,23,-1
 126 -341 l 1,0,1
EndSplineSet
EndChar

StartChar: hyphen
Encoding: 45 45 13
Width: 900
VWidth: 2078
Flags: W
HStem: 358 132<136 764>
VStem: 136 628<358 490>
LayerCount: 3
Fore
SplineSet
136 358 m 1
 136 490 l 1
 764 490 l 1
 764 358 l 1
 136 358 l 1
EndSplineSet
Layer: 2
SplineSet
136 358 m 1,0,-1
 136 490 l 1,1,-1
 764 490 l 1,2,-1
 764 358 l 1,3,-1
 136 358 l 1,0,-1
EndSplineSet
EndChar

StartChar: period
Encoding: 46 46 14
Width: 528
VWidth: 2078
Flags: W
HStem: -24 256<166.773 361.227>
VStem: 136 256<6.77267 201.227>
LayerCount: 3
Fore
SplineSet
136 104 m 0
 136 176 192 232 264 232 c 0
 336 232 392 176 392 104 c 0
 392 32 336 -24 264 -24 c 0
 192 -24 136 32 136 104 c 0
EndSplineSet
Layer: 2
SplineSet
136 104 m 128,-1,1
 136 158 136 158 173 195 c 128,-1,2
 210 232 210 232 264 232 c 128,-1,3
 318 232 318 232 355 195 c 128,-1,4
 392 158 392 158 392 104 c 128,-1,5
 392 50 392 50 355 13 c 128,-1,6
 318 -24 318 -24 264 -24 c 128,-1,7
 210 -24 210 -24 173 13 c 128,-1,0
 136 50 136 50 136 104 c 128,-1,1
EndSplineSet
EndChar

StartChar: slash
Encoding: 47 47 15
Width: 722
VWidth: 2078
Flags: W
HStem: -468 21G<88 194.606> 1440 20G<527.394 634>
VStem: 88 546
DStem2: 88 -468 190 -468 0.224417 0.974493<22.8905 1978.46>
LayerCount: 3
Fore
SplineSet
88 -468 m 1
 532 1460 l 1
 634 1460 l 1
 190 -468 l 1
 88 -468 l 1
EndSplineSet
Layer: 2
SplineSet
88 -468 m 1,0,-1
 532 1460 l 1,1,-1
 634 1460 l 1,2,-1
 190 -468 l 1,3,-1
 88 -468 l 1,0,-1
EndSplineSet
Substitution2: "'frac' Diagonal Fractions-1" fraction
EndChar

StartChar: zero
Encoding: 48 48 16
Width: 1152
VWidth: 2078
Flags: W
HStem: -28 64<466.539 685.461> 1424 64<466.539 685.461>
VStem: 68 204<434.95 1025.05> 880 204<434.95 1025.05>
LayerCount: 3
Fore
SplineSet
68 730 m 0
 68 1070 240 1488 576 1488 c 0
 912 1488 1084 1070 1084 730 c 0
 1084 390 912 -28 576 -28 c 0
 240 -28 68 390 68 730 c 0
272 730 m 0
 272 286 364 36 576 36 c 0
 788 36 880 286 880 730 c 0
 880 1174 788 1424 576 1424 c 0
 364 1424 272 1174 272 730 c 0
EndSplineSet
Layer: 2
SplineSet
68 730 m 128,-1,1
 68 816 68 816 82.5 904.5 c 128,-1,2
 97 993 97 993 124.5 1077.5 c 128,-1,3
 152 1162 152 1162 196 1236.5 c 128,-1,4
 240 1311 240 1311 294.5 1367 c 128,-1,5
 349 1423 349 1423 422 1455.5 c 128,-1,6
 495 1488 495 1488 576 1488 c 128,-1,7
 657 1488 657 1488 730 1455.5 c 128,-1,8
 803 1423 803 1423 857.5 1367 c 128,-1,9
 912 1311 912 1311 956 1236.5 c 128,-1,10
 1000 1162 1000 1162 1027.5 1077.5 c 128,-1,11
 1055 993 1055 993 1069.5 904.5 c 128,-1,12
 1084 816 1084 816 1084 730 c 128,-1,13
 1084 644 1084 644 1069.5 555.5 c 128,-1,14
 1055 467 1055 467 1027.5 382.5 c 128,-1,15
 1000 298 1000 298 956 223.5 c 128,-1,16
 912 149 912 149 857.5 93 c 128,-1,17
 803 37 803 37 730 4.5 c 128,-1,18
 657 -28 657 -28 576 -28 c 128,-1,19
 495 -28 495 -28 422 4.5 c 128,-1,20
 349 37 349 37 294.5 93 c 128,-1,21
 240 149 240 149 196 223.5 c 128,-1,22
 152 298 152 298 124.5 382.5 c 128,-1,23
 97 467 97 467 82.5 555.5 c 128,-1,0
 68 644 68 644 68 730 c 128,-1,1
272 730 m 128,-1,25
 272 36 272 36 576 36 c 128,-1,26
 880 36 880 36 880 730 c 128,-1,27
 880 1424 880 1424 576 1424 c 128,-1,24
 272 1424 272 1424 272 730 c 128,-1,25
EndSplineSet
Substitution2: "'dnom' Denominators-1" zero.dnom
Substitution2: "'subs' Subscript Forms-1" zeroinferior
Substitution2: "'sups' Superscript Forms-1" zerosuperior
AlternateSubs2: "'aalt' Access All Alternates-1" zerooldstyle
Substitution2: "'onum' Oldstyle Figures-1" zerooldstyle
EndChar

StartChar: one
Encoding: 49 49 17
Width: 1152
VWidth: 2079
Flags: W
HStem: 0 21G<482 672> 1448 20G<538.701 652>
VStem: 502 150<1.88086 1269.99>
DStem2: 202 1080 244 1039 0.675035 0.737785<0 323.762>
LayerCount: 3
Fore
SplineSet
202 1080 m 17
 557 1468 l 9
 652 1468 l 9
 652 144 l 18
 652 88 660 40 672 0 c 9
 482 0 l 17
 494 40 502 88 502 144 c 10
 502 1234 l 18
 502 1250 500 1270 475 1270 c 0
 453 1270 438 1253 417 1229 c 10
 244 1039 l 25
 202 1080 l 17
EndSplineSet
Layer: 2
SplineSet
202 1080 m 1,0,-1
 557 1468 l 1,1,-1
 652 1468 l 1,2,-1
 652 144 l 2,3,4
 652 67 652 67 672 0 c 1,5,-1
 482 0 l 1,6,7
 502 67 502 67 502 144 c 2,8,-1
 502 1234 l 2,9,10
 502 1270 502 1270 475 1270 c 0,11,12
 460 1270 460 1270 448 1260.5 c 128,-1,13
 436 1251 436 1251 417 1229 c 2,14,-1
 244 1039 l 1,15,-1
 202 1080 l 1,0,-1
EndSplineSet
Substitution2: "'dnom' Denominators-1" one.dnom
Substitution2: "'subs' Subscript Forms-1" oneinferior
Substitution2: "'sups' Superscript Forms-1" onesuperior
AlternateSubs2: "'aalt' Access All Alternates-1" onesuperior oneoldstyle
Substitution2: "'onum' Oldstyle Figures-1" oneoldstyle
EndChar

StartChar: two
Encoding: 50 50 18
Width: 1152
Flags: W
HStem: 0 166<269 912.462> 1424 64<419.211 695.83>
VStem: 164 154<1109.5 1304.07> 842 180<952.52 1295.3>
LayerCount: 3
Fore
SplineSet
112 0 m 1
 112 39 l 1
 205 232 385 457 566 633 c 0
 742 804 842 918 842 1136 c 0
 842 1284 742 1424 565 1424 c 0
 400 1424 318 1348 318 1267 c 0
 318 1240 339 1219 349 1210 c 0
 387 1176 403 1150 403 1107 c 0
 403 1055 368 999 301 999 c 0
 224 999 164 1058 164 1161 c 0
 164 1344 367 1488 613 1488 c 0
 880 1488 1022 1316 1022 1144 c 0
 1022 908 848 764 669 620 c 0
 479 468 348 320 269 166 c 1
 831 166 l 2
 887 166 902 192 920 224 c 0
 939 258 955 303 962 351 c 0
 967 383 976 398 995 398 c 0
 1020 398 1026 363 1026 346 c 1
 1026 312 1024 287 1008 236 c 2
 936 0 l 1
 112 0 l 1
EndSplineSet
Layer: 2
SplineSet
112 0 m 1,0,-1
 112 39 l 1,1,2
 179 179 179 179 301.5 337 c 128,-1,3
 424 495 424 495 566 633 c 0,4,5
 626 692 626 692 663 731 c 128,-1,6
 700 770 700 770 738 820 c 128,-1,7
 776 870 776 870 796 914.5 c 128,-1,8
 816 959 816 959 829 1015.5 c 128,-1,9
 842 1072 842 1072 842 1136 c 0,10,11
 842 1254 842 1254 767 1339 c 128,-1,12
 692 1424 692 1424 565 1424 c 0,13,14
 448 1424 448 1424 383 1378 c 128,-1,15
 318 1332 318 1332 318 1267 c 0,16,17
 318 1238 318 1238 349 1210 c 0,18,19
 378 1184 378 1184 390.5 1161 c 128,-1,20
 403 1138 403 1138 403 1107 c 0,21,22
 403 1064 403 1064 375.5 1031.5 c 128,-1,23
 348 999 348 999 301 999 c 0,24,25
 241 999 241 999 202.5 1042.5 c 128,-1,26
 164 1086 164 1086 164 1161 c 0,27,28
 164 1251 164 1251 224.5 1326.5 c 128,-1,29
 285 1402 285 1402 388.5 1445 c 128,-1,30
 492 1488 492 1488 613 1488 c 0,31,32
 710 1488 710 1488 789 1458.5 c 128,-1,33
 868 1429 868 1429 918 1380 c 128,-1,34
 968 1331 968 1331 995 1270.5 c 128,-1,35
 1022 1210 1022 1210 1022 1144 c 0,36,37
 1022 1095 1022 1095 1011 1048 c 128,-1,38
 1000 1001 1000 1001 984 963 c 128,-1,39
 968 925 968 925 938.5 883.5 c 128,-1,40
 909 842 909 842 884 813 c 128,-1,41
 859 784 859 784 816.5 745 c 128,-1,42
 774 706 774 706 746 682.5 c 128,-1,43
 718 659 718 659 669 620 c 0,44,45
 386 393 386 393 269 166 c 1,46,-1
 831 166 l 2,47,48
 857 166 857 166 875 175 c 128,-1,49
 893 184 893 184 900.5 194 c 128,-1,50
 908 204 908 204 920 224 c 0,51,52
 952 281 952 281 962 351 c 0,53,54
 969 398 969 398 995 398 c 0,55,56
 1012 398 1012 398 1019 381 c 128,-1,57
 1026 364 1026 364 1026 346 c 0,58,59
 1026 293 1026 293 1008 236 c 2,60,-1
 936 0 l 1,61,-1
 112 0 l 1,0,-1
EndSplineSet
Substitution2: "'dnom' Denominators-1" two.dnom
Substitution2: "'subs' Subscript Forms-1" twoinferior
Substitution2: "'sups' Superscript Forms-1" twosuperior
AlternateSubs2: "'aalt' Access All Alternates-1" twosuperior twooldstyle
Substitution2: "'onum' Oldstyle Figures-1" twooldstyle
EndChar

StartChar: three
Encoding: 51 51 19
Width: 1152
VWidth: 2078
Flags: W
HStem: -28 64<405.976 679.317> 726 104<360.499 549.194> 746 64<416.663 691.147> 1424 64<409.39 691.887>
VStem: 124 188<129.006 344.145> 168 146<1137.5 1316.01> 816 168<986.519 1304.83> 848 174<207.109 577.565>
LayerCount: 3
Fore
SplineSet
124 259 m 0xb9
 124 320 154 362 212 362 c 0
 292 362 304 290 312 227 c 0
 328 104 400 36 534 36 c 0
 750 36 848 186 848 407 c 0
 848 614 742 746 550 746 c 0xb9
 533 746 503 741 477 735 c 0
 453 730 430 726 416 726 c 0
 388 726 360 742 360 778 c 0
 360 814 388 830 416 830 c 0xd9
 430 830 453 826 477 821 c 0
 503 815 533 810 550 810 c 0
 718 810 816 956 816 1150 c 0
 816 1324 715 1424 559 1424 c 0
 388 1424 314 1332 314 1268 c 0
 314 1240 322 1223 342 1204 c 0
 372 1176 385 1155 385 1114 c 0
 385 1080 353 1037 296 1037 c 0
 221 1037 168 1101 168 1174 c 0
 168 1330 329 1488 575 1488 c 0
 841 1488 984 1316 984 1150 c 0xb6
 984 964 842 842 671 792 c 9
 671 782 l 17
 878 750 1022 594 1022 407 c 0
 1022 140 824 -28 538 -28 c 0
 288 -28 124 102 124 259 c 0xb9
EndSplineSet
Layer: 2
SplineSet
124 259 m 0,0,1
 124 306 124 306 147 334 c 128,-1,2
 170 362 170 362 212 362 c 0,3,4
 240 362 240 362 259.5 351 c 128,-1,5
 279 340 279 340 289.5 317 c 128,-1,6
 300 294 300 294 304 275.5 c 128,-1,7
 308 257 308 257 312 227 c 0,8,9
 337 36 337 36 534 36 c 0,10,11
 691 36 691 36 769.5 135.5 c 128,-1,12
 848 235 848 235 848 407 c 0,13,14
 848 564 848 564 770 655 c 128,-1,15
 692 746 692 746 550 746 c 0,16,17
 525 746 525 746 477 735 c 0,18,19
 434 726 434 726 416 726 c 0,20,21
 393 726 393 726 376.5 739.5 c 128,-1,22
 360 753 360 753 360 778 c 128,-1,23
 360 803 360 803 376.5 816.5 c 128,-1,24
 393 830 393 830 416 830 c 0,25,26
 434 830 434 830 477 821 c 0,27,28
 525 810 525 810 550 810 c 0,29,30
 673 810 673 810 744.5 905.5 c 128,-1,31
 816 1001 816 1001 816 1150 c 0,32,33
 816 1279 816 1279 746.5 1351.5 c 128,-1,34
 677 1424 677 1424 559 1424 c 0,35,36
 442 1424 442 1424 378 1374.5 c 128,-1,37
 314 1325 314 1325 314 1268 c 0,38,39
 314 1231 314 1231 342 1204 c 0,40,41
 366 1182 366 1182 375.5 1163 c 128,-1,42
 385 1144 385 1144 385 1114 c 0,43,44
 385 1086 385 1086 360.5 1061.5 c 128,-1,45
 336 1037 336 1037 296 1037 c 0,46,47
 241 1037 241 1037 204.5 1077.5 c 128,-1,48
 168 1118 168 1118 168 1174 c 0,49,50
 168 1297 168 1297 283 1392.5 c 128,-1,51
 398 1488 398 1488 575 1488 c 0,52,53
 671 1488 671 1488 750.5 1458.5 c 128,-1,54
 830 1429 830 1429 880 1381 c 128,-1,55
 930 1333 930 1333 957 1273 c 128,-1,56
 984 1213 984 1213 984 1150 c 0,57,58
 984 1017 984 1017 896 924.5 c 128,-1,59
 808 832 808 832 671 792 c 1,60,-1
 671 782 l 1,61,62
 826 758 826 758 924 653 c 128,-1,63
 1022 548 1022 548 1022 407 c 0,64,65
 1022 209 1022 209 888 90.5 c 128,-1,66
 754 -28 754 -28 538 -28 c 0,67,68
 355 -28 355 -28 239.5 55 c 128,-1,69
 124 138 124 138 124 259 c 0,0,1
EndSplineSet
Substitution2: "'dnom' Denominators-1" three.dnom
Substitution2: "'subs' Subscript Forms-1" threeinferior
Substitution2: "'sups' Superscript Forms-1" threesuperior
AlternateSubs2: "'aalt' Access All Alternates-1" threesuperior threeoldstyle
Substitution2: "'onum' Oldstyle Figures-1" threeoldstyle
EndChar

StartChar: four
Encoding: 52 52 20
Width: 1152
Flags: W
HStem: 0 21G<656 846> 450 108<174 676 826 1110.12> 1448 20G<742.684 826>
VStem: 676 150<1.88086 450 558 1260>
DStem2: 72 511 174 558 0.582042 0.813159<97.5867 960.609>
LayerCount: 3
Fore
SplineSet
72 450 m 1
 72 511 l 1
 757 1468 l 1
 826 1468 l 1
 826 558 l 1
 968 558 l 2
 1024 558 1072 566 1112 578 c 9
 1112 430 l 17
 1072 442 1024 450 968 450 c 2
 826 450 l 1
 826 144 l 2
 826 88 834 40 846 0 c 9
 656 0 l 17
 668 40 676 88 676 144 c 2
 676 450 l 1
 72 450 l 1
174 558 m 1
 676 558 l 1
 676 1260 l 1
 174 558 l 1
EndSplineSet
Layer: 2
SplineSet
72 450 m 1,0,-1
 72 511 l 1,1,-1
 757 1468 l 1,2,-1
 826 1468 l 1,3,-1
 826 558 l 1,4,-1
 968 558 l 2,5,6
 1045 558 1045 558 1112 578 c 1,7,-1
 1112 430 l 1,8,9
 1045 450 1045 450 968 450 c 2,10,-1
 826 450 l 1,11,-1
 826 144 l 2,12,13
 826 67 826 67 846 0 c 1,14,-1
 656 0 l 1,15,16
 676 67 676 67 676 144 c 2,17,-1
 676 450 l 1,18,-1
 72 450 l 1,0,-1
174 558 m 1,19,-1
 676 558 l 1,20,-1
 676 1260 l 1,21,-1
 174 558 l 1,19,-1
EndSplineSet
Substitution2: "'dnom' Denominators-1" four.dnom
Substitution2: "'subs' Subscript Forms-1" fourinferior
Substitution2: "'sups' Superscript Forms-1" foursuperior
AlternateSubs2: "'aalt' Access All Alternates-1" foursuperior fouroldstyle
Substitution2: "'onum' Oldstyle Figures-1" fouroldstyle
EndChar

StartChar: five
Encoding: 53 53 21
Width: 1152
VWidth: 2078
Flags: W
HStem: -28 76<380.451 683.382> 856 164<292.702 677.145> 1294 166<306 870.702>
VStem: 876 148<292.336 656.03>
DStem2: 202 792 288 987 0.058284 0.9983<199.681 507.208>
LayerCount: 3
Fore
SplineSet
78 220 m 0
 78 266 104 316 154 316 c 0
 216 316 234 283 265 223 c 0
 324 109 395 48 522 48 c 0
 783 48 876 266 876 455 c 0
 876 688 734 856 478 856 c 0
 396 856 320 841 232 792 c 1
 202 792 l 9
 241 1460 l 25
 796 1460 l 18
 850 1460 866 1483 875 1518 c 0
 888 1566 900 1586 925 1586 c 0
 950 1586 956 1569 956 1553 c 0
 956 1529 946 1495 934 1459 c 26
 879 1294 l 25
 306 1294 l 25
 288 987 l 17
 294 983 l 1
 362 1009 432 1020 499 1020 c 0
 892 1020 1024 755 1024 518 c 0
 1024 210 804 -28 486 -28 c 0
 252 -28 78 98 78 220 c 0
EndSplineSet
Layer: 2
SplineSet
78 220 m 0,0,1
 78 258 78 258 98.5 287 c 128,-1,2
 119 316 119 316 154 316 c 0,3,4
 197 316 197 316 217.5 296 c 128,-1,5
 238 276 238 276 265 223 c 0,6,7
 311 134 311 134 370.5 91 c 128,-1,8
 430 48 430 48 522 48 c 0,9,10
 616 48 616 48 687 84.5 c 128,-1,11
 758 121 758 121 797.5 181.5 c 128,-1,12
 837 242 837 242 856.5 311 c 128,-1,13
 876 380 876 380 876 455 c 0,14,15
 876 634 876 634 771 745 c 128,-1,16
 666 856 666 856 478 856 c 0,17,18
 347 856 347 856 232 792 c 1,19,-1
 202 792 l 1,20,-1
 241 1460 l 1,21,-1
 796 1460 l 2,22,23
 834 1460 834 1460 850.5 1474.5 c 128,-1,24
 867 1489 867 1489 875 1518 c 0,25,26
 885 1555 885 1555 896 1570.5 c 128,-1,27
 907 1586 907 1586 925 1586 c 0,28,29
 956 1586 956 1586 956 1553 c 0,30,31
 956 1525 956 1525 934 1459 c 2,32,-1
 879 1294 l 1,33,-1
 306 1294 l 1,34,-1
 288 987 l 1,35,-1
 294 983 l 1,36,37
 391 1020 391 1020 499 1020 c 0,38,39
 613 1020 613 1020 704 990.5 c 128,-1,40
 795 961 795 961 854 912 c 128,-1,41
 913 863 913 863 952 797 c 128,-1,42
 991 731 991 731 1007.5 661.5 c 128,-1,43
 1024 592 1024 592 1024 518 c 0,44,45
 1024 365 1024 365 956.5 240.5 c 128,-1,46
 889 116 889 116 765.5 44 c 128,-1,47
 642 -28 642 -28 486 -28 c 0,48,49
 316 -28 316 -28 197 48.5 c 128,-1,50
 78 125 78 125 78 220 c 0,0,1
EndSplineSet
Substitution2: "'dnom' Denominators-1" five.dnom
Substitution2: "'subs' Subscript Forms-1" fiveinferior
Substitution2: "'sups' Superscript Forms-1" fivesuperior
AlternateSubs2: "'aalt' Access All Alternates-1" fiveoldstyle
Substitution2: "'onum' Oldstyle Figures-1" fiveoldstyle
EndChar

StartChar: six
Encoding: 54 54 22
Width: 1152
Flags: W
HStem: -28 70<462.115 699.286> 836 64<472.258 706.006> 1432 56<865.388 922.096>
VStem: 122 180<304.716 652.237> 862 180<243.535 673.61>
LayerCount: 3
Fore
SplineSet
122 576 m 0
 122 1068 522 1416 918 1488 c 1
 934 1432 l 1
 636 1336 403 1128 323 788 c 1
 345 780 l 1
 426 864 522 900 620 900 c 0
 883 900 1042 706 1042 470 c 0
 1042 174 848 -28 593 -28 c 0
 340 -28 122 192 122 576 c 0
302 453 m 0
 302 153 445 42 586 42 c 0
 730 42 862 190 862 456 c 0
 862 676 768 836 579 836 c 0
 444 836 302 684 302 453 c 0
EndSplineSet
Layer: 2
SplineSet
122 576 m 0,0,1
 122 719 122 719 166.5 852 c 128,-1,2
 211 985 211 985 288 1089.5 c 128,-1,3
 365 1194 365 1194 466.5 1277 c 128,-1,4
 568 1360 568 1360 683 1413 c 128,-1,5
 798 1466 798 1466 918 1488 c 1,6,-1
 934 1432 l 1,7,8
 701 1357 701 1357 541 1195.5 c 128,-1,9
 381 1034 381 1034 323 788 c 1,10,-1
 345 780 l 1,11,12
 461 900 461 900 620 900 c 0,13,14
 748 900 748 900 845 841.5 c 128,-1,15
 942 783 942 783 992 686 c 128,-1,16
 1042 589 1042 589 1042 470 c 0,17,18
 1042 250 1042 250 914 111 c 128,-1,19
 786 -28 786 -28 593 -28 c 0,20,21
 498 -28 498 -28 413 13 c 128,-1,22
 328 54 328 54 263 129.5 c 128,-1,23
 198 205 198 205 160 320.5 c 128,-1,24
 122 436 122 436 122 576 c 0,0,1
302 453 m 0,25,26
 302 345 302 345 326 263 c 128,-1,27
 350 181 350 181 391.5 134.5 c 128,-1,28
 433 88 433 88 482 65 c 128,-1,29
 531 42 531 42 586 42 c 0,30,31
 700 42 700 42 781 153.5 c 128,-1,32
 862 265 862 265 862 456 c 0,33,34
 862 627 862 627 789 731.5 c 128,-1,35
 716 836 716 836 579 836 c 0,36,37
 472 836 472 836 387 727.5 c 128,-1,38
 302 619 302 619 302 453 c 0,25,26
EndSplineSet
Substitution2: "'dnom' Denominators-1" six.dnom
Substitution2: "'subs' Subscript Forms-1" sixinferior
Substitution2: "'sups' Superscript Forms-1" sixsuperior
AlternateSubs2: "'aalt' Access All Alternates-1" sixoldstyle
Substitution2: "'onum' Oldstyle Figures-1" sixoldstyle
EndChar

StartChar: seven
Encoding: 55 55 23
Width: 1152
VWidth: 2078
Flags: W
HStem: 0 21G<461 729.5> 1294 166<301.36 957>
LayerCount: 3
Fore
SplineSet
174 1108 m 0
 174 1127 180 1153 190 1188 c 2
 271 1460 l 9
 1046 1460 l 25
 1046 1391 l 17
 887 937 767 498 692 0 c 9
 461 0 l 25
 461 40 l 25
 957 1294 l 9
 401 1294 l 2
 359 1294 329 1286 300 1248 c 0
 279 1221 265 1197 241 1116 c 0
 236 1099 227 1075 204 1075 c 0
 184 1075 174 1085 174 1108 c 0
EndSplineSet
Layer: 2
SplineSet
174 1108 m 0,0,1
 174 1132 174 1132 190 1188 c 2,2,-1
 271 1460 l 1,3,-1
 1046 1460 l 1,4,-1
 1046 1391 l 1,5,6
 792 667 792 667 692 0 c 1,7,-1
 461 0 l 1,8,-1
 461 40 l 1,9,-1
 957 1294 l 1,10,-1
 401 1294 l 2,11,12
 367 1294 367 1294 344 1284.5 c 128,-1,13
 321 1275 321 1275 300 1248 c 0,14,15
 268 1207 268 1207 241 1116 c 0,16,17
 229 1075 229 1075 204 1075 c 0,18,19
 174 1075 174 1075 174 1108 c 0,0,1
EndSplineSet
Substitution2: "'dnom' Denominators-1" seven.dnom
Substitution2: "'subs' Subscript Forms-1" seveninferior
Substitution2: "'sups' Superscript Forms-1" sevensuperior
AlternateSubs2: "'aalt' Access All Alternates-1" sevenoldstyle
Substitution2: "'onum' Oldstyle Figures-1" sevenoldstyle
EndChar

StartChar: eight
Encoding: 56 56 24
Width: 1152
Flags: W
HStem: -28 64<444.413 739.076> 1429 59<460.723 708.904>
VStem: 108 170<171.995 478.343> 182 122<1042.43 1284.47> 868 144<1007.36 1303.08> 920 124<204.357 455.18>
DStem2: 653 816 516 686 0.889136 -0.457643<-89.6391 25.697 63.9524 367.244>
LayerCount: 3
Fore
SplineSet
108 332 m 0xe4
 108 510 286 634 458 710 c 1
 458 720 l 1
 276 828 182 929 182 1114 c 0
 182 1336 375 1488 599 1488 c 0
 813 1488 1012 1358 1012 1164 c 0xd8
 1012 994 872 880 710 794 c 1
 710 787 l 1
 908 690 1044 590 1044 380 c 0
 1044 140 826 -28 584 -28 c 0
 329 -28 108 102 108 332 c 0xe4
278 342 m 0xe4
 278 122 436 36 592 36 c 0
 772 36 920 159 920 324 c 0
 920 464 818 528 584 651 c 2
 516 686 l 1
 382 620 278 504 278 342 c 0xe4
304 1172 m 0xd8
 304 1016 476 904 653 816 c 1
 790 897 868 988 868 1156 c 0
 868 1305 744 1429 590 1429 c 0
 440 1429 304 1320 304 1172 c 0xd8
EndSplineSet
Layer: 2
SplineSet
108 332 m 0,0,1
 108 396 108 396 137.5 454.5 c 128,-1,2
 167 513 167 513 219.5 560 c 128,-1,3
 272 607 272 607 330 643 c 128,-1,4
 388 679 388 679 458 710 c 1,5,-1
 458 720 l 1,6,7
 313 806 313 806 247.5 893.5 c 128,-1,8
 182 981 182 981 182 1114 c 0,9,10
 182 1277 182 1277 304.5 1382.5 c 128,-1,11
 427 1488 427 1488 599 1488 c 0,12,13
 707 1488 707 1488 800.5 1448 c 128,-1,14
 894 1408 894 1408 953 1333 c 128,-1,15
 1012 1258 1012 1258 1012 1164 c 0,16,17
 1012 1103 1012 1103 988.5 1047.5 c 128,-1,18
 965 992 965 992 921 946.5 c 128,-1,19
 877 901 877 901 826.5 865 c 128,-1,20
 776 829 776 829 710 794 c 1,21,-1
 710 787 l 1,22,23
 792 747 792 747 847 711 c 128,-1,24
 902 675 902 675 950 627 c 128,-1,25
 998 579 998 579 1021 517.5 c 128,-1,26
 1044 456 1044 456 1044 380 c 0,27,28
 1044 263 1044 263 979.5 168.5 c 128,-1,29
 915 74 915 74 810 23 c 128,-1,30
 705 -28 705 -28 584 -28 c 0,31,32
 454 -28 454 -28 347.5 13 c 128,-1,33
 241 54 241 54 174.5 137.5 c 128,-1,34
 108 221 108 221 108 332 c 0,0,1
278 342 m 0,35,36
 278 263 278 263 304.5 202 c 128,-1,37
 331 141 331 141 376.5 106 c 128,-1,38
 422 71 422 71 476.5 53.5 c 128,-1,39
 531 36 531 36 592 36 c 0,40,41
 728 36 728 36 824 118.5 c 128,-1,42
 920 201 920 201 920 324 c 0,43,44
 920 366 920 366 906.5 400.5 c 128,-1,45
 893 435 893 435 870.5 463 c 128,-1,46
 848 491 848 491 802 523.5 c 128,-1,47
 756 556 756 556 710 582.5 c 128,-1,48
 664 609 664 609 584 651 c 2,49,-1
 516 686 l 1,50,51
 408 633 408 633 343 545.5 c 128,-1,52
 278 458 278 458 278 342 c 0,35,36
304 1172 m 0,53,54
 304 1116 304 1116 332.5 1064 c 128,-1,55
 361 1012 361 1012 413.5 967.5 c 128,-1,56
 466 923 466 923 522.5 888 c 128,-1,57
 579 853 579 853 653 816 c 1,58,59
 725 859 725 859 770.5 903.5 c 128,-1,60
 816 948 816 948 842 1011 c 128,-1,61
 868 1074 868 1074 868 1156 c 0,62,63
 868 1268 868 1268 786.5 1348.5 c 128,-1,64
 705 1429 705 1429 590 1429 c 128,-1,65
 475 1429 475 1429 389.5 1355 c 128,-1,66
 304 1281 304 1281 304 1172 c 0,53,54
EndSplineSet
Substitution2: "'dnom' Denominators-1" eight.dnom
Substitution2: "'subs' Subscript Forms-1" eightinferior
Substitution2: "'sups' Superscript Forms-1" eightsuperior
AlternateSubs2: "'aalt' Access All Alternates-1" eightoldstyle
Substitution2: "'onum' Oldstyle Figures-1" eightoldstyle
EndChar

StartChar: nine
Encoding: 57 57 25
Width: 1152
Flags: W
HStem: -28 56<229.904 286.612> 560 64<445.994 679.742> 1418 70<452.714 689.885>
VStem: 110 180<786.39 1216.46> 850 180<807.763 1155.28>
LayerCount: 3
Fore
SplineSet
110 990 m 0
 110 1286 304 1488 559 1488 c 0
 812 1488 1030 1268 1030 884 c 0
 1030 392 630 44 234 -28 c 1
 218 28 l 1
 516 124 749 332 829 672 c 1
 807 680 l 1
 726 596 630 560 532 560 c 0
 269 560 110 754 110 990 c 0
290 1004 m 0
 290 784 384 624 573 624 c 0
 708 624 850 776 850 1007 c 0
 850 1307 707 1418 566 1418 c 0
 422 1418 290 1270 290 1004 c 0
EndSplineSet
Layer: 2
SplineSet
110 990 m 0,0,1
 110 1210 110 1210 238 1349 c 128,-1,2
 366 1488 366 1488 559 1488 c 0,3,4
 654 1488 654 1488 739 1447 c 128,-1,5
 824 1406 824 1406 889 1330.5 c 128,-1,6
 954 1255 954 1255 992 1139.5 c 128,-1,7
 1030 1024 1030 1024 1030 884 c 0,8,9
 1030 741 1030 741 985.5 608 c 128,-1,10
 941 475 941 475 864 370.5 c 128,-1,11
 787 266 787 266 685.5 183 c 128,-1,12
 584 100 584 100 469 47 c 128,-1,13
 354 -6 354 -6 234 -28 c 1,14,-1
 218 28 l 1,15,16
 451 103 451 103 611 264.5 c 128,-1,17
 771 426 771 426 829 672 c 1,18,-1
 807 680 l 1,19,20
 691 560 691 560 532 560 c 0,21,22
 404 560 404 560 307 618.5 c 128,-1,23
 210 677 210 677 160 774 c 128,-1,24
 110 871 110 871 110 990 c 0,0,1
290 1004 m 0,25,26
 290 833 290 833 363 728.5 c 128,-1,27
 436 624 436 624 573 624 c 0,28,29
 680 624 680 624 765 732.5 c 128,-1,30
 850 841 850 841 850 1007 c 0,31,32
 850 1115 850 1115 826 1197 c 128,-1,33
 802 1279 802 1279 760.5 1325.5 c 128,-1,34
 719 1372 719 1372 670 1395 c 128,-1,35
 621 1418 621 1418 566 1418 c 0,36,37
 452 1418 452 1418 371 1306.5 c 128,-1,38
 290 1195 290 1195 290 1004 c 0,25,26
EndSplineSet
Substitution2: "'dnom' Denominators-1" nine.dnom
Substitution2: "'subs' Subscript Forms-1" nineinferior
Substitution2: "'sups' Superscript Forms-1" ninesuperior
AlternateSubs2: "'aalt' Access All Alternates-1" nineoldstyle
Substitution2: "'onum' Oldstyle Figures-1" nineoldstyle
EndChar

StartChar: less
Encoding: 60 60 28
Width: 1152
VWidth: 1882
Flags: W
HStem: -24 21G<985.633 1034>
VStem: 84 115<408.5 619.5>
DStem2: 84 562 199 514 0.886753 0.462244<79.7889 1058.39> 199 514 84 466 0.886753 -0.462244<0 978.598>
LayerCount: 3
Fore
SplineSet
84 466 m 1
 84 562 l 1
 1024 1052 l 1
 1068 964 l 1
 199 514 l 1
 1068 64 l 1
 1024 -24 l 1
 84 466 l 1
EndSplineSet
Layer: 2
SplineSet
84 466 m 1,0,-1
 84 562 l 1,1,-1
 1024 1052 l 1,2,-1
 1068 964 l 1,3,-1
 199 514 l 1,4,-1
 1068 64 l 1,5,-1
 1024 -24 l 1,6,-1
 84 466 l 1,0,-1
EndSplineSet
EndChar

StartChar: equal
Encoding: 61 61 29
Width: 1152
VWidth: 2078
Flags: W
HStem: 310 96<62 1090> 622 96<62 1090>
LayerCount: 3
Fore
SplineSet
62 310 m 1
 62 406 l 1
 1090 406 l 1
 1090 310 l 1
 62 310 l 1
62 622 m 1
 62 718 l 1
 1090 718 l 1
 1090 622 l 1
 62 622 l 1
EndSplineSet
Layer: 2
SplineSet
62 310 m 1,0,-1
 62 406 l 1,1,-1
 1090 406 l 1,2,-1
 1090 310 l 1,3,-1
 62 310 l 1,0,-1
62 622 m 1,4,-1
 62 718 l 1,5,-1
 1090 718 l 1,6,-1
 1090 622 l 1,7,-1
 62 622 l 1,4,-1
EndSplineSet
EndChar

StartChar: greater
Encoding: 62 62 30
Width: 1152
VWidth: 1882
Flags: W
HStem: -24 21G<118 166.367>
VStem: 953 115<408.5 619.5>
DStem2: 128 1052 84 964 0.886753 -0.462244<1.66031 980.258> 84 64 128 -24 0.886753 0.462244<0 978.598>
LayerCount: 3
Fore
SplineSet
84 64 m 1
 953 514 l 1
 84 964 l 1
 128 1052 l 1
 1068 562 l 1
 1068 466 l 1
 128 -24 l 1
 84 64 l 1
EndSplineSet
Layer: 2
SplineSet
84 64 m 1,0,-1
 953 514 l 1,1,-1
 84 964 l 1,2,-1
 128 1052 l 1,3,-1
 1068 562 l 1,4,-1
 1068 466 l 1,5,-1
 128 -24 l 1,6,-1
 84 64 l 1,0,-1
EndSplineSet
EndChar

StartChar: question
Encoding: 63 63 31
Width: 852
VWidth: 2078
Flags: W
HStem: -24 256<198.773 393.227> 1320 168<190.887 498.846>
VStem: 168 256<6.77267 201.227> 268 72<339 738.767> 652 88<965.839 1231.76>
LayerCount: 3
Fore
SplineSet
110 1370 m 0xd8
 110 1456 201 1488 286 1488 c 0
 528 1488 740 1333 740 1055 c 0
 740 846 612 774 429 754 c 0
 354 746 340 714 340 635 c 10
 340 339 l 25
 268 339 l 17
 268 809 l 2
 268 875 282 890 378 890 c 0
 568 890 652 966 652 1092 c 0
 652 1210 572 1320 442 1320 c 0
 404 1320 379 1314 345 1302 c 0
 298 1286 269 1277 237 1277 c 0
 184 1277 110 1296 110 1370 c 0xd8
168 104 m 0xe8
 168 176 224 232 296 232 c 0
 368 232 424 176 424 104 c 0
 424 32 368 -24 296 -24 c 0
 224 -24 168 32 168 104 c 0xe8
EndSplineSet
Layer: 2
SplineSet
110 1370 m 0,0,1
 110 1430 110 1430 162 1459 c 128,-1,2
 214 1488 214 1488 286 1488 c 0,3,4
 377 1488 377 1488 459 1459 c 128,-1,5
 541 1430 541 1430 603.5 1376.5 c 128,-1,6
 666 1323 666 1323 703 1239.5 c 128,-1,7
 740 1156 740 1156 740 1055 c 0,8,9
 740 979 740 979 718 923 c 128,-1,10
 696 867 696 867 652.5 833 c 128,-1,11
 609 799 609 799 555 780.5 c 128,-1,12
 501 762 501 762 429 754 c 0,13,14
 375 748 375 748 357.5 722.5 c 128,-1,15
 340 697 340 697 340 635 c 2,16,-1
 340 339 l 1,17,-1
 268 339 l 1,18,-1
 268 809 l 2,19,20
 268 860 268 860 287.5 875 c 128,-1,21
 307 890 307 890 378 890 c 0,22,23
 652 890 652 890 652 1092 c 0,24,25
 652 1185 652 1185 594 1252.5 c 128,-1,26
 536 1320 536 1320 442 1320 c 0,27,28
 396 1320 396 1320 345 1302 c 0,29,30
 272 1277 272 1277 237 1277 c 0,31,32
 187 1277 187 1277 148.5 1298.5 c 128,-1,33
 110 1320 110 1320 110 1370 c 0,0,1
168 104 m 128,-1,35
 168 158 168 158 205 195 c 128,-1,36
 242 232 242 232 296 232 c 128,-1,37
 350 232 350 232 387 195 c 128,-1,38
 424 158 424 158 424 104 c 128,-1,39
 424 50 424 50 387 13 c 128,-1,40
 350 -24 350 -24 296 -24 c 128,-1,41
 242 -24 242 -24 205 13 c 128,-1,34
 168 50 168 50 168 104 c 128,-1,35
EndSplineSet
EndChar

StartChar: at
Encoding: 64 64 32
Width: 1920
Flags: W
HStem: -398 64<652.738 1097.75> -16 64<640.115 771.752> 810 64<988.302 1152.81> 1259 64<892.304 1312.95>
VStem: 106 128<67.6478 616.315> 476 152<52.7471 340.507> 984 170<74.7625 170> 1702 112<452.859 925.023>
LayerCount: 3
Fore
SplineSet
106 345 m 0
 106 963 660 1323 1106 1323 c 0
 1588 1323 1814 1006 1814 704 c 0
 1814 246 1431 -16 1140 -16 c 0
 1050 -16 988 70 984 170 c 9
 974 173 l 17
 918 108 780 -16 648 -16 c 0
 596 -16 476 9 476 163 c 0
 476 454 813 874 1099 874 c 0
 1193 874 1233 800 1241 711 c 9
 1259 707 l 25
 1334 862 l 25
 1520 874 l 25
 1210 317 l 18
 1183 268 1154 210 1154 156 c 0
 1154 123 1172 64 1236 64 c 0
 1420 64 1702 276 1702 708 c 0
 1702 1011 1496 1259 1090 1259 c 0
 723 1259 234 904 234 350 c 0
 234 -113 516 -334 870 -334 c 0
 1125 -334 1401 -202 1516 -100 c 9
 1552 -157 l 17
 1404 -283 1113 -398 844 -398 c 0
 474 -398 106 -157 106 345 c 0
628 140 m 0
 628 68 659 48 700 48 c 0
 807 48 934 178 1042 329 c 0
 1117 434 1182 578 1182 664 c 0
 1182 738 1161 810 1084 810 c 0
 978 810 877 691 794 575 c 0
 717 467 628 290 628 140 c 0
EndSplineSet
Layer: 2
SplineSet
106 345 m 0,0,1
 106 524 106 524 167 683 c 128,-1,2
 228 842 228 842 329.5 957 c 128,-1,3
 431 1072 431 1072 561 1156 c 128,-1,4
 691 1240 691 1240 831 1281.5 c 128,-1,5
 971 1323 971 1323 1106 1323 c 0,6,7
 1246 1323 1246 1323 1364 1287.5 c 128,-1,8
 1482 1252 1482 1252 1564 1192 c 128,-1,9
 1646 1132 1646 1132 1703 1052 c 128,-1,10
 1760 972 1760 972 1787 884 c 128,-1,11
 1814 796 1814 796 1814 704 c 0,12,13
 1814 572 1814 572 1772 454 c 128,-1,14
 1730 336 1730 336 1660.5 252 c 128,-1,15
 1591 168 1591 168 1503 106 c 128,-1,16
 1415 44 1415 44 1321.5 14 c 128,-1,17
 1228 -16 1228 -16 1140 -16 c 0,18,19
 1074 -16 1074 -16 1030.5 38.5 c 128,-1,20
 987 93 987 93 984 170 c 1,21,-1
 974 173 l 1,22,23
 940 133 940 133 894 94 c 128,-1,24
 848 55 848 55 778.5 19.5 c 128,-1,25
 709 -16 709 -16 648 -16 c 0,26,27
 624 -16 624 -16 598.5 -9 c 128,-1,28
 573 -2 573 -2 543.5 15 c 128,-1,29
 514 32 514 32 495 70.5 c 128,-1,30
 476 109 476 109 476 163 c 0,31,32
 476 270 476 270 534 396.5 c 128,-1,33
 592 523 592 523 680 628 c 128,-1,34
 768 733 768 733 882 803.5 c 128,-1,35
 996 874 996 874 1099 874 c 0,36,37
 1165 874 1165 874 1199.5 829 c 128,-1,38
 1234 784 1234 784 1241 711 c 1,39,-1
 1259 707 l 1,40,-1
 1334 862 l 1,41,-1
 1520 874 l 1,42,-1
 1210 317 l 2,43,44
 1154 215 1154 215 1154 156 c 0,45,46
 1154 123 1154 123 1173.5 93.5 c 128,-1,47
 1193 64 1193 64 1236 64 c 0,48,49
 1293 64 1293 64 1355 89 c 128,-1,50
 1417 114 1417 114 1479.5 167 c 128,-1,51
 1542 220 1542 220 1591 294 c 128,-1,52
 1640 368 1640 368 1671 476 c 128,-1,53
 1702 584 1702 584 1702 708 c 0,54,55
 1702 823 1702 823 1663 922 c 128,-1,56
 1624 1021 1624 1021 1549 1096.5 c 128,-1,57
 1474 1172 1474 1172 1356 1215.5 c 128,-1,58
 1238 1259 1238 1259 1090 1259 c 0,59,60
 979 1259 979 1259 860 1218.5 c 128,-1,61
 741 1178 741 1178 630 1098 c 128,-1,62
 519 1018 519 1018 430 910.5 c 128,-1,63
 341 803 341 803 287.5 656.5 c 128,-1,64
 234 510 234 510 234 350 c 0,65,66
 234 214 234 214 266 101.5 c 128,-1,67
 298 -11 298 -11 355.5 -91 c 128,-1,68
 413 -171 413 -171 493 -226 c 128,-1,69
 573 -281 573 -281 668 -307.5 c 128,-1,70
 763 -334 763 -334 870 -334 c 0,71,72
 1047 -334 1047 -334 1232.5 -260.5 c 128,-1,73
 1418 -187 1418 -187 1516 -100 c 1,74,-1
 1552 -157 l 1,75,76
 1435 -256 1435 -256 1236.5 -327 c 128,-1,77
 1038 -398 1038 -398 844 -398 c 0,78,79
 731 -398 731 -398 625 -369.5 c 128,-1,80
 519 -341 519 -341 424.5 -280.5 c 128,-1,81
 330 -220 330 -220 259.5 -134 c 128,-1,82
 189 -48 189 -48 147.5 75.5 c 128,-1,83
 106 199 106 199 106 345 c 0,0,1
628 140 m 0,84,85
 628 48 628 48 700 48 c 0,86,87
 841 48 841 48 1042 329 c 0,88,89
 1100 411 1100 411 1141 506 c 128,-1,90
 1182 601 1182 601 1182 664 c 0,91,92
 1182 810 1182 810 1084 810 c 0,93,94
 1034 810 1034 810 979 773 c 128,-1,95
 924 736 924 736 883.5 689.5 c 128,-1,96
 843 643 843 643 794 575 c 0,97,98
 727 481 727 481 677.5 362 c 128,-1,99
 628 243 628 243 628 140 c 0,84,85
EndSplineSet
EndChar

StartChar: A
Encoding: 65 65 33
Width: 1624
VWidth: 2078
Flags: W
HStem: -2 66<88 217.695 435.018 588 964 1171.13 1445.26 1588> 540 76<554 1036> 1468 20G<844.889 942.844>
DStem2: 326 258 430 282 0.349919 0.93678<-66.0163 333.456 415.149 1144.79> 936 1488 808 1300 0.323762 -0.946139<136.433 857.409 937.733 1352.08>
AnchorPoint: "DotBelow" 788 -20 basechar 0
AnchorPoint: "Bottom" 788 0 basechar 0
AnchorPoint: "TopCap" 830 1580 basechar 0
LayerCount: 3
Fore
SplineSet
88 -2 m 1
 88 64 l 1
 110 64 l 2
 212 64 278 132 326 258 c 2
 772 1452 l 1
 936 1488 l 1
 1348 284 l 2
 1394 166 1436 64 1516 64 c 2
 1588 64 l 1
 1588 -2 l 1
 1540 -2 1396 2 1308 2 c 0
 1220 2 1012 -2 964 -2 c 1
 964 64 l 1
 1104 64 l 2
 1146 64 1186 92 1186 144 c 0
 1186 154 1178 194 1170 216 c 2
 1062 540 l 1
 524 540 l 1
 430 282 l 2
 408 224 402 182 402 158 c 0
 402 102 456 64 588 64 c 1
 588 -2 l 1
 564 -2 408 2 336 2 c 0
 264 2 112 -2 88 -2 c 1
554 616 m 1
 1036 616 l 1
 808 1300 l 1
 554 616 l 1
EndSplineSet
Layer: 2
SplineSet
88 -2 m 1,0,-1
 88 64 l 1,1,-1
 110 64 l 2,2,3
 185 64 185 64 237 112.5 c 128,-1,4
 289 161 289 161 326 258 c 2,5,-1
 772 1452 l 1,6,-1
 936 1488 l 1,7,-1
 1348 284 l 1,8,9
 1370 229 1370 229 1383.5 198 c 128,-1,10
 1397 167 1397 167 1418.5 131.5 c 128,-1,11
 1440 96 1440 96 1463.5 80 c 128,-1,12
 1487 64 1487 64 1516 64 c 2,13,-1
 1588 64 l 1,14,-1
 1588 -2 l 1,15,16
 1569 -2 1569 -2 1463 0 c 128,-1,17
 1357 2 1357 2 1308 2 c 128,-1,18
 1259 2 1259 2 1121 0 c 128,-1,19
 983 -2 983 -2 964 -2 c 1,20,-1
 964 64 l 1,21,-1
 1104 64 l 2,22,23
 1138 64 1138 64 1162 85.5 c 128,-1,24
 1186 107 1186 107 1186 144 c 0,25,26
 1186 172 1186 172 1170 216 c 1,27,-1
 1062 540 l 1,28,-1
 524 540 l 1,29,-1
 430 282 l 2,30,31
 402 208 402 208 402 158 c 0,32,33
 402 64 402 64 588 64 c 1,34,-1
 588 -2 l 1,35,36
 582 -2 582 -2 480 0 c 128,-1,37
 378 2 378 2 336 2 c 128,-1,38
 294 2 294 2 194 0 c 128,-1,39
 94 -2 94 -2 88 -2 c 1,0,-1
554 616 m 1,40,-1
 1036 616 l 1,41,-1
 808 1300 l 1,42,-1
 554 616 l 1,40,-1
EndSplineSet
EndChar

StartChar: B
Encoding: 66 66 34
Width: 1400
VWidth: 2078
Flags: W
HStem: -2 78<128 326.268 521.617 960.858> 720 76<514 908.291> 1396 64<128 250.589> 1402 78<516.048 883.544>
VStem: 330 184<81.1875 720 796 1397.44> 1056 204<944.787 1256.89> 1100 216<215.247 559.168>
AnchorPoint: "TopCap" 636 1580 basechar 0
AnchorPoint: "Bottom" 686 0 basechar 0
AnchorPoint: "DotBelow" 686 -20 basechar 0
LayerCount: 3
Fore
SplineSet
128 -2 m 1xda
 128 64 l 1
 252 64 l 2
 304 64 330 92 330 144 c 2
 330 1322 l 2
 330 1374 308 1402 252 1402 c 0xda
 222 1402 186 1400 128 1396 c 1
 128 1460 l 1xea
 328 1476 472 1480 636 1480 c 0
 820 1480 986 1448 1060 1404 c 0
 1196 1324 1260 1228 1260 1102 c 0xdc
 1260 922 1118 804 916 764 c 1
 916 760 l 1
 1012 748 1088 728 1170 670 c 0
 1266 602 1316 502 1316 390 c 0
 1316 266 1258 162 1168 94 c 0
 1086 32 952 -2 842 -2 c 2
 716 -2 l 2
 692 -2 510 2 422 2 c 0
 334 2 152 -2 128 -2 c 1xda
514 156 m 2
 514 104 540 76 592 76 c 2
 794 76 l 2
 882 76 980 102 1034 176 c 0
 1078 236 1100 310 1100 382 c 0
 1100 548 1024 620 992 648 c 0
 936 696 848 720 760 720 c 2
 514 720 l 1
 514 156 l 2
514 796 m 1
 756 796 l 2
 840 796 938 830 992 900 c 0
 1040 964 1056 1020 1056 1106 c 0
 1056 1196 1014 1268 964 1314 c 0
 910 1364 814 1404 662 1404 c 0
 626 1404 568 1404 514 1396 c 1xec
 514 796 l 1
EndSplineSet
Layer: 2
SplineSet
128 -2 m 1,0,-1
 128 64 l 1,1,-1
 252 64 l 2,2,3
 330 64 330 64 330 144 c 2,4,-1
 330 1322 l 2,5,6
 330 1402 330 1402 252 1402 c 0,7,8
 215 1402 215 1402 128 1396 c 1,9,-1
 128 1460 l 1,10,11
 378 1480 378 1480 636 1480 c 0,12,13
 772 1480 772 1480 888 1459 c 128,-1,14
 1004 1438 1004 1438 1060 1404 c 0,15,16
 1162 1344 1162 1344 1211 1270 c 128,-1,17
 1260 1196 1260 1196 1260 1102 c 0,18,19
 1260 971 1260 971 1166.5 883 c 128,-1,20
 1073 795 1073 795 916 764 c 1,21,-1
 916 760 l 1,22,23
 1070 741 1070 741 1170 670 c 0,24,25
 1241 619 1241 619 1278.5 547 c 128,-1,26
 1316 475 1316 475 1316 390 c 0,27,28
 1316 299 1316 299 1276.5 222.5 c 128,-1,29
 1237 146 1237 146 1168 94 c 0,30,31
 1109 49 1109 49 1018.5 23.5 c 128,-1,32
 928 -2 928 -2 842 -2 c 2,33,-1
 716 -2 l 2,34,35
 712 -2 712 -2 593 0 c 128,-1,36
 474 2 474 2 422 2 c 128,-1,37
 370 2 370 2 251 0 c 128,-1,38
 132 -2 132 -2 128 -2 c 1,0,-1
514 156 m 2,39,40
 514 76 514 76 592 76 c 2,41,-1
 794 76 l 2,42,43
 867 76 867 76 931.5 100 c 128,-1,44
 996 124 996 124 1034 176 c 0,45,46
 1100 266 1100 266 1100 382 c 0,47,48
 1100 554 1100 554 992 648 c 0,49,50
 908 720 908 720 760 720 c 2,51,-1
 514 720 l 1,52,-1
 514 156 l 2,39,40
514 796 m 1,53,-1
 756 796 l 2,54,55
 823 796 823 796 888 823 c 128,-1,56
 953 850 953 850 992 900 c 0,57,58
 1028 947 1028 947 1042 994 c 128,-1,59
 1056 1041 1056 1041 1056 1106 c 0,60,61
 1056 1229 1056 1229 964 1314 c 0,62,63
 867 1404 867 1404 662 1404 c 0,64,65
 568 1404 568 1404 514 1396 c 1,66,-1
 514 796 l 1,53,-1
EndSplineSet
EndChar

StartChar: C
Encoding: 67 67 35
Width: 1468
VWidth: 2000
Flags: W
HStem: -28 96<683.403 1109.35> 1392 96<662.835 1066.58>
VStem: 144 224<458.749 1011.59> 1326 58<1141.08 1155.4>
AnchorPoint: "DotBelow" 854 -20 basechar 0
AnchorPoint: "Bottom" 854 0 basechar 0
AnchorPoint: "TopCap" 854 1580 basechar 0
LayerCount: 3
Fore
SplineSet
144 720 m 0
 144 952 216 1144 356 1288 c 0
 480 1416 648 1488 832 1488 c 0
 922 1488 1004 1472 1072 1446 c 0
 1118 1428 1164 1412 1198 1412 c 0
 1236 1412 1254 1440 1268 1488 c 9
 1316 1488 l 25
 1384 1148 l 25
 1326 1120 l 17
 1214 1274 1072 1392 864 1392 c 0
 680 1392 536 1300 448 1144 c 0
 380 1024 368 882 368 736 c 0
 368 514 416 332 540 208 c 0
 638 110 778 68 880 68 c 0
 1126 68 1267 163 1402 322 c 9
 1446 284 l 17
 1316 92 1102 -28 868 -28 c 0
 682 -28 524 28 400 136 c 0
 246 270 144 484 144 720 c 0
EndSplineSet
Layer: 2
SplineSet
144 720 m 0,0,1
 144 1070 144 1070 356 1288 c 0,2,3
 449 1384 449 1384 572 1436 c 128,-1,4
 695 1488 695 1488 832 1488 c 0,5,6
 962 1488 962 1488 1072 1446 c 0,7,8
 1159 1412 1159 1412 1198 1412 c 0,9,10
 1225 1412 1225 1412 1241 1430.5 c 128,-1,11
 1257 1449 1257 1449 1268 1488 c 1,12,-1
 1316 1488 l 1,13,-1
 1384 1148 l 1,14,-1
 1326 1120 l 1,15,16
 1233 1248 1233 1248 1121.5 1320 c 128,-1,17
 1010 1392 1010 1392 864 1392 c 0,18,19
 728 1392 728 1392 621.5 1327.5 c 128,-1,20
 515 1263 515 1263 448 1144 c 0,21,22
 401 1061 401 1061 384.5 962 c 128,-1,23
 368 863 368 863 368 736 c 0,24,25
 368 380 368 380 540 208 c 0,26,27
 609 139 609 139 702.5 103.5 c 128,-1,28
 796 68 796 68 880 68 c 0,29,30
 1055 68 1055 68 1174 130.5 c 128,-1,31
 1293 193 1293 193 1402 322 c 1,32,-1
 1446 284 l 1,33,34
 1348 139 1348 139 1195 55.5 c 128,-1,35
 1042 -28 1042 -28 868 -28 c 0,36,37
 588 -28 588 -28 400 136 c 0,38,39
 282 239 282 239 213 392.5 c 128,-1,40
 144 546 144 546 144 720 c 0,0,1
EndSplineSet
EndChar

StartChar: D
Encoding: 68 68 36
Width: 1664
VWidth: 2078
Flags: W
HStem: -2 78<128 326.268 521.617 1038.1> 1402 78<536.413 959.744>
VStem: 330 184<81.1875 1384.02> 1336 224<456.318 986.129>
AnchorPoint: "TopCap" 698 1580 basechar 0
AnchorPoint: "DotBelow" 686 -20 basechar 0
AnchorPoint: "Bottom" 686 0 basechar 0
LayerCount: 3
Fore
SplineSet
128 -2 m 1
 128 64 l 1
 252 64 l 2
 304 64 330 92 330 144 c 2
 330 1320 l 2
 330 1372 308 1402 252 1402 c 0
 210 1402 174 1400 130 1396 c 1
 128 1460 l 1
 268 1472 464 1480 562 1480 c 0
 798 1480 1078 1470 1284 1308 c 0
 1450 1178 1560 970 1560 730 c 0
 1560 482 1468 284 1310 156 c 0
 1190 60 1034 -2 838 -2 c 2
 716 -2 l 2
 692 -2 510 2 422 2 c 0
 334 2 152 -2 128 -2 c 1
514 156 m 2
 514 104 540 76 592 76 c 10
 836 76 l 18
 1220 76 1336 364 1336 730 c 0
 1336 914 1288 1128 1144 1260 c 0
 1010 1382 830 1404 662 1404 c 0
 566 1404 514 1384 514 1278 c 2
 514 156 l 2
EndSplineSet
Layer: 2
SplineSet
128 -2 m 1,0,-1
 128 64 l 1,1,-1
 252 64 l 2,2,3
 330 64 330 64 330 144 c 2,4,-1
 330 1320 l 2,5,6
 330 1402 330 1402 252 1402 c 0,7,8
 196 1402 196 1402 130 1396 c 1,9,-1
 128 1460 l 1,10,11
 361 1480 361 1480 562 1480 c 0,12,13
 648 1480 648 1480 709.5 1478 c 128,-1,14
 771 1476 771 1476 857 1466 c 128,-1,15
 943 1456 943 1456 1010 1438.5 c 128,-1,16
 1077 1421 1077 1421 1151 1388 c 128,-1,17
 1225 1355 1225 1355 1284 1308 c 0,18,19
 1412 1208 1412 1208 1486 1057 c 128,-1,20
 1560 906 1560 906 1560 730 c 0,21,22
 1560 546 1560 546 1495 399.5 c 128,-1,23
 1430 253 1430 253 1310 156 c 0,24,25
 1112 -2 1112 -2 838 -2 c 2,26,-1
 716 -2 l 2,27,28
 712 -2 712 -2 593 0 c 128,-1,29
 474 2 474 2 422 2 c 128,-1,30
 370 2 370 2 251 0 c 128,-1,31
 132 -2 132 -2 128 -2 c 1,0,-1
514 156 m 2,32,33
 514 76 514 76 592 76 c 2,34,-1
 836 76 l 2,35,36
 1336 76 1336 76 1336 730 c 0,37,38
 1336 884 1336 884 1290.5 1026 c 128,-1,39
 1245 1168 1245 1168 1144 1260 c 0,40,41
 1052 1344 1052 1344 931.5 1374 c 128,-1,42
 811 1404 811 1404 662 1404 c 0,43,44
 584 1404 584 1404 549 1378.5 c 128,-1,45
 514 1353 514 1353 514 1278 c 2,46,-1
 514 156 l 2,32,33
EndSplineSet
EndChar

StartChar: E
Encoding: 69 69 37
Width: 1460
VWidth: 2078
Flags: W
HStem: -2 78<128 326.268 521.617 1135.96> 720 76<514 865.334> 1384 78<128 326.268 521.617 1048.58>
VStem: 330 184<81.1875 720 796 1378.81> 956 60<480 608.393 913.01 1036> 1348 64<330.953 390.48>
AnchorPoint: "DotBelow" 736 -32 basechar 0
AnchorPoint: "Bottom" 736 0 basechar 0
AnchorPoint: "TopCap" 736 1580 basechar 0
LayerCount: 3
Fore
SplineSet
128 -2 m 1
 128 64 l 1
 252 64 l 2
 304 64 330 92 330 144 c 2
 330 1316 l 2
 330 1368 304 1396 252 1396 c 2
 128 1396 l 1
 128 1462 l 1
 152 1462 334 1458 422 1458 c 0
 510 1458 692 1462 716 1462 c 2
 1228 1462 l 1
 1344 1148 l 1
 1284 1120 l 1
 1256 1168 1192 1261 1116 1310 c 0
 1054 1350 972 1384 872 1384 c 2
 592 1384 l 2
 540 1384 514 1356 514 1304 c 2
 514 796 l 1
 738 796 l 2
 850 796 944 860 956 1036 c 1
 1016 1036 l 1
 1016 480 l 1
 956 480 l 1
 944 656 860 720 738 720 c 2
 514 720 l 1
 514 156 l 2
 514 104 540 76 592 76 c 2
 956 76 l 2
 1056 76 1151 109 1204 162 c 0
 1274 233 1325 341 1348 406 c 1
 1412 386 l 1
 1320 -2 l 1
 716 -2 l 2
 692 -2 510 2 422 2 c 0
 334 2 152 -2 128 -2 c 1
EndSplineSet
Layer: 2
SplineSet
128 -2 m 1,0,-1
 128 64 l 1,1,-1
 252 64 l 2,2,3
 330 64 330 64 330 144 c 2,4,-1
 330 1316 l 2,5,6
 330 1396 330 1396 252 1396 c 2,7,-1
 128 1396 l 1,8,-1
 128 1462 l 1,9,10
 132 1462 132 1462 251 1460 c 128,-1,11
 370 1458 370 1458 422 1458 c 128,-1,12
 474 1458 474 1458 593 1460 c 128,-1,13
 712 1462 712 1462 716 1462 c 2,14,-1
 1228 1462 l 1,15,-1
 1344 1148 l 1,16,-1
 1284 1120 l 1,17,18
 1255 1169 1255 1169 1211 1223 c 128,-1,19
 1167 1277 1167 1277 1116 1310 c 0,20,21
 1001 1384 1001 1384 872 1384 c 2,22,-1
 592 1384 l 2,23,24
 514 1384 514 1384 514 1304 c 2,25,-1
 514 796 l 1,26,-1
 738 796 l 2,27,28
 829 796 829 796 888.5 853.5 c 128,-1,29
 948 911 948 911 956 1036 c 1,30,-1
 1016 1036 l 1,31,-1
 1016 480 l 1,32,-1
 956 480 l 1,33,34
 940 720 940 720 738 720 c 2,35,-1
 514 720 l 1,36,-1
 514 156 l 2,37,38
 514 76 514 76 592 76 c 2,39,-1
 956 76 l 2,40,41
 1031 76 1031 76 1097.5 99 c 128,-1,42
 1164 122 1164 122 1204 162 c 0,43,44
 1251 210 1251 210 1289 278 c 128,-1,45
 1327 346 1327 346 1348 406 c 1,46,-1
 1412 386 l 1,47,-1
 1320 -2 l 1,48,-1
 716 -2 l 2,49,50
 712 -2 712 -2 593 0 c 128,-1,51
 474 2 474 2 422 2 c 128,-1,52
 370 2 370 2 251 0 c 128,-1,53
 132 -2 132 -2 128 -2 c 1,0,-1
EndSplineSet
EndChar

StartChar: F
Encoding: 70 70 38
Width: 1376
VWidth: 2078
Flags: W
HStem: -2 66<128 319.031 524.969 716> 720 76<514 865.334> 1384 78<128 326.268 521.617 1048.58>
VStem: 330 184<69.1875 720 796 1378.81> 956 60<480 608.393 913.01 1036>
AnchorPoint: "Bottom" 422 0 basechar 0
AnchorPoint: "DotBelow" 422 -20 basechar 0
AnchorPoint: "TopCap" 736 1580 basechar 0
LayerCount: 3
Fore
SplineSet
128 -2 m 1
 128 64 l 1
 252 64 l 2
 304 64 330 92 330 144 c 2
 330 1316 l 2
 330 1368 304 1396 252 1396 c 2
 128 1396 l 1
 128 1462 l 1
 152 1462 334 1458 422 1458 c 0
 510 1458 692 1462 716 1462 c 2
 1228 1462 l 1
 1344 1148 l 1
 1284 1120 l 5
 1256 1168 1192 1261 1116 1310 c 0
 1054 1350 972 1384 872 1384 c 2
 592 1384 l 2
 540 1384 514 1356 514 1304 c 2
 514 796 l 1
 738 796 l 2
 850 796 944 860 956 1036 c 1
 1016 1036 l 1
 1016 480 l 1
 956 480 l 1
 944 656 860 720 738 720 c 2
 514 720 l 1
 514 144 l 2
 514 92 540 64 592 64 c 2
 716 64 l 1
 716 -2 l 1
 692 -2 510 2 422 2 c 0
 334 2 152 -2 128 -2 c 1
EndSplineSet
Layer: 2
SplineSet
128 -2 m 1,0,-1
 128 64 l 1,1,-1
 252 64 l 2,2,3
 330 64 330 64 330 144 c 2,4,-1
 330 1316 l 2,5,6
 330 1396 330 1396 252 1396 c 2,7,-1
 128 1396 l 1,8,-1
 128 1462 l 1,9,10
 132 1462 132 1462 251 1460 c 128,-1,11
 370 1458 370 1458 422 1458 c 128,-1,12
 474 1458 474 1458 593 1460 c 128,-1,13
 712 1462 712 1462 716 1462 c 2,14,-1
 1228 1462 l 1,15,-1
 1344 1148 l 1,16,-1
 1284 1120 l 1,17,18
 1255 1169 1255 1169 1211 1223 c 128,-1,19
 1167 1277 1167 1277 1116 1310 c 0,20,21
 1001 1384 1001 1384 872 1384 c 2,22,-1
 592 1384 l 2,23,24
 514 1384 514 1384 514 1304 c 2,25,-1
 514 796 l 1,26,-1
 738 796 l 2,27,28
 829 796 829 796 888.5 853.5 c 128,-1,29
 948 911 948 911 956 1036 c 1,30,-1
 1016 1036 l 1,31,-1
 1016 480 l 1,32,-1
 956 480 l 1,33,34
 940 720 940 720 738 720 c 2,35,-1
 514 720 l 1,36,-1
 514 144 l 2,37,38
 514 64 514 64 592 64 c 2,39,-1
 716 64 l 1,40,-1
 716 -2 l 1,41,42
 712 -2 712 -2 593 0 c 128,-1,43
 474 2 474 2 422 2 c 128,-1,44
 370 2 370 2 251 0 c 128,-1,45
 132 -2 132 -2 128 -2 c 1,0,-1
EndSplineSet
EndChar

StartChar: G
Encoding: 71 71 39
Width: 1640
VWidth: 2000
Flags: W
HStem: -28 96<676.069 1089.4> 608 64<1000 1188.83 1396.97 1588> 1392 96<662.835 1066.58>
VStem: 144 224<458.749 1011.59> 1202 184<169.758 602.459> 1322 64<-20 55.5156 1141.31 1162.3>
AnchorPoint: "Bottom" 854 0 basechar 0
AnchorPoint: "DotBelow" 854 -20 basechar 0
AnchorPoint: "TopCap" 854 1580 basechar 0
LayerCount: 3
Fore
SplineSet
144 720 m 0xf4
 144 952 216 1144 356 1288 c 0
 480 1416 648 1488 832 1488 c 0
 922 1488 1004 1472 1072 1446 c 0
 1118 1428 1164 1412 1198 1412 c 0
 1236 1412 1254 1440 1268 1488 c 9
 1316 1488 l 25
 1384 1148 l 25
 1326 1120 l 17
 1214 1274 1072 1392 864 1392 c 0
 680 1392 536 1300 448 1144 c 0
 380 1024 368 882 368 736 c 0
 368 514 416 332 540 208 c 0
 638 110 760 68 862 68 c 0
 1108 68 1202 164 1202 312 c 10
 1202 528 l 18
 1197 580 1176 608 1124 608 c 2
 1000 608 l 1
 1000 672 l 1
 1588 672 l 1
 1588 608 l 1
 1464 608 l 2
 1412 608 1386 582 1386 528 c 10xf8
 1386 -20 l 25
 1322 -20 l 17
 1318 25 1306 62 1266 62 c 0
 1230 62 1188 45 1138 24 c 0
 1080 0 989 -28 868 -28 c 0
 682 -28 524 28 400 136 c 0
 246 270 144 484 144 720 c 0xf4
EndSplineSet
Layer: 2
SplineSet
144 720 m 0,0,1
 144 1070 144 1070 356 1288 c 0,2,3
 449 1384 449 1384 572 1436 c 128,-1,4
 695 1488 695 1488 832 1488 c 0,5,6
 962 1488 962 1488 1072 1446 c 0,7,8
 1159 1412 1159 1412 1198 1412 c 0,9,10
 1225 1412 1225 1412 1241 1430.5 c 128,-1,11
 1257 1449 1257 1449 1268 1488 c 1,12,-1
 1316 1488 l 1,13,-1
 1384 1148 l 1,14,-1
 1326 1120 l 1,15,16
 1233 1248 1233 1248 1121.5 1320 c 128,-1,17
 1010 1392 1010 1392 864 1392 c 0,18,19
 728 1392 728 1392 621.5 1327.5 c 128,-1,20
 515 1263 515 1263 448 1144 c 0,21,22
 401 1061 401 1061 384.5 962 c 128,-1,23
 368 863 368 863 368 736 c 0,24,25
 368 380 368 380 540 208 c 0,26,27
 610 138 610 138 695.5 103 c 128,-1,28
 781 68 781 68 862 68 c 0,29,30
 1202 68 1202 68 1202 312 c 2,31,-1
 1202 528 l 1,32,33
 1198 568 1198 568 1180 588 c 128,-1,34
 1162 608 1162 608 1124 608 c 2,35,-1
 1000 608 l 1,36,-1
 1000 672 l 1,37,-1
 1588 672 l 1,38,-1
 1588 608 l 1,39,-1
 1464 608 l 2,40,41
 1386 608 1386 608 1386 528 c 2,42,-1
 1386 -20 l 1,43,-1
 1322 -20 l 1,44,45
 1315 62 1315 62 1266 62 c 0,46,47
 1228 62 1228 62 1138 24 c 0,48,49
 1012 -28 1012 -28 868 -28 c 0,50,51
 588 -28 588 -28 400 136 c 0,52,53
 282 239 282 239 213 392.5 c 128,-1,54
 144 546 144 546 144 720 c 0,0,1
EndSplineSet
EndChar

StartChar: H
Encoding: 72 72 40
Width: 1676
VWidth: 2078
Flags: W
HStem: -2 66<128 319.031 524.969 716 1000 1191.03 1396.97 1588> 708 76<514 1202> 1396 66<128 319.031 524.969 716 1000 1191.03 1396.97 1588>
VStem: 330 184<69.1875 708 784 1390.81> 1202 184<69.1875 708 784 1390.81>
AnchorPoint: "DotBelow" 858 -20 basechar 0
AnchorPoint: "Bottom" 858 0 basechar 0
AnchorPoint: "TopCap" 858 1580 basechar 0
LayerCount: 3
Fore
SplineSet
128 -2 m 1
 128 64 l 1
 252 64 l 2
 304 64 330 92 330 144 c 2
 330 1316 l 2
 330 1368 304 1396 252 1396 c 2
 128 1396 l 1
 128 1462 l 1
 152 1462 334 1458 422 1458 c 0
 510 1458 692 1462 716 1462 c 1
 716 1396 l 1
 592 1396 l 2
 540 1396 514 1368 514 1316 c 2
 514 784 l 1
 1202 784 l 1
 1202 1316 l 2
 1202 1368 1176 1396 1124 1396 c 2
 1000 1396 l 1
 1000 1462 l 1
 1024 1462 1206 1458 1294 1458 c 0
 1382 1458 1564 1462 1588 1462 c 1
 1588 1396 l 1
 1464 1396 l 2
 1412 1396 1386 1368 1386 1316 c 2
 1386 144 l 2
 1386 92 1412 64 1464 64 c 2
 1588 64 l 1
 1588 -2 l 1
 1564 -2 1382 2 1294 2 c 0
 1206 2 1024 -2 1000 -2 c 1
 1000 64 l 1
 1124 64 l 2
 1176 64 1202 92 1202 144 c 2
 1202 708 l 1
 514 708 l 1
 514 144 l 2
 514 92 540 64 592 64 c 2
 716 64 l 1
 716 -2 l 1
 692 -2 510 2 422 2 c 0
 334 2 152 -2 128 -2 c 1
EndSplineSet
Layer: 2
SplineSet
128 -2 m 1,0,-1
 128 64 l 1,1,-1
 252 64 l 2,2,3
 330 64 330 64 330 144 c 2,4,-1
 330 1316 l 2,5,6
 330 1396 330 1396 252 1396 c 2,7,-1
 128 1396 l 1,8,-1
 128 1462 l 1,9,10
 132 1462 132 1462 251 1460 c 128,-1,11
 370 1458 370 1458 422 1458 c 128,-1,12
 474 1458 474 1458 593 1460 c 128,-1,13
 712 1462 712 1462 716 1462 c 1,14,-1
 716 1396 l 1,15,-1
 592 1396 l 2,16,17
 514 1396 514 1396 514 1316 c 2,18,-1
 514 784 l 1,19,-1
 1202 784 l 1,20,-1
 1202 1316 l 2,21,22
 1202 1396 1202 1396 1124 1396 c 2,23,-1
 1000 1396 l 1,24,-1
 1000 1462 l 1,25,26
 1004 1462 1004 1462 1123 1460 c 128,-1,27
 1242 1458 1242 1458 1294 1458 c 128,-1,28
 1346 1458 1346 1458 1465 1460 c 128,-1,29
 1584 1462 1584 1462 1588 1462 c 1,30,-1
 1588 1396 l 1,31,-1
 1464 1396 l 2,32,33
 1386 1396 1386 1396 1386 1316 c 2,34,-1
 1386 144 l 2,35,36
 1386 64 1386 64 1464 64 c 2,37,-1
 1588 64 l 1,38,-1
 1588 -2 l 1,39,40
 1584 -2 1584 -2 1465 0 c 128,-1,41
 1346 2 1346 2 1294 2 c 128,-1,42
 1242 2 1242 2 1123 0 c 128,-1,43
 1004 -2 1004 -2 1000 -2 c 1,44,-1
 1000 64 l 1,45,-1
 1124 64 l 2,46,47
 1202 64 1202 64 1202 144 c 2,48,-1
 1202 708 l 1,49,-1
 514 708 l 1,50,-1
 514 144 l 2,51,52
 514 64 514 64 592 64 c 2,53,-1
 716 64 l 1,54,-1
 716 -2 l 1,55,56
 712 -2 712 -2 593 0 c 128,-1,57
 474 2 474 2 422 2 c 128,-1,58
 370 2 370 2 251 0 c 128,-1,59
 132 -2 132 -2 128 -2 c 1,0,-1
EndSplineSet
EndChar

StartChar: I
Encoding: 73 73 41
Width: 804
VWidth: 2078
Flags: W
HStem: -2 66<128 319.031 524.969 716> 1396 62<128 318.098 525.902 716>
VStem: 330 184<69.1875 1390.81>
AnchorPoint: "DotBelow" 422 -20 basechar 0
AnchorPoint: "Bottom" 422 0 basechar 0
AnchorPoint: "TopCap" 422 1580 basechar 0
LayerCount: 3
Fore
SplineSet
128 -2 m 1
 128 64 l 1
 252 64 l 2
 304 64 330 92 330 144 c 2
 330 1316 l 2
 330 1368 304 1396 252 1396 c 2
 128 1396 l 1
 128 1462 l 1
 152 1462 334 1458 422 1458 c 0
 510 1458 692 1462 716 1462 c 1
 716 1396 l 1
 592 1396 l 2
 540 1396 514 1368 514 1316 c 2
 514 144 l 2
 514 92 540 64 592 64 c 2
 716 64 l 1
 716 -2 l 1
 692 -2 510 2 422 2 c 0
 334 2 152 -2 128 -2 c 1
EndSplineSet
Layer: 2
SplineSet
128 -2 m 1,0,-1
 128 64 l 1,1,-1
 252 64 l 2,2,3
 330 64 330 64 330 144 c 2,4,-1
 330 1316 l 2,5,6
 330 1396 330 1396 252 1396 c 2,7,-1
 128 1396 l 1,8,-1
 128 1462 l 1,9,10
 132 1462 132 1462 251 1460 c 128,-1,11
 370 1458 370 1458 422 1458 c 128,-1,12
 474 1458 474 1458 593 1460 c 128,-1,13
 712 1462 712 1462 716 1462 c 1,14,-1
 716 1396 l 1,15,-1
 592 1396 l 2,16,17
 514 1396 514 1396 514 1316 c 2,18,-1
 514 144 l 2,19,20
 514 64 514 64 592 64 c 2,21,-1
 716 64 l 1,22,-1
 716 -2 l 1,23,24
 712 -2 712 -2 593 0 c 128,-1,25
 474 2 474 2 422 2 c 128,-1,26
 370 2 370 2 251 0 c 128,-1,27
 132 -2 132 -2 128 -2 c 1,0,-1
EndSplineSet
EndChar

StartChar: J
Encoding: 74 74 42
Width: 780
VWidth: 2078
Flags: W
HStem: -472 168<24 244.919> 1396 62<124 314.098 521.902 712>
VStem: 326 184<-105.575 1390.81>
AnchorPoint: "TopCap" 418 1580 basechar 0
LayerCount: 3
Fore
SplineSet
-120 -304 m 0
 -120 -242 -72 -200 -28 -200 c 0
 16 -200 48 -220 78 -252 c 0
 116 -288 140 -304 184 -304 c 0
 238 -304 288 -274 308 -218 c 0
 330 -158 330 -88 330 -28 c 0
 330 2 330 52 328 76 c 0
 326 98 326 142 326 156 c 2
 326 1316 l 2
 326 1368 300 1396 248 1396 c 2
 124 1396 l 1
 124 1462 l 1
 148 1462 330 1458 418 1458 c 0
 506 1458 688 1462 712 1462 c 1
 712 1396 l 1
 588 1396 l 2
 536 1396 510 1368 510 1316 c 2
 510 208 l 2
 510 156 498 -108 400 -266 c 0
 326 -386 222 -472 84 -472 c 0
 -36 -472 -120 -406 -120 -304 c 0
EndSplineSet
Layer: 2
SplineSet
-120 -304 m 0,0,1
 -120 -260 -120 -260 -91.5 -230 c 128,-1,2
 -63 -200 -63 -200 -28 -200 c 0,3,4
 29 -200 29 -200 78 -252 c 1,5,6
 109 -281 109 -281 131 -292.5 c 128,-1,7
 153 -304 153 -304 184 -304 c 0,8,9
 226 -304 226 -304 259.5 -281.5 c 128,-1,10
 293 -259 293 -259 308 -218 c 0,11,12
 330 -158 330 -158 330 -28 c 0,13,14
 330 52 330 52 328 76 c 0,15,16
 326 98 326 98 326 156 c 2,17,-1
 326 1316 l 2,18,19
 326 1396 326 1396 248 1396 c 2,20,-1
 124 1396 l 1,21,-1
 124 1462 l 1,22,23
 128 1462 128 1462 247 1460 c 128,-1,24
 366 1458 366 1458 418 1458 c 128,-1,25
 470 1458 470 1458 589 1460 c 128,-1,26
 708 1462 708 1462 712 1462 c 1,27,-1
 712 1396 l 1,28,-1
 588 1396 l 2,29,30
 510 1396 510 1396 510 1316 c 2,31,-1
 510 208 l 2,32,33
 510 178 510 178 506 131.5 c 128,-1,34
 502 85 502 85 492 13 c 128,-1,35
 482 -59 482 -59 458 -135 c 128,-1,36
 434 -211 434 -211 400 -266 c 0,37,38
 273 -472 273 -472 84 -472 c 0,39,40
 -7 -472 -7 -472 -63.5 -426 c 128,-1,41
 -120 -380 -120 -380 -120 -304 c 0,0,1
EndSplineSet
EndChar

StartChar: K
Encoding: 75 75 43
Width: 1560
VWidth: 2078
Flags: W
HStem: -2 66<128 319.031 524.969 716 896 1065.49 1364.74 1504> 1396 66<128 319.031 524.969 716 992 1075.33 1338.08 1472>
VStem: 330 184<69.1875 612 722 1390.81>
DStem2: 514 722 514 612 0.732125 0.681171<0 160.188 344.222 830.247> 826 892 690 768 0.545981 -0.837798<29.6336 780.913>
AnchorPoint: "TopCap" 792 1580 basechar 0
AnchorPoint: "DotBelow" 792 -20 basechar 0
AnchorPoint: "Bottom" 792 0 basechar 0
LayerCount: 3
Fore
SplineSet
128 -2 m 1
 128 64 l 1
 252 64 l 2
 304 64 330 92 330 144 c 2
 330 1316 l 2
 330 1368 304 1396 252 1396 c 2
 128 1396 l 1
 128 1462 l 1
 152 1462 334 1458 422 1458 c 0
 510 1458 692 1462 716 1462 c 1
 716 1396 l 1
 592 1396 l 2
 540 1396 514 1368 514 1316 c 2
 514 722 l 1
 818 996 l 2
 892 1062 1118 1272 1118 1342 c 0
 1118 1368 1104 1382 1076 1392 c 0
 1062 1396 1030 1396 1030 1396 c 2
 992 1396 l 1
 992 1462 l 1
 1016 1462 1160 1458 1232 1458 c 0
 1304 1458 1448 1462 1472 1462 c 1
 1472 1396 l 1
 1424 1396 1394 1394 1386 1390 c 0
 1310 1356 1226 1284 1060 1120 c 2
 826 892 l 1
 1290 180 l 2
 1342 98 1390 64 1504 64 c 1
 1504 -2 l 1
 1468 -2 1288 2 1200 2 c 0
 1112 2 932 -2 896 -2 c 1
 896 64 l 1
 952 64 l 2
 1040 64 1074 90 1074 120 c 0
 1074 152 1052 192 994 288 c 2
 690 768 l 1
 514 612 l 1
 514 144 l 2
 514 92 540 64 592 64 c 2
 716 64 l 1
 716 -2 l 1
 692 -2 510 2 422 2 c 0
 334 2 152 -2 128 -2 c 1
EndSplineSet
Layer: 2
SplineSet
128 -2 m 1,0,-1
 128 64 l 1,1,-1
 252 64 l 2,2,3
 330 64 330 64 330 144 c 2,4,-1
 330 1316 l 2,5,6
 330 1396 330 1396 252 1396 c 2,7,-1
 128 1396 l 1,8,-1
 128 1462 l 1,9,10
 132 1462 132 1462 251 1460 c 128,-1,11
 370 1458 370 1458 422 1458 c 128,-1,12
 474 1458 474 1458 593 1460 c 128,-1,13
 712 1462 712 1462 716 1462 c 1,14,-1
 716 1396 l 1,15,-1
 592 1396 l 2,16,17
 514 1396 514 1396 514 1316 c 2,18,-1
 514 722 l 1,19,-1
 818 996 l 2,20,21
 873 1045 873 1045 931.5 1101.5 c 128,-1,22
 990 1158 990 1158 1054 1234 c 128,-1,23
 1118 1310 1118 1310 1118 1342 c 0,24,25
 1118 1377 1118 1377 1076 1392 c 1,26,-1
 1030 1396 l 1,27,-1
 992 1396 l 1,28,-1
 992 1462 l 1,29,30
 998 1462 998 1462 1094 1460 c 128,-1,31
 1190 1458 1190 1458 1232 1458 c 128,-1,32
 1274 1458 1274 1458 1370 1460 c 128,-1,33
 1466 1462 1466 1462 1472 1462 c 1,34,-1
 1472 1396 l 1,35,36
 1398 1396 1398 1396 1386 1390 c 0,37,38
 1330 1365 1330 1365 1259 1305.5 c 128,-1,39
 1188 1246 1188 1246 1060 1120 c 2,40,-1
 826 892 l 1,41,-1
 1290 180 l 2,42,43
 1331 116 1331 116 1376 90 c 128,-1,44
 1421 64 1421 64 1504 64 c 1,45,-1
 1504 -2 l 1,46,47
 1492 -2 1492 -2 1371 0 c 128,-1,48
 1250 2 1250 2 1200 2 c 128,-1,49
 1150 2 1150 2 1029 0 c 128,-1,50
 908 -2 908 -2 896 -2 c 1,51,-1
 896 64 l 1,52,-1
 952 64 l 2,53,54
 1014 64 1014 64 1044 79.5 c 128,-1,55
 1074 95 1074 95 1074 120 c 0,56,57
 1074 143 1074 143 1057.5 177 c 128,-1,58
 1041 211 1041 211 994 288 c 1,59,-1
 690 768 l 1,60,-1
 514 612 l 1,61,-1
 514 144 l 2,62,63
 514 64 514 64 592 64 c 2,64,-1
 716 64 l 1,65,-1
 716 -2 l 1,66,67
 712 -2 712 -2 593 0 c 128,-1,68
 474 2 474 2 422 2 c 128,-1,69
 370 2 370 2 251 0 c 128,-1,70
 132 -2 132 -2 128 -2 c 1,0,-1
EndSplineSet
EndChar

StartChar: L
Encoding: 76 76 44
Width: 1460
VWidth: 2078
Flags: W
HStem: -2 78<128 326.268 521.617 1135.96> 1396 62<128 318.098 525.902 716>
VStem: 330 184<81.1875 1390.81> 1348 64<330.953 390.48>
AnchorPoint: "Bottom" 736 0 basechar 0
AnchorPoint: "DotBelow" 736 -32 basechar 0
AnchorPoint: "TopCap" 528 1580 basechar 0
LayerCount: 3
Fore
SplineSet
128 -2 m 1
 128 64 l 1
 252 64 l 2
 304 64 330 92 330 144 c 2
 330 1316 l 2
 330 1368 304 1396 252 1396 c 2
 128 1396 l 1
 128 1462 l 1
 152 1462 334 1458 422 1458 c 0
 510 1458 692 1462 716 1462 c 1
 716 1396 l 1
 592 1396 l 2
 540 1396 514 1368 514 1316 c 2
 514 156 l 2
 514 104 540 76 592 76 c 2
 956 76 l 2
 1056 76 1151 109 1204 162 c 0
 1274 233 1325 341 1348 406 c 1
 1412 386 l 1
 1320 -2 l 1
 716 -2 l 2
 692 -2 510 2 422 2 c 0
 334 2 152 -2 128 -2 c 1
EndSplineSet
Layer: 2
SplineSet
128 -2 m 1,0,-1
 128 64 l 1,1,-1
 252 64 l 2,2,3
 330 64 330 64 330 144 c 2,4,-1
 330 1316 l 2,5,6
 330 1396 330 1396 252 1396 c 2,7,-1
 128 1396 l 1,8,-1
 128 1462 l 1,9,10
 132 1462 132 1462 251 1460 c 128,-1,11
 370 1458 370 1458 422 1458 c 128,-1,12
 474 1458 474 1458 593 1460 c 128,-1,13
 712 1462 712 1462 716 1462 c 1,14,-1
 716 1396 l 1,15,-1
 592 1396 l 2,16,17
 514 1396 514 1396 514 1316 c 2,18,-1
 514 156 l 2,19,20
 514 76 514 76 592 76 c 2,21,-1
 956 76 l 2,22,23
 1031 76 1031 76 1097.5 99 c 128,-1,24
 1164 122 1164 122 1204 162 c 0,25,26
 1251 210 1251 210 1289 278 c 128,-1,27
 1327 346 1327 346 1348 406 c 1,28,-1
 1412 386 l 1,29,-1
 1320 -2 l 1,30,-1
 716 -2 l 2,31,32
 712 -2 712 -2 593 0 c 128,-1,33
 474 2 474 2 422 2 c 128,-1,34
 370 2 370 2 251 0 c 128,-1,35
 132 -2 132 -2 128 -2 c 1,0,-1
EndSplineSet
EndChar

StartChar: M
Encoding: 77 77 45
Width: 1952
VWidth: 2078
Flags: W
HStem: -2 66<128 301.802 446.198 620 1276 1467.03 1672.97 1864> 1396 64<128 319.031 1671.07 1864>
VStem: 330 88<84.7124 1272> 1478 184<69.1875 1268>
DStem2: 554 1460 430 1272 0.362085 -0.932145<130.345 1209.74> 986 330 954 26 0.369584 0.929197<0 1042.33>
AnchorPoint: "TopCap" 984 1580 basechar 0
AnchorPoint: "DotBelow" 920 -20 basechar 0
AnchorPoint: "Bottom" 920 0 basechar 0
LayerCount: 3
Fore
SplineSet
128 -2 m 1
 128 64 l 1
 216 64 l 2
 288 64 330 108 330 180 c 2
 330 1316 l 2
 330 1368 304 1396 252 1396 c 2
 128 1396 l 1
 128 1460 l 1
 554 1460 l 1
 986 330 l 1
 1430 1460 l 1
 1864 1460 l 1
 1864 1396 l 1
 1734 1396 l 2
 1682 1396 1662 1368 1662 1316 c 2
 1662 144 l 2
 1662 92 1688 64 1740 64 c 2
 1864 64 l 1
 1864 -2 l 1
 1840 -2 1658 2 1570 2 c 0
 1482 2 1300 -2 1276 -2 c 1
 1276 64 l 1
 1400 64 l 2
 1452 64 1478 92 1478 144 c 2
 1478 1268 l 1
 1448 1268 l 1
 954 26 l 1
 914 26 l 1
 430 1272 l 1
 418 1272 l 1
 418 180 l 2
 418 108 460 64 532 64 c 2
 620 64 l 1
 620 -2 l 1
 604 -2 438 2 374 2 c 0
 310 2 144 -2 128 -2 c 1
EndSplineSet
Layer: 2
SplineSet
128 -2 m 1,0,-1
 128 64 l 1,1,-1
 216 64 l 2,2,3
 270 64 270 64 300 95 c 128,-1,4
 330 126 330 126 330 180 c 2,5,-1
 330 1316 l 2,6,7
 330 1396 330 1396 252 1396 c 2,8,-1
 128 1396 l 1,9,-1
 128 1460 l 1,10,-1
 554 1460 l 1,11,-1
 986 330 l 1,12,-1
 1430 1460 l 1,13,-1
 1864 1460 l 1,14,-1
 1864 1396 l 1,15,-1
 1734 1396 l 2,16,17
 1662 1396 1662 1396 1662 1316 c 2,18,-1
 1662 144 l 2,19,20
 1662 64 1662 64 1740 64 c 2,21,-1
 1864 64 l 1,22,-1
 1864 -2 l 1,23,24
 1860 -2 1860 -2 1741 0 c 128,-1,25
 1622 2 1622 2 1570 2 c 128,-1,26
 1518 2 1518 2 1399 0 c 128,-1,27
 1280 -2 1280 -2 1276 -2 c 1,28,-1
 1276 64 l 1,29,-1
 1400 64 l 2,30,31
 1478 64 1478 64 1478 144 c 2,32,-1
 1478 1268 l 1,33,-1
 1448 1268 l 1,34,-1
 954 26 l 1,35,-1
 914 26 l 1,36,-1
 430 1272 l 1,37,-1
 418 1272 l 1,38,-1
 418 180 l 2,39,40
 418 126 418 126 448 95 c 128,-1,41
 478 64 478 64 532 64 c 2,42,-1
 620 64 l 1,43,-1
 620 -2 l 1,44,45
 618 -2 618 -2 515 0 c 128,-1,46
 412 2 412 2 374 2 c 128,-1,47
 336 2 336 2 233 0 c 128,-1,48
 130 -2 130 -2 128 -2 c 1,0,-1
EndSplineSet
EndChar

StartChar: N
Encoding: 78 78 46
Width: 1640
VWidth: 2078
Flags: W
HStem: -24 21G<1280.05 1368> -2 66<128 301.802 446.198 620> 1396 64<128 319.031 1078 1250 1398 1570>
VStem: 330 88<84.7124 1232> 1280 88<336 1375.29>
DStem2: 504 1460 418 1232 0.572059 -0.820212<137.811 1365.84>
AnchorPoint: "DotBelow" 880 -20 basechar 0
AnchorPoint: "Bottom" 880 0 basechar 0
AnchorPoint: "TopCap" 880 1580 basechar 0
LayerCount: 3
Fore
SplineSet
128 -2 m 1
 128 64 l 1
 216 64 l 2
 288 64 330 108 330 180 c 2
 330 1316 l 2
 330 1368 304 1396 252 1396 c 2
 128 1396 l 1
 128 1460 l 1
 504 1460 l 1
 1280 336 l 1
 1280 1280 l 2
 1280 1352 1238 1396 1166 1396 c 2
 1078 1396 l 1
 1078 1462 l 1
 1094 1462 1260 1458 1324 1458 c 0
 1388 1458 1554 1462 1570 1462 c 1
 1570 1396 l 1
 1482 1396 l 2
 1410 1396 1368 1352 1368 1280 c 2
 1368 -24 l 1
 1294 -24 l 1
 418 1232 l 1
 418 180 l 2
 418 108 460 64 532 64 c 2
 620 64 l 1
 620 -2 l 1
 604 -2 438 2 374 2 c 0
 310 2 144 -2 128 -2 c 1
EndSplineSet
Layer: 2
SplineSet
128 -2 m 1,0,-1
 128 64 l 1,1,-1
 216 64 l 2,2,3
 270 64 270 64 300 95 c 128,-1,4
 330 126 330 126 330 180 c 2,5,-1
 330 1316 l 2,6,7
 330 1396 330 1396 252 1396 c 2,8,-1
 128 1396 l 1,9,-1
 128 1460 l 1,10,-1
 504 1460 l 1,11,-1
 1280 336 l 1,12,-1
 1280 1280 l 2,13,14
 1280 1334 1280 1334 1250 1365 c 128,-1,15
 1220 1396 1220 1396 1166 1396 c 2,16,-1
 1078 1396 l 1,17,-1
 1078 1462 l 1,18,19
 1080 1462 1080 1462 1183 1460 c 128,-1,20
 1286 1458 1286 1458 1324 1458 c 128,-1,21
 1362 1458 1362 1458 1465 1460 c 128,-1,22
 1568 1462 1568 1462 1570 1462 c 1,23,-1
 1570 1396 l 1,24,-1
 1482 1396 l 2,25,26
 1428 1396 1428 1396 1398 1365 c 128,-1,27
 1368 1334 1368 1334 1368 1280 c 2,28,-1
 1368 -24 l 1,29,-1
 1294 -24 l 1,30,-1
 418 1232 l 1,31,-1
 418 180 l 2,32,33
 418 126 418 126 448 95 c 128,-1,34
 478 64 478 64 532 64 c 2,35,-1
 620 64 l 1,36,-1
 620 -2 l 1,37,38
 618 -2 618 -2 515 0 c 128,-1,39
 412 2 412 2 374 2 c 128,-1,40
 336 2 336 2 233 0 c 128,-1,41
 130 -2 130 -2 128 -2 c 1,0,-1
EndSplineSet
EndChar

StartChar: O
Encoding: 79 79 47
Width: 1612
VWidth: 2078
Flags: W
HStem: -28 64<666.274 986.499> 1424 64<665.501 985.726>
VStem: 144 224<434.029 1025.97> 1284 224<434.029 1025.97>
AnchorPoint: "DotBelow" 826 -20 basechar 0
AnchorPoint: "Bottom" 826 0 basechar 0
AnchorPoint: "TopCap" 826 1580 basechar 0
LayerCount: 3
Fore
SplineSet
144 730 m 0
 144 986 218 1162 370 1314 c 0
 474 1418 642 1488 826 1488 c 0
 1010 1488 1178 1418 1282 1314 c 0
 1434 1162 1508 986 1508 730 c 0
 1508 474 1434 298 1282 146 c 0
 1178 42 1010 -28 826 -28 c 0
 642 -28 474 42 370 146 c 0
 218 298 144 474 144 730 c 0
368 730 m 0
 368 528 402 294 490 194 c 0
 596 72 724 36 826 36 c 0
 932 36 1056 72 1162 194 c 0
 1250 294 1284 528 1284 730 c 0
 1284 932 1250 1166 1162 1266 c 0
 1056 1388 928 1424 826 1424 c 0
 720 1424 596 1388 490 1266 c 0
 402 1166 368 932 368 730 c 0
EndSplineSet
Layer: 2
SplineSet
144 730 m 128,-1,1
 144 919 144 919 199 1058.5 c 128,-1,2
 254 1198 254 1198 370 1314 c 0,3,4
 450 1394 450 1394 570.5 1441 c 128,-1,5
 691 1488 691 1488 826 1488 c 128,-1,6
 961 1488 961 1488 1081.5 1441 c 128,-1,7
 1202 1394 1202 1394 1282 1314 c 0,8,9
 1398 1198 1398 1198 1453 1058.5 c 128,-1,10
 1508 919 1508 919 1508 730 c 128,-1,11
 1508 541 1508 541 1453 401.5 c 128,-1,12
 1398 262 1398 262 1282 146 c 0,13,14
 1202 66 1202 66 1081.5 19 c 128,-1,15
 961 -28 961 -28 826 -28 c 128,-1,16
 691 -28 691 -28 570.5 19 c 128,-1,17
 450 66 450 66 370 146 c 0,18,19
 254 262 254 262 199 401.5 c 128,-1,0
 144 541 144 541 144 730 c 128,-1,1
368 730 m 128,-1,21
 368 562 368 562 398 413 c 128,-1,22
 428 264 428 264 490 194 c 0,23,24
 627 36 627 36 826 36 c 128,-1,25
 1025 36 1025 36 1162 194 c 0,26,27
 1224 264 1224 264 1254 413 c 128,-1,28
 1284 562 1284 562 1284 730 c 128,-1,29
 1284 898 1284 898 1254 1047 c 128,-1,30
 1224 1196 1224 1196 1162 1266 c 0,31,32
 1025 1424 1025 1424 826 1424 c 128,-1,33
 627 1424 627 1424 490 1266 c 0,34,35
 428 1196 428 1196 398 1047 c 128,-1,20
 368 898 368 898 368 730 c 128,-1,21
EndSplineSet
EndChar

StartChar: P
Encoding: 80 80 48
Width: 1320
VWidth: 2078
Flags: W
HStem: -2 66<128 319.031 524.969 716> 640 76<514 871.692> 1396 64<128 248.764> 1402 78<517.606 878.114>
VStem: 330 184<69.1875 640 716 1397.08> 1056 204<891.996 1238.96>
AnchorPoint: "TopCap" 606 1580 basechar 0
AnchorPoint: "DotBelow" 422 -20 basechar 0
AnchorPoint: "Bottom" 422 0 basechar 0
LayerCount: 3
Fore
SplineSet
128 -2 m 1xdc
 128 64 l 1
 252 64 l 2
 304 64 330 92 330 144 c 2
 330 1322 l 2
 330 1380 302 1402 250 1402 c 0xdc
 224 1402 174 1400 128 1396 c 1
 128 1460 l 1xec
 352 1478 402 1480 618 1480 c 0
 788 1480 910 1466 1006 1426 c 0
 1184 1352 1260 1196 1260 1070 c 0
 1260 954 1212 830 1072 734 c 0
 956 654 750 640 644 640 c 2
 514 640 l 1
 514 144 l 2
 514 92 540 64 592 64 c 2
 716 64 l 1
 716 -2 l 1
 692 -2 510 2 422 2 c 0
 334 2 152 -2 128 -2 c 1xdc
514 716 m 1
 668 716 l 2
 870 716 1056 794 1056 1062 c 0
 1056 1268 932 1408 644 1408 c 0
 592 1408 548 1406 514 1400 c 1
 514 716 l 1
EndSplineSet
Layer: 2
SplineSet
128 -2 m 1,0,-1
 128 64 l 1,1,-1
 252 64 l 2,2,3
 330 64 330 64 330 144 c 2,4,-1
 330 1322 l 2,5,6
 330 1364 330 1364 310 1383 c 128,-1,7
 290 1402 290 1402 250 1402 c 0,8,9
 197 1402 197 1402 128 1396 c 1,10,-1
 128 1460 l 1,11,12
 296 1473 296 1473 376 1476.5 c 128,-1,13
 456 1480 456 1480 618 1480 c 0,14,15
 876 1480 876 1480 1006 1426 c 0,16,17
 1131 1374 1131 1374 1195.5 1274 c 128,-1,18
 1260 1174 1260 1174 1260 1070 c 0,19,20
 1260 863 1260 863 1072 734 c 0,21,22
 995 681 995 681 874.5 660.5 c 128,-1,23
 754 640 754 640 644 640 c 2,24,-1
 514 640 l 1,25,-1
 514 144 l 2,26,27
 514 64 514 64 592 64 c 2,28,-1
 716 64 l 1,29,-1
 716 -2 l 1,30,31
 712 -2 712 -2 593 0 c 128,-1,32
 474 2 474 2 422 2 c 128,-1,33
 370 2 370 2 251 0 c 128,-1,34
 132 -2 132 -2 128 -2 c 1,0,-1
514 716 m 1,35,-1
 668 716 l 2,36,37
 749 716 749 716 815 733 c 128,-1,38
 881 750 881 750 937 788 c 128,-1,39
 993 826 993 826 1024.5 895.5 c 128,-1,40
 1056 965 1056 965 1056 1062 c 0,41,42
 1056 1223 1056 1223 954 1315.5 c 128,-1,43
 852 1408 852 1408 644 1408 c 0,44,45
 559 1408 559 1408 514 1400 c 1,46,-1
 514 716 l 1,35,-1
EndSplineSet
EndChar

StartChar: Q
Encoding: 81 81 49
Width: 1612
VWidth: 2078
Flags: W
HStem: -426 152<955.859 1272.66> -28 64<665.62 858> 1424 64<665.501 985.726>
VStem: 144 224<434.029 1025.97> 1284 224<434.029 1025.97>
AnchorPoint: "TopCap" 826 1580 basechar 0
LayerCount: 3
Fore
SplineSet
144 730 m 0
 144 986 218 1162 370 1314 c 0
 474 1418 642 1488 826 1488 c 0
 1010 1488 1178 1418 1282 1314 c 0
 1434 1162 1508 986 1508 730 c 0
 1508 474 1434 298 1282 146 c 0
 1226 90 1160 46 1052 6 c 0
 972 -24 847 -84 778 -138 c 1
 778 -146 l 1
 816 -168 846 -182 886 -200 c 0
 982 -242 1056 -274 1154 -274 c 0
 1304 -274 1400 -186 1466 -72 c 1
 1500 -96 l 1
 1442 -262 1292 -426 1116 -426 c 0
 1019 -426 896 -389 796 -334 c 0
 714 -289 673 -270 634 -270 c 0
 605 -270 572 -297 526 -350 c 0
 486 -396 456 -426 419 -426 c 0
 385 -426 350 -404 350 -362 c 0
 350 -301 395 -273 470 -244 c 0
 565 -207 648 -167 684 -144 c 0
 737 -110 804 -68 863 -36 c 9
 858 -28 l 1
 632 -28 474 42 370 146 c 0
 218 298 144 474 144 730 c 0
368 730 m 0
 368 528 402 294 490 194 c 0
 596 72 724 36 826 36 c 0
 932 36 1056 72 1162 194 c 0
 1250 294 1284 528 1284 730 c 0
 1284 932 1250 1166 1162 1266 c 0
 1056 1388 928 1424 826 1424 c 0
 720 1424 596 1388 490 1266 c 0
 402 1166 368 932 368 730 c 0
EndSplineSet
Layer: 2
SplineSet
144 730 m 128,-1,1
 144 919 144 919 199 1058.5 c 128,-1,2
 254 1198 254 1198 370 1314 c 0,3,4
 450 1394 450 1394 570.5 1441 c 128,-1,5
 691 1488 691 1488 826 1488 c 128,-1,6
 961 1488 961 1488 1081.5 1441 c 128,-1,7
 1202 1394 1202 1394 1282 1314 c 0,8,9
 1398 1198 1398 1198 1453 1058.5 c 128,-1,10
 1508 919 1508 919 1508 730 c 128,-1,11
 1508 541 1508 541 1453 401.5 c 128,-1,12
 1398 262 1398 262 1282 146 c 0,13,14
 1195 59 1195 59 1052 6 c 0,15,16
 985 -19 985 -19 905.5 -59.5 c 128,-1,17
 826 -100 826 -100 778 -138 c 1,18,-1
 778 -146 l 1,19,20
 820 -170 820 -170 886 -200 c 0,21,22
 947 -227 947 -227 979 -239.5 c 128,-1,23
 1011 -252 1011 -252 1059.5 -263 c 128,-1,24
 1108 -274 1108 -274 1154 -274 c 0,25,26
 1349 -274 1349 -274 1466 -72 c 1,27,-1
 1500 -96 l 1,28,29
 1453 -230 1453 -230 1347 -328 c 128,-1,30
 1241 -426 1241 -426 1116 -426 c 0,31,32
 1044 -426 1044 -426 958 -401 c 128,-1,33
 872 -376 872 -376 796 -334 c 0,34,35
 731 -298 731 -298 696.5 -284 c 128,-1,36
 662 -270 662 -270 634 -270 c 0,37,38
 595 -270 595 -270 526 -350 c 0,39,40
 491 -390 491 -390 468 -408 c 128,-1,41
 445 -426 445 -426 419 -426 c 0,42,43
 391 -426 391 -426 370.5 -409 c 128,-1,44
 350 -392 350 -392 350 -362 c 0,45,46
 350 -319 350 -319 379 -293.5 c 128,-1,47
 408 -268 408 -268 470 -244 c 0,48,49
 617 -187 617 -187 684 -144 c 0,50,51
 794 -73 794 -73 863 -36 c 1,52,-1
 858 -28 l 1,53,54
 544 -28 544 -28 370 146 c 0,55,56
 254 262 254 262 199 401.5 c 128,-1,0
 144 541 144 541 144 730 c 128,-1,1
368 730 m 128,-1,58
 368 562 368 562 398 413 c 128,-1,59
 428 264 428 264 490 194 c 0,60,61
 627 36 627 36 826 36 c 128,-1,62
 1025 36 1025 36 1162 194 c 0,63,64
 1224 264 1224 264 1254 413 c 128,-1,65
 1284 562 1284 562 1284 730 c 128,-1,66
 1284 898 1284 898 1254 1047 c 128,-1,67
 1224 1196 1224 1196 1162 1266 c 0,68,69
 1025 1424 1025 1424 826 1424 c 128,-1,70
 627 1424 627 1424 490 1266 c 0,71,72
 428 1196 428 1196 398 1047 c 128,-1,57
 368 898 368 898 368 730 c 128,-1,58
EndSplineSet
EndChar

StartChar: R
Encoding: 82 82 50
Width: 1600
VWidth: 2078
Flags: W
HStem: -2 66<128 319.031 524.969 716 1418.36 1572> 696 76<514 724.317> 1396 64<128 238.406> 1402 78<517.559 894.994>
VStem: 330 184<69.1875 696 772 1395.8> 1092 204<931.335 1232.71>
AnchorPoint: "DotBelow" 868 -20 basechar 0
AnchorPoint: "Bottom" 868 0 basechar 0
AnchorPoint: "TopCap" 676 1580 basechar 0
LayerCount: 3
Fore
SplineSet
128 -2 m 1xec
 128 64 l 1
 252 64 l 2
 304 64 330 92 330 144 c 2
 330 1320 l 2
 330 1372 312 1402 240 1402 c 0xdc
 206 1402 172 1400 128 1396 c 1
 128 1460 l 1xec
 352 1478 470 1480 594 1480 c 0xdc
 838 1480 968 1464 1100 1396 c 0
 1234 1326 1296 1202 1296 1086 c 0
 1296 976 1238 868 1108 794 c 0
 1028 748 940 724 878 714 c 1
 878 702 l 1
 1272 216 l 2
 1310 168 1336 146 1386 114 c 0
 1444 78 1498 64 1572 64 c 1
 1572 0 l 1
 1160 0 l 1
 726 656 l 2
 708 684 692 696 642 696 c 2
 514 696 l 1
 514 144 l 2
 514 92 540 64 592 64 c 2
 716 64 l 1
 716 -2 l 1
 692 -2 510 2 422 2 c 0
 334 2 152 -2 128 -2 c 1xec
514 772 m 1
 740 772 l 2
 938 772 1092 854 1092 1068 c 0
 1092 1200 1030 1282 920 1350 c 0
 842 1398 740 1408 638 1408 c 0
 596 1408 576 1408 514 1400 c 1
 514 772 l 1
EndSplineSet
Layer: 2
SplineSet
128 -2 m 1,0,-1
 128 64 l 1,1,-1
 252 64 l 2,2,3
 330 64 330 64 330 144 c 2,4,-1
 330 1320 l 2,5,6
 330 1362 330 1362 310.5 1382 c 128,-1,7
 291 1402 291 1402 240 1402 c 0,8,9
 194 1402 194 1402 128 1396 c 1,10,-1
 128 1460 l 1,11,12
 377 1480 377 1480 594 1480 c 0,13,14
 784 1480 784 1480 894 1462.5 c 128,-1,15
 1004 1445 1004 1445 1100 1396 c 0,16,17
 1196 1346 1196 1346 1246 1262 c 128,-1,18
 1296 1178 1296 1178 1296 1086 c 0,19,20
 1296 1000 1296 1000 1249 924 c 128,-1,21
 1202 848 1202 848 1108 794 c 0,22,23
 1004 734 1004 734 878 714 c 1,24,-1
 878 702 l 1,25,-1
 1272 216 l 2,26,27
 1300 181 1300 181 1323.5 160 c 128,-1,28
 1347 139 1347 139 1386 114 c 0,29,30
 1467 64 1467 64 1572 64 c 1,31,-1
 1572 0 l 1,32,-1
 1160 0 l 1,33,-1
 726 656 l 2,34,35
 712 678 712 678 695 687 c 128,-1,36
 678 696 678 696 642 696 c 2,37,-1
 514 696 l 1,38,-1
 514 144 l 2,39,40
 514 64 514 64 592 64 c 2,41,-1
 716 64 l 1,42,-1
 716 -2 l 1,43,44
 712 -2 712 -2 593 0 c 128,-1,45
 474 2 474 2 422 2 c 128,-1,46
 370 2 370 2 251 0 c 128,-1,47
 132 -2 132 -2 128 -2 c 1,0,-1
514 772 m 1,48,-1
 740 772 l 2,49,50
 900 772 900 772 996 844 c 128,-1,51
 1092 916 1092 916 1092 1068 c 0,52,53
 1092 1163 1092 1163 1049 1230 c 128,-1,54
 1006 1297 1006 1297 920 1350 c 0,55,56
 826 1408 826 1408 638 1408 c 0,57,58
 576 1408 576 1408 514 1400 c 1,59,-1
 514 772 l 1,48,-1
EndSplineSet
EndChar

StartChar: S
Encoding: 83 83 51
Width: 1320
VWidth: 2000
Flags: W
HStem: -20 76<558.514 931.991> 1400 88<495.472 874.365>
VStem: 120 66<388.299 414.779> 204 176<1006.79 1269.85> 1088 156<204.804 494.747>
AnchorPoint: "DotBelow" 740 -20 basechar 0
AnchorPoint: "Bottom" 740 0 basechar 0
AnchorPoint: "TopCap" 712 1580 basechar 0
LayerCount: 3
Fore
SplineSet
120 410 m 25
 186 432 l 17
 232 364 286 302 342 252 c 0
 484 124 568 56 746 56 c 0
 916 56 1088 128 1088 348 c 0
 1088 560 892 624 692 678 c 0
 448 744 204 856 204 1110 c 0
 204 1348 450 1488 680 1488 c 0
 734 1488 816 1474 866 1458 c 0
 922 1440 988 1422 1008 1422 c 0
 1050 1422 1072 1458 1088 1488 c 9
 1142 1488 l 25
 1188 1146 l 25
 1124 1124 l 17
 1064 1216 1018 1272 922 1330 c 24
 834 1384 772 1400 668 1400 c 0
 502 1400 380 1320 380 1128 c 0
 380 952 590 880 776 840 c 0
 1004 792 1244 648 1244 394 c 0
 1244 80 970 -20 744 -20 c 0
 654 -20 586 -10 490 40 c 0
 428 72 402 84 370 84 c 0
 338 84 296 48 266 -16 c 9
 206 -16 l 25
 120 410 l 25
EndSplineSet
Layer: 2
SplineSet
120 410 m 1,0,-1
 186 432 l 1,1,2
 256 329 256 329 342 252 c 0,3,4
 405 195 405 195 442 165.5 c 128,-1,5
 479 136 479 136 528.5 107 c 128,-1,6
 578 78 578 78 629.5 67 c 128,-1,7
 681 56 681 56 746 56 c 0,8,9
 799 56 799 56 847 65 c 128,-1,10
 895 74 895 74 939.5 95.5 c 128,-1,11
 984 117 984 117 1016.5 150 c 128,-1,12
 1049 183 1049 183 1068.5 233.5 c 128,-1,13
 1088 284 1088 284 1088 348 c 0,14,15
 1088 392 1088 392 1076 430 c 128,-1,16
 1064 468 1064 468 1045 496.5 c 128,-1,17
 1026 525 1026 525 994.5 550 c 128,-1,18
 963 575 963 575 932.5 592 c 128,-1,19
 902 609 902 609 857 626 c 128,-1,20
 812 643 812 643 777.5 653.5 c 128,-1,21
 743 664 743 664 692 678 c 0,22,23
 612 700 612 700 547 724 c 128,-1,24
 482 748 482 748 415.5 785.5 c 128,-1,25
 349 823 349 823 304.5 867 c 128,-1,26
 260 911 260 911 232 973.5 c 128,-1,27
 204 1036 204 1036 204 1110 c 0,28,29
 204 1196 204 1196 246 1269 c 128,-1,30
 288 1342 288 1342 356 1389 c 128,-1,31
 424 1436 424 1436 508.5 1462 c 128,-1,32
 593 1488 593 1488 680 1488 c 0,33,34
 772 1488 772 1488 866 1458 c 0,35,36
 978 1422 978 1422 1008 1422 c 0,37,38
 1053 1422 1053 1422 1088 1488 c 1,39,-1
 1142 1488 l 1,40,-1
 1188 1146 l 1,41,-1
 1124 1124 l 1,42,43
 1075 1199 1075 1199 1032.5 1244 c 128,-1,44
 990 1289 990 1289 922 1330 c 0,45,46
 857 1370 857 1370 802 1385 c 128,-1,47
 747 1400 747 1400 668 1400 c 0,48,49
 536 1400 536 1400 458 1333 c 128,-1,50
 380 1266 380 1266 380 1128 c 0,51,52
 380 1077 380 1077 404 1034 c 128,-1,53
 428 991 428 991 465 962 c 128,-1,54
 502 933 502 933 557 908 c 128,-1,55
 612 883 612 883 662.5 868 c 128,-1,56
 713 853 713 853 776 840 c 0,57,58
 866 821 866 821 946 785 c 128,-1,59
 1026 749 1026 749 1094.5 695 c 128,-1,60
 1163 641 1163 641 1203.5 563 c 128,-1,61
 1244 485 1244 485 1244 394 c 128,-1,62
 1244 303 1244 303 1213.5 230.5 c 128,-1,63
 1183 158 1183 158 1133.5 112 c 128,-1,64
 1084 66 1084 66 1017.5 35.5 c 128,-1,65
 951 5 951 5 883 -7.5 c 128,-1,66
 815 -20 815 -20 744 -20 c 0,67,68
 671 -20 671 -20 614.5 -7.5 c 128,-1,69
 558 5 558 5 490 40 c 0,70,71
 440 66 440 66 416.5 75 c 128,-1,72
 393 84 393 84 370 84 c 0,73,74
 345 84 345 84 316.5 57.5 c 128,-1,75
 288 31 288 31 266 -16 c 1,76,-1
 206 -16 l 1,77,-1
 120 410 l 1,0,-1
EndSplineSet
EndChar

StartChar: T
Encoding: 84 84 52
Width: 1536
VWidth: 2078
Flags: W
HStem: 2 62<482 684.098 891.902 1094> 1396 66<370.673 696 880 1205.33>
VStem: 696 184<69.1875 1396>
AnchorPoint: "DotBelow" 788 -20 basechar 0
AnchorPoint: "Bottom" 788 0 basechar 0
AnchorPoint: "TopCap" 788 1580 basechar 0
LayerCount: 3
Fore
SplineSet
88 1132 m 1
 160 1462 l 1
 494 1462 l 2
 518 1462 700 1458 788 1458 c 0
 876 1458 1058 1462 1082 1462 c 2
 1416 1462 l 1
 1488 1132 l 1
 1430 1110 l 1
 1404 1161 1339 1267 1280 1316 c 0
 1226 1361 1156 1396 1056 1396 c 2
 880 1396 l 1
 880 144 l 2
 880 92 906 64 958 64 c 2
 1094 64 l 1
 1094 -2 l 1
 1058 -2 884 2 788 2 c 0
 692 2 518 -2 482 -2 c 1
 482 64 l 1
 618 64 l 2
 670 64 696 92 696 144 c 2
 696 1396 l 1
 520 1396 l 2
 420 1396 350 1361 296 1316 c 0
 237 1267 172 1161 146 1110 c 1
 88 1132 l 1
EndSplineSet
Layer: 2
SplineSet
88 1132 m 1,0,-1
 160 1462 l 1,1,-1
 494 1462 l 2,2,3
 498 1462 498 1462 617 1460 c 128,-1,4
 736 1458 736 1458 788 1458 c 128,-1,5
 840 1458 840 1458 959 1460 c 128,-1,6
 1078 1462 1078 1462 1082 1462 c 2,7,-1
 1416 1462 l 1,8,-1
 1488 1132 l 1,9,-1
 1430 1110 l 1,10,11
 1405 1159 1405 1159 1362.5 1221 c 128,-1,12
 1320 1283 1320 1283 1280 1316 c 0,13,14
 1184 1396 1184 1396 1056 1396 c 2,15,-1
 880 1396 l 1,16,-1
 880 144 l 2,17,18
 880 64 880 64 958 64 c 2,19,-1
 1094 64 l 1,20,-1
 1094 -2 l 1,21,22
 1084 -2 1084 -2 964 0 c 128,-1,23
 844 2 844 2 788 2 c 128,-1,24
 732 2 732 2 612.5 0 c 128,-1,25
 493 -2 493 -2 482 -2 c 1,26,-1
 482 64 l 1,27,-1
 618 64 l 2,28,29
 696 64 696 64 696 144 c 2,30,-1
 696 1396 l 1,31,-1
 520 1396 l 2,32,33
 392 1396 392 1396 296 1316 c 0,34,35
 256 1283 256 1283 213.5 1221 c 128,-1,36
 171 1159 171 1159 146 1110 c 1,37,-1
 88 1132 l 1,0,-1
EndSplineSet
EndChar

StartChar: U
Encoding: 85 85 53
Width: 1700
VWidth: 2078
Flags: W
HStem: -28 64<752.4 1076.95> 1396 66<128 319.031 524.969 716 1140 1331.03 1440.97 1632>
VStem: 330 184<254.121 1390.81> 1342 88<272.101 1390.81>
AnchorPoint: "DotBelow" 892 -20 basechar 0
AnchorPoint: "Bottom" 892 0 basechar 0
AnchorPoint: "TopCap" 904 1580 basechar 0
LayerCount: 3
Fore
SplineSet
128 1396 m 1
 128 1462 l 1
 152 1462 334 1458 422 1458 c 0
 510 1458 692 1462 716 1462 c 1
 716 1396 l 1
 592 1396 l 2
 540 1396 514 1368 514 1316 c 2
 514 416 l 2
 514 322 548 196 648 124 c 0
 728 66 822 36 918 36 c 0
 1032 36 1140 84 1218 156 c 0
 1306 238 1342 362 1342 460 c 2
 1342 1316 l 2
 1342 1368 1316 1396 1264 1396 c 2
 1140 1396 l 1
 1140 1462 l 1
 1156 1462 1298 1458 1386 1458 c 0
 1474 1458 1616 1462 1632 1462 c 1
 1632 1396 l 1
 1508 1396 l 2
 1456 1396 1430 1368 1430 1316 c 2
 1430 484 l 2
 1430 374 1392 206 1280 106 c 0
 1196 32 1070 -28 918 -28 c 0
 754 -28 598 8 486 104 c 0
 388 188 330 318 330 456 c 2
 330 1316 l 2
 330 1368 304 1396 252 1396 c 2
 128 1396 l 1
EndSplineSet
Layer: 2
SplineSet
128 1396 m 1,0,-1
 128 1462 l 1,1,2
 132 1462 132 1462 251 1460 c 128,-1,3
 370 1458 370 1458 422 1458 c 128,-1,4
 474 1458 474 1458 593 1460 c 128,-1,5
 712 1462 712 1462 716 1462 c 1,6,-1
 716 1396 l 1,7,-1
 592 1396 l 2,8,9
 514 1396 514 1396 514 1316 c 2,10,-1
 514 416 l 2,11,12
 514 335 514 335 546.5 254.5 c 128,-1,13
 579 174 579 174 648 124 c 0,14,15
 769 36 769 36 918 36 c 0,16,17
 1001 36 1001 36 1079.5 68 c 128,-1,18
 1158 100 1158 100 1218 156 c 0,19,20
 1280 214 1280 214 1311 297 c 128,-1,21
 1342 380 1342 380 1342 460 c 2,22,-1
 1342 1316 l 2,23,24
 1342 1396 1342 1396 1264 1396 c 2,25,-1
 1140 1396 l 1,26,-1
 1140 1462 l 1,27,28
 1145 1462 1145 1462 1188.5 1461 c 128,-1,29
 1232 1460 1232 1460 1289.5 1459 c 128,-1,30
 1347 1458 1347 1458 1386 1458 c 128,-1,31
 1425 1458 1425 1458 1482.5 1459 c 128,-1,32
 1540 1460 1540 1460 1583.5 1461 c 128,-1,33
 1627 1462 1627 1462 1632 1462 c 1,34,-1
 1632 1396 l 1,35,-1
 1508 1396 l 2,36,37
 1430 1396 1430 1396 1430 1316 c 2,38,-1
 1430 484 l 2,39,40
 1430 387 1430 387 1393.5 281 c 128,-1,41
 1357 175 1357 175 1280 106 c 0,42,43
 1212 46 1212 46 1119 9 c 128,-1,44
 1026 -28 1026 -28 918 -28 c 0,45,46
 640 -28 640 -28 486 104 c 0,47,48
 412 167 412 167 371 260 c 128,-1,49
 330 353 330 353 330 456 c 2,50,-1
 330 1316 l 2,51,52
 330 1396 330 1396 252 1396 c 2,53,-1
 128 1396 l 1,0,-1
EndSplineSet
EndChar

StartChar: V
Encoding: 86 86 54
Width: 1640
VWidth: 2078
Flags: W
HStem: -14 21G<819.63 919.467> 1396 66<64 225.04 501.504 688 1104 1255.8 1474.01 1604>
DStem2: 916 245 330 1176 0.386046 -0.92248<-1153.52 0> 916 245 912 -14 0.349772 0.936835<0 1119.28>
AnchorPoint: "TopCap" 888 1580 basechar 0
AnchorPoint: "Bottom" 868 0 basechar 0
AnchorPoint: "DotBelow" 868 -20 basechar 0
LayerCount: 3
Fore
SplineSet
64 1396 m 1
 64 1462 l 1
 112 1462 280 1458 376 1458 c 0
 472 1458 640 1462 688 1462 c 1
 688 1396 l 1
 570 1396 l 2
 528 1396 486 1368 486 1316 c 0
 486 1306 490 1267 500 1244 c 2
 916 245 l 17
 1262 1178 l 2
 1282 1233 1288 1278 1288 1302 c 0
 1288 1358 1236 1396 1104 1396 c 1
 1104 1462 l 1
 1128 1462 1290 1458 1354 1458 c 0
 1418 1458 1580 1462 1604 1462 c 1
 1604 1396 l 1
 1582 1396 l 2
 1480 1396 1413 1329 1366 1202 c 2
 912 -14 l 1
 828 -14 l 1
 330 1176 l 2
 282 1291 236 1396 156 1396 c 2
 64 1396 l 1
EndSplineSet
Layer: 2
SplineSet
64 1396 m 1,0,-1
 64 1462 l 1,1,2
 82 1462 82 1462 202 1460 c 128,-1,3
 322 1458 322 1458 376 1458 c 128,-1,4
 430 1458 430 1458 550 1460 c 128,-1,5
 670 1462 670 1462 688 1462 c 1,6,-1
 688 1396 l 1,7,-1
 570 1396 l 2,8,9
 536 1396 536 1396 511 1374.5 c 128,-1,10
 486 1353 486 1353 486 1316 c 0,11,12
 486 1276 486 1276 500 1244 c 2,13,-1
 916 245 l 1,14,-1
 1262 1178 l 2,15,16
 1288 1250 1288 1250 1288 1302 c 0,17,18
 1288 1396 1288 1396 1104 1396 c 1,19,-1
 1104 1462 l 1,20,21
 1111 1462 1111 1462 1214 1460 c 128,-1,22
 1317 1458 1317 1458 1354 1458 c 128,-1,23
 1391 1458 1391 1458 1494 1460 c 128,-1,24
 1597 1462 1597 1462 1604 1462 c 1,25,-1
 1604 1396 l 1,26,-1
 1582 1396 l 2,27,28
 1507 1396 1507 1396 1454.5 1347.5 c 128,-1,29
 1402 1299 1402 1299 1366 1202 c 2,30,-1
 912 -14 l 1,31,-1
 828 -14 l 1,32,-1
 330 1176 l 2,33,34
 312 1219 312 1219 301 1244 c 128,-1,35
 290 1269 290 1269 271.5 1302 c 128,-1,36
 253 1335 253 1335 237.5 1352.5 c 128,-1,37
 222 1370 222 1370 200.5 1383 c 128,-1,38
 179 1396 179 1396 156 1396 c 2,39,-1
 64 1396 l 1,0,-1
EndSplineSet
EndChar

StartChar: W
Encoding: 87 87 55
Width: 2324
VWidth: 2078
Flags: W
HStem: -14 21G<707.568 805.714 1503.56 1602.62> 1396 66<64 230.003 501.543 688 880 1038.98 1309.98 1504 1800 1954.13 2159.62 2288>
DStem2: 820 269 714 -14 0.306164 -0.951979<-1101.09 0> 820 269 798 -14 0.359849 0.933011<0 806.271> 1318 1176 1142 1128 0.306629 -0.951829<-126.458 -8.279 134.661 955.636> 1616 268 1595 -14 0.356155 0.934427<0 1099.94>
AnchorPoint: "DotBelow" 1194 -20 basechar 0
AnchorPoint: "Bottom" 1194 0 basechar 0
AnchorPoint: "TopCap" 1194 1580 basechar 0
LayerCount: 3
Fore
SplineSet
64 1396 m 1
 64 1462 l 1
 112 1462 280 1458 376 1458 c 0
 472 1458 640 1462 688 1462 c 1
 688 1396 l 1
 568 1396 l 2
 526 1396 490 1372 490 1320 c 0
 490 1310 495 1267 502 1244 c 2
 820 269 l 17
 1142 1128 l 1
 1126 1178 l 2
 1090 1294 1052 1396 964 1396 c 2
 880 1396 l 1
 880 1462 l 1
 928 1462 1096 1458 1192 1458 c 0
 1288 1458 1456 1462 1504 1462 c 1
 1504 1396 l 1
 1376 1396 l 2
 1334 1396 1292 1368 1292 1302 c 0
 1292 1270 1306 1218 1318 1176 c 2
 1616 268 l 17
 1958 1182 l 2
 1981 1242 1984 1282 1984 1306 c 0
 1984 1362 1932 1396 1800 1396 c 1
 1800 1462 l 1
 1824 1462 1980 1458 2044 1458 c 0
 2108 1458 2264 1462 2288 1462 c 1
 2288 1396 l 1
 2278 1396 l 2
 2188 1396 2125 1376 2060 1206 c 2
 1595 -14 l 1
 1510 -14 l 1
 1186 992 l 1
 798 -14 l 1
 714 -14 l 1
 330 1180 l 2
 291 1302 236 1396 156 1396 c 2
 64 1396 l 1
EndSplineSet
Layer: 2
SplineSet
64 1396 m 1,0,-1
 64 1462 l 1,1,2
 82 1462 82 1462 202 1460 c 128,-1,3
 322 1458 322 1458 376 1458 c 128,-1,4
 430 1458 430 1458 550 1460 c 128,-1,5
 670 1462 670 1462 688 1462 c 1,6,-1
 688 1396 l 1,7,-1
 568 1396 l 2,8,9
 534 1396 534 1396 512 1376.5 c 128,-1,10
 490 1357 490 1357 490 1320 c 128,-1,11
 490 1283 490 1283 502 1244 c 2,12,-1
 820 269 l 1,13,-1
 1142 1128 l 1,14,-1
 1126 1178 l 2,15,16
 1110 1230 1110 1230 1097.5 1262.5 c 128,-1,17
 1085 1295 1085 1295 1065.5 1329 c 128,-1,18
 1046 1363 1046 1363 1021 1379.5 c 128,-1,19
 996 1396 996 1396 964 1396 c 2,20,-1
 880 1396 l 1,21,-1
 880 1462 l 1,22,23
 898 1462 898 1462 1018 1460 c 128,-1,24
 1138 1458 1138 1458 1192 1458 c 128,-1,25
 1246 1458 1246 1458 1366 1460 c 128,-1,26
 1486 1462 1486 1462 1504 1462 c 1,27,-1
 1504 1396 l 1,28,-1
 1376 1396 l 2,29,30
 1341 1396 1341 1396 1316.5 1372 c 128,-1,31
 1292 1348 1292 1348 1292 1302 c 0,32,33
 1292 1267 1292 1267 1318 1176 c 1,34,-1
 1616 268 l 1,35,-1
 1958 1182 l 2,36,37
 1984 1250 1984 1250 1984 1306 c 0,38,39
 1984 1396 1984 1396 1800 1396 c 1,40,-1
 1800 1462 l 1,41,42
 1807 1462 1807 1462 1907 1460 c 128,-1,43
 2007 1458 2007 1458 2044 1458 c 128,-1,44
 2081 1458 2081 1458 2181 1460 c 128,-1,45
 2281 1462 2281 1462 2288 1462 c 1,46,-1
 2288 1396 l 1,47,-1
 2278 1396 l 2,48,49
 2227 1396 2227 1396 2194.5 1385 c 128,-1,50
 2162 1374 2162 1374 2126.5 1331 c 128,-1,51
 2091 1288 2091 1288 2060 1206 c 2,52,-1
 1595 -14 l 1,53,-1
 1510 -14 l 1,54,-1
 1186 992 l 1,55,-1
 798 -14 l 1,56,-1
 714 -14 l 1,57,-1
 330 1180 l 2,58,59
 261 1396 261 1396 156 1396 c 2,60,-1
 64 1396 l 1,0,-1
EndSplineSet
EndChar

StartChar: X
Encoding: 88 88 56
Width: 1592
VWidth: 2078
Flags: W
HStem: -2 66<88 238.425 527.426 676 924 1099.89 1414.27 1556> 1396 66<160 313.453 619.82 792 1004 1121.14 1365.21 1532>
DStem2: 368 198 546 300 0.597441 0.801913<59.1206 628.546 850.405 1388.64> 876 880 760 726 0.547876 -0.836559<-516.549 0 151.807 746.065>
AnchorPoint: "TopCap" 880 1580 basechar 0
AnchorPoint: "DotBelow" 792 -20 basechar 0
AnchorPoint: "Bottom" 792 0 basechar 0
LayerCount: 3
Fore
SplineSet
88 -2 m 1
 88 64 l 1
 202 64 306 116 368 198 c 2
 760 726 l 1
 400 1276 l 2
 382 1302 358 1330 330 1352 c 0
 292 1382 244 1396 214 1396 c 2
 160 1396 l 1
 160 1462 l 1
 208 1462 362 1458 474 1458 c 0
 586 1458 744 1462 792 1462 c 1
 792 1396 l 1
 694 1396 l 2
 646 1396 604 1364 604 1320 c 0
 604 1306 612 1280 622 1266 c 2
 876 880 l 1
 1116 1202 l 2
 1160 1260 1172 1304 1172 1332 c 0
 1172 1358 1158 1384 1122 1390 c 0
 1104 1394 1064 1396 1004 1396 c 1
 1004 1462 l 1
 1028 1462 1180 1458 1268 1458 c 0
 1356 1458 1508 1462 1532 1462 c 1
 1532 1396 l 1
 1412 1396 1330 1360 1284 1298 c 2
 922 810 l 1
 1328 192 l 2
 1350 160 1374 130 1402 106 c 0
 1436 80 1458 64 1512 64 c 2
 1556 64 l 1
 1556 -2 l 1
 1508 -2 1352 2 1240 2 c 0
 1128 2 972 -2 924 -2 c 1
 924 64 l 1
 1032 64 l 2
 1076 64 1118 98 1118 146 c 0
 1118 160 1116 184 1106 198 c 2
 808 654 l 1
 546 300 l 2
 504 244 498 192 498 174 c 0
 498 134 526 64 598 64 c 2
 676 64 l 1
 676 -2 l 1
 628 -2 476 2 380 2 c 0
 284 2 136 -2 88 -2 c 1
EndSplineSet
Layer: 2
SplineSet
88 -2 m 1,0,-1
 88 64 l 1,1,2
 173 64 173 64 247 100 c 128,-1,3
 321 136 321 136 368 198 c 2,4,-1
 760 726 l 1,5,-1
 400 1276 l 1,6,7
 368 1322 368 1322 330 1352 c 0,8,9
 274 1396 274 1396 214 1396 c 2,10,-1
 160 1396 l 1,11,-1
 160 1462 l 1,12,13
 176 1462 176 1462 293 1460 c 128,-1,14
 410 1458 410 1458 474 1458 c 128,-1,15
 538 1458 538 1458 657 1460 c 128,-1,16
 776 1462 776 1462 792 1462 c 1,17,-1
 792 1396 l 1,18,-1
 694 1396 l 2,19,20
 657 1396 657 1396 630.5 1374 c 128,-1,21
 604 1352 604 1352 604 1320 c 0,22,23
 604 1291 604 1291 622 1266 c 1,24,-1
 876 880 l 1,25,-1
 1116 1202 l 2,26,27
 1172 1276 1172 1276 1172 1332 c 0,28,29
 1172 1353 1172 1353 1159.5 1369.5 c 128,-1,30
 1147 1386 1147 1386 1122 1390 c 1,31,32
 1095 1396 1095 1396 1004 1396 c 1,33,-1
 1004 1462 l 1,34,35
 1008 1462 1008 1462 1112 1460 c 128,-1,36
 1216 1458 1216 1458 1268 1458 c 128,-1,37
 1320 1458 1320 1458 1424 1460 c 128,-1,38
 1528 1462 1528 1462 1532 1462 c 1,39,-1
 1532 1396 l 1,40,41
 1357 1396 1357 1396 1284 1298 c 2,42,-1
 922 810 l 1,43,-1
 1328 192 l 1,44,45
 1366 137 1366 137 1402 106 c 1,46,47
 1432 83 1432 83 1453.5 73.5 c 128,-1,48
 1475 64 1475 64 1512 64 c 2,49,-1
 1556 64 l 1,50,-1
 1556 -2 l 1,51,52
 1540 -2 1540 -2 1422 0 c 128,-1,53
 1304 2 1304 2 1240 2 c 128,-1,54
 1176 2 1176 2 1058 0 c 128,-1,55
 940 -2 940 -2 924 -2 c 1,56,-1
 924 64 l 1,57,-1
 1032 64 l 2,58,59
 1066 64 1066 64 1092 87.5 c 128,-1,60
 1118 111 1118 111 1118 146 c 128,-1,61
 1118 181 1118 181 1106 198 c 2,62,-1
 808 654 l 1,63,-1
 546 300 l 2,64,65
 498 236 498 236 498 174 c 0,66,67
 498 136 498 136 523.5 100 c 128,-1,68
 549 64 549 64 598 64 c 2,69,-1
 676 64 l 1,70,-1
 676 -2 l 1,71,72
 658 -2 658 -2 546 0 c 128,-1,73
 434 2 434 2 380 2 c 128,-1,74
 326 2 326 2 216 0 c 128,-1,75
 106 -2 106 -2 88 -2 c 1,0,-1
EndSplineSet
EndChar

StartChar: Y
Encoding: 89 89 57
Width: 1600
VWidth: 2078
Flags: W
HStem: 4 62<496 698.098 905.902 1108> 1396 66<92 254.25 526.137 716 1068 1203.5 1449.58 1568>
VStem: 710 184<71.1875 480>
DStem2: 854 568 710 480 0.444448 -0.895805<-822.509 0> 854 568 894 488 0.510594 0.859822<0 815.178>
AnchorPoint: "DotBelow" 802 -20 basechar 0
AnchorPoint: "Bottom" 802 0 basechar 0
AnchorPoint: "TopCap" 868 1580 basechar 0
LayerCount: 3
Fore
SplineSet
92 1396 m 1
 92 1462 l 1
 140 1462 316 1458 404 1458 c 0
 492 1458 668 1462 716 1462 c 1
 716 1396 l 1
 596 1396 l 2
 554 1396 510 1368 510 1316 c 0
 510 1306 516 1264 526 1244 c 2
 854 568 l 17
 1204 1166 l 2
 1234 1218 1240 1264 1240 1288 c 0
 1240 1344 1200 1396 1068 1396 c 1
 1068 1462 l 1
 1092 1462 1248 1458 1320 1458 c 0
 1392 1458 1544 1462 1568 1462 c 1
 1568 1396 l 1
 1546 1396 l 2
 1444 1396 1382 1308 1318 1202 c 2
 894 488 l 9
 894 146 l 2
 894 94 920 66 972 66 c 2
 1108 66 l 1
 1108 0 l 1
 1072 0 898 4 802 4 c 0
 706 4 532 0 496 0 c 1
 496 66 l 1
 632 66 l 2
 684 66 710 94 710 146 c 2
 710 480 l 17
 324 1258 l 2
 276 1354 238 1396 168 1396 c 2
 92 1396 l 1
EndSplineSet
Layer: 2
SplineSet
92 1396 m 1,0,-1
 92 1462 l 1,1,2
 111 1462 111 1462 233 1460 c 128,-1,3
 355 1458 355 1458 404 1458 c 128,-1,4
 453 1458 453 1458 575 1460 c 128,-1,5
 697 1462 697 1462 716 1462 c 1,6,-1
 716 1396 l 1,7,-1
 596 1396 l 2,8,9
 562 1396 562 1396 536 1374.5 c 128,-1,10
 510 1353 510 1353 510 1316 c 0,11,12
 510 1276 510 1276 526 1244 c 2,13,-1
 854 568 l 1,14,-1
 1204 1166 l 2,15,16
 1240 1228 1240 1228 1240 1288 c 0,17,18
 1240 1335 1240 1335 1200 1365.5 c 128,-1,19
 1160 1396 1160 1396 1068 1396 c 1,20,-1
 1068 1462 l 1,21,22
 1074 1462 1074 1462 1176 1460 c 128,-1,23
 1278 1458 1278 1458 1320 1458 c 128,-1,24
 1362 1458 1362 1458 1462 1460 c 128,-1,25
 1562 1462 1562 1462 1568 1462 c 1,26,-1
 1568 1396 l 1,27,-1
 1546 1396 l 2,28,29
 1477 1396 1477 1396 1426.5 1347 c 128,-1,30
 1376 1298 1376 1298 1318 1202 c 2,31,-1
 894 488 l 1,32,-1
 894 146 l 2,33,34
 894 66 894 66 972 66 c 2,35,-1
 1108 66 l 1,36,-1
 1108 0 l 1,37,38
 1098 0 1098 0 978 2 c 128,-1,39
 858 4 858 4 802 4 c 128,-1,40
 746 4 746 4 626.5 2 c 128,-1,41
 507 0 507 0 496 0 c 1,42,-1
 496 66 l 1,43,-1
 632 66 l 2,44,45
 710 66 710 66 710 146 c 2,46,-1
 710 480 l 1,47,-1
 324 1258 l 2,48,49
 286 1333 286 1333 252.5 1364.5 c 128,-1,50
 219 1396 219 1396 168 1396 c 2,51,-1
 92 1396 l 1,0,-1
EndSplineSet
EndChar

StartChar: Z
Encoding: 90 90 58
Width: 1412
VWidth: 2078
Flags: W
HStem: 0 76<340 1054.49> 1384 76<500.035 1094>
VStem: 1252 62<311.632 368.625>
DStem2: 88 48 340 76 0.60153 0.79885<173.953 1672.4>
AnchorPoint: "DotBelow" 680 -20 basechar 0
AnchorPoint: "Bottom" 680 0 basechar 0
AnchorPoint: "TopCap" 788 1580 basechar 0
LayerCount: 3
Fore
SplineSet
88 0 m 1
 88 48 l 1
 1094 1384 l 1
 678 1384 l 2
 578 1384 484 1348 422 1302 c 0
 324 1229 242 1116 192 1040 c 1
 132 1068 l 1
 308 1460 l 1
 1336 1460 l 1
 1336 1412 l 1
 340 76 l 1
 896 76 l 2
 996 76 1065 107 1120 162 c 0
 1188 230 1226 314 1252 384 c 1
 1314 364 l 1
 1236 0 l 1
 88 0 l 1
EndSplineSet
Layer: 2
SplineSet
88 0 m 1,0,-1
 88 48 l 1,1,-1
 1094 1384 l 1,2,-1
 678 1384 l 2,3,4
 533 1384 533 1384 422 1302 c 0,5,6
 309 1218 309 1218 192 1040 c 1,7,-1
 132 1068 l 1,8,-1
 308 1460 l 1,9,-1
 1336 1460 l 1,10,-1
 1336 1412 l 1,11,-1
 340 76 l 1,12,-1
 896 76 l 2,13,14
 1034 76 1034 76 1120 162 c 0,15,16
 1199 241 1199 241 1252 384 c 1,17,-1
 1314 364 l 1,18,-1
 1236 0 l 1,19,-1
 88 0 l 1,0,-1
EndSplineSet
EndChar

StartChar: bracketleft
Encoding: 91 91 59
Width: 780
VWidth: 2078
Flags: W
HStem: -536 56<394.156 684> 1404 56<392.978 684>
VStem: 232 146<-473 1397.77>
LayerCount: 3
Fore
SplineSet
232 -536 m 1
 232 1460 l 1
 684 1460 l 1
 684 1404 l 1
 472 1404 l 2
 400 1404 378 1380 378 1308 c 2
 378 -380 l 2
 378 -452 400 -480 472 -480 c 2
 684 -480 l 1
 684 -536 l 1
 232 -536 l 1
EndSplineSet
Layer: 2
SplineSet
232 -536 m 1,0,-1
 232 1460 l 1,1,-1
 684 1460 l 1,2,-1
 684 1404 l 1,3,-1
 472 1404 l 2,4,5
 418 1404 418 1404 398 1383 c 128,-1,6
 378 1362 378 1362 378 1308 c 2,7,-1
 378 -380 l 2,8,9
 378 -435 378 -435 398.5 -457.5 c 128,-1,10
 419 -480 419 -480 472 -480 c 2,11,-1
 684 -480 l 1,12,-1
 684 -536 l 1,13,-1
 232 -536 l 1,0,-1
EndSplineSet
EndChar

StartChar: backslash
Encoding: 92 92 60
Width: 722
VWidth: 2078
Flags: W
HStem: -468 21G<527.394 634> 1440 20G<88 194.606>
VStem: 88 546
DStem2: 190 1460 88 1460 0.224417 -0.974493<0 1955.57>
LayerCount: 3
Fore
SplineSet
88 1460 m 1
 190 1460 l 1
 634 -468 l 1
 532 -468 l 1
 88 1460 l 1
EndSplineSet
Layer: 2
SplineSet
88 1460 m 1,0,-1
 190 1460 l 1,1,-1
 634 -468 l 1,2,-1
 532 -468 l 1,3,-1
 88 1460 l 1,0,-1
EndSplineSet
EndChar

StartChar: bracketright
Encoding: 93 93 61
Width: 780
VWidth: 2078
Flags: W
HStem: -536 56<96 387.022> 1404 56<96 385.844>
VStem: 402 146<-473.771 1397>
LayerCount: 3
Fore
SplineSet
96 -480 m 1
 308 -480 l 2
 380 -480 402 -456 402 -384 c 2
 402 1304 l 2
 402 1376 380 1404 308 1404 c 2
 96 1404 l 1
 96 1460 l 1
 548 1460 l 1
 548 -536 l 1
 96 -536 l 1
 96 -480 l 1
EndSplineSet
Layer: 2
SplineSet
96 -480 m 1,0,-1
 308 -480 l 2,1,2
 362 -480 362 -480 382 -459 c 128,-1,3
 402 -438 402 -438 402 -384 c 2,4,-1
 402 1304 l 2,5,6
 402 1359 402 1359 381.5 1381.5 c 128,-1,7
 361 1404 361 1404 308 1404 c 2,8,-1
 96 1404 l 1,9,-1
 96 1460 l 1,10,-1
 548 1460 l 1,11,-1
 548 -536 l 1,12,-1
 96 -536 l 1,13,-1
 96 -480 l 1,0,-1
EndSplineSet
EndChar

StartChar: asciicircum
Encoding: 94 94 62
Width: 1152
VWidth: 1882
Flags: W
HStem: 1296 168<452 700>
LayerCount: 3
Fore
SplineSet
44 898 m 1
 536 1464 l 1
 616 1464 l 1
 1108 902 l 1
 1064 856 l 1
 576 1296 l 1
 88 856 l 1
 44 898 l 1
EndSplineSet
Layer: 2
SplineSet
44 898 m 1,0,-1
 536 1464 l 1,1,-1
 616 1464 l 1,2,-1
 1108 902 l 1,3,-1
 1064 856 l 1,4,-1
 576 1296 l 1,5,-1
 88 856 l 1,6,-1
 44 898 l 1,0,-1
EndSplineSet
EndChar

StartChar: underscore
Encoding: 95 95 63
Width: 1024
VWidth: 2078
Flags: W
HStem: -352 96<0 1024>
LayerCount: 3
Fore
SplineSet
0 -256 m 1
 1024 -256 l 1
 1024 -352 l 1
 0 -352 l 1
 0 -256 l 1
EndSplineSet
Layer: 2
SplineSet
0 -256 m 1,0,-1
 1024 -256 l 1,1,-1
 1024 -352 l 1,2,-1
 0 -352 l 1,3,-1
 0 -256 l 1,0,-1
EndSplineSet
EndChar

StartChar: grave
Encoding: 96 96 64
AltUni2: 0002cb.ffffffff.0
Width: 880
VWidth: 2078
Flags: W
HStem: 1008 480
VStem: 166 196<1364 1446.25>
LayerCount: 3
Fore
SplineSet
166 1415 m 0
 166 1449 195 1488 244 1488 c 0
 303 1488 342 1418 362 1364 c 2
 482 1030 l 1
 438 1008 l 1
 230 1285 l 2
 198 1328 166 1373 166 1415 c 0
EndSplineSet
Layer: 2
SplineSet
166 1415 m 0,0,1
 166 1443 166 1443 187.5 1465.5 c 128,-1,2
 209 1488 209 1488 244 1488 c 0,3,4
 316 1488 316 1488 362 1364 c 1,5,-1
 482 1030 l 1,6,-1
 438 1008 l 1,7,-1
 230 1285 l 2,8,9
 166 1371 166 1371 166 1415 c 0,0,1
EndSplineSet
EndChar

StartChar: a
Encoding: 97 97 65
Width: 1030
VWidth: 2079
Flags: W
HStem: -16 114<759 909> -16 74<313.276 521.385> 460 48<496.551 657> 858 58<378.455 574.658>
VStem: 104 170<90.6649 315.959> 141 168<651.13 807.262> 657 140<120.37 460 508 792.869>
AnchorPoint: "DotBelow" 510 -20 basechar 0
AnchorPoint: "Bottom" 510 0 basechar 0
AnchorPoint: "Dotaccent" 488 1020 basechar 0
AnchorPoint: "Grave" 488 980 basechar 0
AnchorPoint: "Acute" 488 980 basechar 0
AnchorPoint: "Top" 488 1000 basechar 0
LayerCount: 3
Fore
SplineSet
104 176 m 0x7a
 104 348 258 424 403 468 c 0
 484 493 572 508 657 508 c 9
 657 667 l 26
 657 767 582 858 487 858 c 0
 432 858 380 844 349 805 c 0
 326 776 317 748 309 707 c 0
 303 677 282 640 231 640 c 0
 181 640 141 673 141 725 c 0
 141 839 314 916 483 916 c 0
 550 916 618 901 676 867 c 0
 749 824 797 748 797 654 c 10
 797 220 l 26
 797 165 815 98 869 98 c 0
 915 98 944 133 965 164 c 9
 998 146 l 17
 955 62 890 -16 790 -16 c 0xb6
 728 -16 678 50 661 94 c 9
 649 90 l 17
 599 49 468 -16 351 -16 c 0
 285 -16 222 -5 175 30 c 0
 133 61 104 113 104 176 c 0x7a
274 186 m 0x7a
 274 107 335 58 416 58 c 0
 516 58 591 103 657 151 c 9
 657 460 l 17
 580 458 474 441 387 395 c 0
 324 362 274 294 274 186 c 0x7a
EndSplineSet
Layer: 2
SplineSet
104 176 m 0,0,1
 104 226 104 226 121.5 268.5 c 128,-1,2
 139 311 139 311 167 340.5 c 128,-1,3
 195 370 195 370 236 395.5 c 128,-1,4
 277 421 277 421 316 437 c 128,-1,5
 355 453 355 453 403 468 c 0,6,7
 533 508 533 508 657 508 c 1,8,-1
 657 667 l 2,9,10
 657 743 657 743 607 800.5 c 128,-1,11
 557 858 557 858 487 858 c 0,12,13
 391 858 391 858 349 805 c 0,14,15
 321 770 321 770 309 707 c 0,16,17
 304 680 304 680 285 660 c 128,-1,18
 266 640 266 640 231 640 c 0,19,20
 193 640 193 640 167 663.5 c 128,-1,21
 141 687 141 687 141 725 c 0,22,23
 141 807 141 807 245.5 861.5 c 128,-1,24
 350 916 350 916 483 916 c 0,25,26
 592 916 592 916 676 867 c 0,27,28
 732 834 732 834 764.5 778.5 c 128,-1,29
 797 723 797 723 797 654 c 2,30,-1
 797 220 l 2,31,32
 797 171 797 171 814.5 134.5 c 128,-1,33
 832 98 832 98 869 98 c 0,34,35
 920 98 920 98 965 164 c 1,36,-1
 998 146 l 1,37,38
 915 -16 915 -16 790 -16 c 0,39,40
 748 -16 748 -16 712 19 c 128,-1,41
 676 54 676 54 661 94 c 1,42,-1
 649 90 l 1,43,44
 604 53 604 53 517.5 18.5 c 128,-1,45
 431 -16 431 -16 351 -16 c 0,46,47
 237 -16 237 -16 175 30 c 0,48,49
 104 82 104 82 104 176 c 0,0,1
274 186 m 0,50,51
 274 128 274 128 314 93 c 128,-1,52
 354 58 354 58 416 58 c 0,53,54
 484 58 484 58 540.5 82.5 c 128,-1,55
 597 107 597 107 657 151 c 1,56,-1
 657 460 l 1,57,58
 502 456 502 456 387 395 c 0,59,60
 336 368 336 368 305 315.5 c 128,-1,61
 274 263 274 263 274 186 c 0,50,51
EndSplineSet
EndChar

StartChar: b
Encoding: 98 98 66
Width: 1094
VWidth: 2079
Flags: W
HStem: -16 66<435.08 690.401> 824 92<452.607 710.506> 1458 20G<227.545 320>
VStem: 180 140<107.846 750.567 796 1332.14> 840 170<241.382 672.117>
AnchorPoint: "DotBelow" 548 -20 basechar 0
AnchorPoint: "Bottom" 548 0 basechar 0
AnchorPoint: "Top" 456 1580 basechar 0
AnchorPoint: "Acute" 234 1560 basechar 0
AnchorPoint: "Dotaccent" 604 1020 basechar 0
LayerCount: 3
Fore
SplineSet
22 1346 m 1
 22 1390 l 1
 288 1478 l 1
 320 1478 l 1
 320 796 l 1
 328 791 l 1
 411 858 519 916 608 916 c 0
 714 916 819 881 871 828 c 0
 966 732 1010 622 1010 491 c 0
 1010 356 974 226 908 135 c 0
 829 27 721 -16 590 -16 c 0
 553 -16 464 1 411 27 c 0
 359 53 329 66 314 66 c 0
 286 66 253 28 230 -8 c 1
 180 -8 l 1
 180 1263 l 2
 180 1305 164 1331 116 1336 c 2
 22 1346 l 1
320 135 m 1
 396 83 492 50 558 50 c 0
 637 50 716 81 760 141 c 0
 820 220 840 335 840 418 c 0
 840 510 839 616 773 713 c 0
 714 799 642 824 560 824 c 0
 487 824 408 793 320 714 c 1
 320 135 l 1
EndSplineSet
Layer: 2
SplineSet
22 1346 m 1,0,-1
 22 1390 l 1,1,-1
 288 1478 l 1,2,-1
 320 1478 l 1,3,-1
 320 796 l 1,4,-1
 328 791 l 1,5,6
 396 845 396 845 470.5 880.5 c 128,-1,7
 545 916 545 916 608 916 c 0,8,9
 688 916 688 916 760 892 c 128,-1,10
 832 868 832 868 871 828 c 0,11,12
 1010 688 1010 688 1010 491 c 0,13,14
 1010 276 1010 276 908 135 c 0,15,16
 798 -16 798 -16 590 -16 c 0,17,18
 559 -16 559 -16 503.5 -3.5 c 128,-1,19
 448 9 448 9 411 27 c 0,20,21
 333 66 333 66 314 66 c 0,22,23
 277 66 277 66 230 -8 c 1,24,-1
 180 -8 l 1,25,-1
 180 1263 l 2,26,27
 180 1329 180 1329 116 1336 c 2,28,-1
 22 1346 l 1,0,-1
320 135 m 1,29,30
 376 96 376 96 442 73 c 128,-1,31
 508 50 508 50 558 50 c 0,32,33
 619 50 619 50 673.5 73.5 c 128,-1,34
 728 97 728 97 760 141 c 0,35,36
 801 196 801 196 820.5 271.5 c 128,-1,37
 840 347 840 347 840 418 c 0,38,39
 840 479 840 479 837.5 516.5 c 128,-1,40
 835 554 835 554 819.5 611 c 128,-1,41
 804 668 804 668 773 713 c 0,42,43
 697 824 697 824 560 824 c 0,44,45
 443 824 443 824 320 714 c 1,46,-1
 320 135 l 1,29,30
EndSplineSet
EndChar

StartChar: c
Encoding: 99 99 67
Width: 948
VWidth: 2079
Flags: W
HStem: -16 92<401.776 687.889> 842 74<404.458 620.983>
VStem: 84 170<237.095 645.372> 674 182<629.442 796.159>
AnchorPoint: "DotBelow" 520 -20 basechar 0
AnchorPoint: "Bottom" 520 0 basechar 0
AnchorPoint: "Top" 524 1000 basechar 0
AnchorPoint: "Acute" 524 980 basechar 0
AnchorPoint: "Grave" 524 980 basechar 0
AnchorPoint: "Dotaccent" 524 1020 basechar 0
LayerCount: 3
Fore
SplineSet
84 436 m 0
 84 571 133 692 215 779 c 0
 308 879 418 916 512 916 c 0
 591 916 656 904 714 873 c 0
 799 827 856 756 856 702 c 0
 856 644 822 613 770 613 c 0
 720 613 687 650 674 696 c 0
 666 729 656 762 639 785 c 0
 616 816 583 842 533 842 c 0
 358 842 254 677 254 457 c 0
 254 228 363 76 561 76 c 0
 665 76 763 147 811 213 c 9
 848 176 l 17
 796 93 669 -16 532 -16 c 0
 417 -16 310 18 221 97 c 0
 133 174 84 284 84 436 c 0
EndSplineSet
Layer: 2
SplineSet
84 436 m 0,0,1
 84 640 84 640 215 779 c 1,2,3
 342 916 342 916 512 916 c 0,4,5
 634 916 634 916 714 873 c 0,6,7
 777 839 777 839 816.5 791 c 128,-1,8
 856 743 856 743 856 702 c 0,9,10
 856 659 856 659 833 636 c 128,-1,11
 810 613 810 613 770 613 c 0,12,13
 734 613 734 613 709 636 c 128,-1,14
 684 659 684 659 674 696 c 1,15,16
 659 758 659 758 639 785 c 0,17,18
 597 842 597 842 533 842 c 0,19,20
 404 842 404 842 329 734 c 128,-1,21
 254 626 254 626 254 457 c 0,22,23
 254 282 254 282 334.5 179 c 128,-1,24
 415 76 415 76 561 76 c 0,25,26
 634 76 634 76 702.5 117 c 128,-1,27
 771 158 771 158 811 213 c 1,28,-1
 848 176 l 1,29,30
 803 104 803 104 714.5 44 c 128,-1,31
 626 -16 626 -16 532 -16 c 0,32,33
 348 -16 348 -16 221 97 c 1,34,35
 84 217 84 217 84 436 c 0,0,1
EndSplineSet
EndChar

StartChar: d
Encoding: 100 100 68
Width: 1108
VWidth: 2079
Flags: W
HStem: -16 92<383.494 641.04> 8 58<932.587 1048> 850 66<403.599 656.908> 1458 20G<821.545 914>
VStem: 84 170<227.883 658.618> 774 140<78.3264 106 149.433 791.617 836 1332.14>
AnchorPoint: "Grave" 828 1560 basechar 0
AnchorPoint: "DotBelow" 548 -20 basechar 0
AnchorPoint: "Bottom" 548 0 basechar 0
AnchorPoint: "Dotaccent" 412 1020 basechar 0
AnchorPoint: "Acute" 760 1560 basechar 0
AnchorPoint: "Top" 644 1580 basechar 0
LayerCount: 3
Fore
SplineSet
84 409 m 0xbc
 84 544 120 674 186 765 c 0
 265 873 373 916 504 916 c 0
 570 916 680 885 766 830 c 1
 774 836 l 1
 774 1263 l 2
 774 1305 758 1331 710 1336 c 2
 616 1346 l 1
 616 1390 l 1
 882 1478 l 1
 914 1478 l 1
 914 149 l 2
 914 89 952 66 1048 66 c 1
 1048 8 l 1x7c
 774 -8 l 1
 774 106 l 1
 768 110 l 1
 690 45 576 -16 486 -16 c 0
 380 -16 275 19 223 72 c 0
 128 168 84 278 84 409 c 0xbc
254 482 m 0
 254 390 255 284 321 187 c 0
 380 101 452 76 534 76 c 0xbc
 608 76 686 107 774 186 c 1
 774 764 l 1
 698 817 603 850 536 850 c 0
 457 850 378 819 334 759 c 0
 274 680 254 565 254 482 c 0
EndSplineSet
Layer: 2
SplineSet
84 409 m 0,0,1
 84 624 84 624 186 765 c 0,2,3
 296 916 296 916 504 916 c 0,4,5
 556 916 556 916 630 892.5 c 128,-1,6
 704 869 704 869 766 830 c 1,7,-1
 774 836 l 1,8,-1
 774 1263 l 2,9,10
 774 1329 774 1329 710 1336 c 2,11,-1
 616 1346 l 1,12,-1
 616 1390 l 1,13,-1
 882 1478 l 1,14,-1
 914 1478 l 1,15,-1
 914 149 l 2,16,17
 914 104 914 104 945 85 c 128,-1,18
 976 66 976 66 1048 66 c 1,19,-1
 1048 8 l 1,20,-1
 774 -8 l 1,21,-1
 774 106 l 1,22,-1
 768 110 l 1,23,24
 705 57 705 57 627.5 20.5 c 128,-1,25
 550 -16 550 -16 486 -16 c 0,26,27
 406 -16 406 -16 334 8 c 128,-1,28
 262 32 262 32 223 72 c 0,29,30
 84 212 84 212 84 409 c 0,0,1
254 482 m 0,31,32
 254 421 254 421 256.5 383.5 c 128,-1,33
 259 346 259 346 274.5 289 c 128,-1,34
 290 232 290 232 321 187 c 0,35,36
 397 76 397 76 534 76 c 0,37,38
 651 76 651 76 774 186 c 1,39,-1
 774 764 l 1,40,41
 718 803 718 803 652.5 826.5 c 128,-1,42
 587 850 587 850 536 850 c 0,43,44
 475 850 475 850 420.5 826.5 c 128,-1,45
 366 803 366 803 334 759 c 0,46,47
 293 704 293 704 273.5 628.5 c 128,-1,48
 254 553 254 553 254 482 c 0,31,32
EndSplineSet
EndChar

StartChar: e
Encoding: 101 101 69
Width: 954
VWidth: 2079
Flags: W
HStem: -16 92<401.776 687.889> 528 58<267 739> 842 74<406.639 632.502>
VStem: 84 170<237.095 591.044>
AnchorPoint: "Bottom" 520 0 basechar 0
AnchorPoint: "DotBelow" 520 -20 basechar 0
AnchorPoint: "Top" 512 1000 basechar 0
AnchorPoint: "Acute" 512 980 basechar 0
AnchorPoint: "Grave" 512 980 basechar 0
AnchorPoint: "Dotaccent" 512 1020 basechar 0
LayerCount: 3
Fore
SplineSet
84 436 m 0
 84 579 131 694 212 777 c 0
 323 889 433 916 512 916 c 0
 618 916 699 893 774 814 c 0
 857 727 878 618 886 528 c 1
 258 528 l 1
 255 505 254 481 254 457 c 0
 254 228 363 76 561 76 c 0
 665 76 763 147 811 213 c 1
 848 176 l 1
 796 93 669 -16 532 -16 c 0
 417 -16 310 18 221 97 c 0
 133 174 84 284 84 436 c 0
267 586 m 1
 739 586 l 1
 732 711 649 842 533 842 c 0
 394 842 300 738 267 586 c 1
EndSplineSet
Layer: 2
SplineSet
84 436 m 0,0,1
 84 646 84 646 212 777 c 1,2,3
 350 916 350 916 512 916 c 0,4,5
 596 916 596 916 658 893.5 c 128,-1,6
 720 871 720 871 774 814 c 0,7,8
 869 714 869 714 886 528 c 1,9,-1
 258 528 l 1,10,11
 254 497 254 497 254 457 c 0,12,13
 254 282 254 282 334.5 179 c 128,-1,14
 415 76 415 76 561 76 c 0,15,16
 634 76 634 76 702.5 117 c 128,-1,17
 771 158 771 158 811 213 c 1,18,-1
 848 176 l 1,19,20
 803 104 803 104 714.5 44 c 128,-1,21
 626 -16 626 -16 532 -16 c 0,22,23
 348 -16 348 -16 221 97 c 1,24,25
 84 217 84 217 84 436 c 0,0,1
267 586 m 1,26,-1
 739 586 l 1,27,28
 733 685 733 685 674.5 763.5 c 128,-1,29
 616 842 616 842 533 842 c 0,30,31
 431 842 431 842 361.5 772.5 c 128,-1,32
 292 703 292 703 267 586 c 1,26,-1
EndSplineSet
EndChar

StartChar: f
Encoding: 102 102 70
Width: 716
VWidth: 2079
Flags: W
HStem: 2 60<82 237.338 382.662 538> 836 64<78.0482 240 380 571.952> 1364 112<463.484 697>
VStem: 240 140<62.199 836 900 1219.15>
AnchorPoint: "Dotaccent" 596 1520 basechar 0
AnchorPoint: "Grave" 596 1480 basechar 0
AnchorPoint: "Acute" 596 1480 basechar 0
AnchorPoint: "Top" 596 1500 basechar 0
AnchorPoint: "DotBelow" 310 -20 basechar 0
AnchorPoint: "Bottom" 310 0 basechar 0
LayerCount: 3
Fore
SplineSet
74 836 m 1
 74 836 74 883 82 900 c 1
 240 900 l 1
 240 966 l 2
 240 1045 255 1189 319 1291 c 0
 396 1414 511 1476 638 1476 c 0
 756 1476 806 1414 806 1349 c 0
 806 1297 769 1266 715 1266 c 0
 681 1266 646 1293 623 1322 c 0
 600 1349 579 1364 540 1364 c 0
 494 1364 447 1339 414 1278 c 0
 383 1222 380 1114 380 1060 c 2
 380 900 l 1
 576 900 l 1
 576 900 576 853 568 836 c 1
 380 836 l 1
 380 112 l 2
 380 79 396 62 430 62 c 2
 538 62 l 1
 538 -2 l 1
 522 -2 368 2 310 2 c 0
 252 2 98 -2 82 -2 c 1
 82 62 l 1
 190 62 l 2
 224 62 240 79 240 112 c 2
 240 836 l 1
 74 836 l 1
EndSplineSet
Layer: 2
SplineSet
74 836 m 1,0,1
 74 883 74 883 82 900 c 1,2,-1
 240 900 l 1,3,-1
 240 966 l 2,4,5
 240 1043 240 1043 258 1133 c 128,-1,6
 276 1223 276 1223 319 1291 c 0,7,8
 376 1382 376 1382 458.5 1429 c 128,-1,9
 541 1476 541 1476 638 1476 c 0,10,11
 721 1476 721 1476 763.5 1439 c 128,-1,12
 806 1402 806 1402 806 1349 c 0,13,14
 806 1310 806 1310 781 1288 c 128,-1,15
 756 1266 756 1266 715 1266 c 0,16,17
 667 1266 667 1266 623 1322 c 1,18,19
 587 1364 587 1364 540 1364 c 0,20,21
 461 1364 461 1364 414 1278 c 0,22,23
 380 1217 380 1217 380 1060 c 2,24,-1
 380 900 l 1,25,-1
 576 900 l 1,26,27
 576 853 576 853 568 836 c 1,28,-1
 380 836 l 1,29,-1
 380 112 l 2,30,31
 380 62 380 62 430 62 c 2,32,-1
 538 62 l 1,33,-1
 538 -2 l 1,34,35
 535 -2 535 -2 439.5 0 c 128,-1,36
 344 2 344 2 310 2 c 128,-1,37
 276 2 276 2 180.5 0 c 128,-1,38
 85 -2 85 -2 82 -2 c 1,39,-1
 82 62 l 1,40,-1
 190 62 l 2,41,42
 240 62 240 62 240 112 c 2,43,-1
 240 836 l 1,44,-1
 74 836 l 1,0,1
EndSplineSet
EndChar

StartChar: g
Encoding: 103 103 71
Width: 1220
VWidth: 2079
Flags: W
HStem: -516 58<414.398 799.447> 242 58<432.487 672.265> 816 100<947.264 1100> 858 58<438.676 670.921>
VStem: 116 170<-382.321 -226.189> 144 100<82.5807 194.74> 149 150<414.983 735.324> 810 150<416.713 737.599> 918 120<-373.881 -203.728>
AnchorPoint: "Top" 568 1000 basechar 0
AnchorPoint: "Acute" 568 980 basechar 0
AnchorPoint: "Grave" 568 980 basechar 0
AnchorPoint: "Dotaccent" 568 1020 basechar 0
LayerCount: 3
Fore
SplineSet
116 -322 m 0xe880
 116 -231 244 -141 392 -92 c 1
 392 -85 l 1
 184 -35 144 25 144 96 c 0xe4
 144 185 238 246 338 288 c 1
 228 342 149 440 149 575 c 0
 149 787 342 916 554 916 c 0xd2
 673 916 785 877 862 804 c 1
 922 858 997 916 1070 916 c 0
 1130 916 1176 860 1176 804 c 0
 1176 764 1147 735 1112 735 c 0
 1078 735 1062 756 1049 775 c 0
 1039 793 1022 816 987 816 c 0
 947 816 920 800 889 775 c 1
 933 721 960 654 960 575 c 0
 960 363 766 242 554 242 c 0
 494 242 436 253 382 271 c 1
 311 244 244 204 244 152 c 0xe5
 244 52 446 19 594 0 c 0
 775 -23 1038 -62 1038 -254 c 0
 1038 -453 768 -516 577 -516 c 0
 367 -516 116 -483 116 -322 c 0xe880
286 -287 m 0xc880
 286 -412 446 -458 590 -458 c 0
 733 -458 918 -433 918 -287 c 0
 918 -177 777 -154 583 -125 c 0
 542 -119 506 -113 473 -106 c 1
 382 -131 286 -193 286 -287 c 0xc880
299 575 m 0xd3
 299 409 404 300 554 300 c 0
 704 300 810 409 810 575 c 0
 810 741 704 858 554 858 c 0
 404 858 299 741 299 575 c 0xd3
EndSplineSet
Layer: 2
SplineSet
116 -322 m 0,0,1
 116 -257 116 -257 195.5 -194 c 128,-1,2
 275 -131 275 -131 392 -92 c 1,3,-1
 392 -85 l 1,4,5
 247 -50 247 -50 195.5 -7 c 128,-1,6
 144 36 144 36 144 96 c 0,7,8
 144 207 144 207 338 288 c 1,9,10
 251 331 251 331 200 404.5 c 128,-1,11
 149 478 149 478 149 575 c 0,12,13
 149 728 149 728 268.5 822 c 128,-1,14
 388 916 388 916 554 916 c 0,15,16
 744 916 744 916 862 804 c 1,17,18
 986 916 986 916 1070 916 c 0,19,20
 1114 916 1114 916 1145 881.5 c 128,-1,21
 1176 847 1176 847 1176 804 c 0,22,23
 1176 774 1176 774 1157.5 754.5 c 128,-1,24
 1139 735 1139 735 1112 735 c 0,25,26
 1076 735 1076 735 1049 775 c 1,27,28
 1026 816 1026 816 987 816 c 0,29,30
 940 816 940 816 889 775 c 1,31,32
 960 688 960 688 960 575 c 0,33,34
 960 473 960 473 902 395.5 c 128,-1,35
 844 318 844 318 753 280 c 128,-1,36
 662 242 662 242 554 242 c 0,37,38
 469 242 469 242 382 271 c 1,39,40
 244 219 244 219 244 152 c 0,41,42
 244 117 244 117 275.5 89.5 c 128,-1,43
 307 62 307 62 366 45 c 128,-1,44
 425 28 425 28 475 18.5 c 128,-1,45
 525 9 525 9 594 0 c 0,46,47
 643 -6 643 -6 676.5 -11 c 128,-1,48
 710 -16 710 -16 760.5 -26.5 c 128,-1,49
 811 -37 811 -37 845.5 -49 c 128,-1,50
 880 -61 880 -61 919.5 -80.5 c 128,-1,51
 959 -100 959 -100 982.5 -123.5 c 128,-1,52
 1006 -147 1006 -147 1022 -180.5 c 128,-1,53
 1038 -214 1038 -214 1038 -254 c 0,54,55
 1038 -311 1038 -311 1008 -357.5 c 128,-1,56
 978 -404 978 -404 931 -432.5 c 128,-1,57
 884 -461 884 -461 821.5 -480.5 c 128,-1,58
 759 -500 759 -500 698.5 -508 c 128,-1,59
 638 -516 638 -516 577 -516 c 0,60,61
 489 -516 489 -516 415 -508 c 128,-1,62
 341 -500 341 -500 269.5 -480 c 128,-1,63
 198 -460 198 -460 157 -419.5 c 128,-1,64
 116 -379 116 -379 116 -322 c 0,0,1
286 -287 m 0,65,66
 286 -332 286 -332 313 -366 c 128,-1,67
 340 -400 340 -400 384.5 -419.5 c 128,-1,68
 429 -439 429 -439 481 -448.5 c 128,-1,69
 533 -458 533 -458 590 -458 c 0,70,71
 918 -458 918 -458 918 -287 c 0,72,73
 918 -264 918 -264 909 -245 c 128,-1,74
 900 -226 900 -226 886.5 -212 c 128,-1,75
 873 -198 873 -198 846.5 -186 c 128,-1,76
 820 -174 820 -174 797.5 -166.5 c 128,-1,77
 775 -159 775 -159 733.5 -150.5 c 128,-1,78
 692 -142 692 -142 663.5 -137.5 c 128,-1,79
 635 -133 635 -133 583 -125 c 0,80,81
 517 -115 517 -115 473 -106 c 1,82,83
 396 -127 396 -127 341 -174.5 c 128,-1,84
 286 -222 286 -222 286 -287 c 0,65,66
299 575 m 0,85,86
 299 451 299 451 370 375.5 c 128,-1,87
 441 300 441 300 554 300 c 128,-1,88
 667 300 667 300 738.5 375.5 c 128,-1,89
 810 451 810 451 810 575 c 128,-1,90
 810 699 810 699 738.5 778.5 c 128,-1,91
 667 858 667 858 554 858 c 0,92,93
 442 858 442 858 370.5 779 c 128,-1,94
 299 700 299 700 299 575 c 0,85,86
EndSplineSet
EndChar

StartChar: h
Encoding: 104 104 72
Width: 1154
VWidth: 2079
Flags: W
HStem: -2 60<68 223.338 368.662 524 654 809.338 954.662 1110> 824 92<529.017 753.03> 1458 20G<273.545 366>
VStem: 226 140<58.199 726.821 762 1332.14> 812 140<58.199 765.307>
AnchorPoint: "DotBelow" 586 -44 basechar 0
AnchorPoint: "Bottom" 586 0 basechar 0
AnchorPoint: "Dotaccent" 616 1020 basechar 0
AnchorPoint: "Acute" 280 1560 basechar 0
AnchorPoint: "Top" 556 1580 basechar 0
LayerCount: 3
Fore
SplineSet
68 -2 m 1
 68 58 l 1
 176 58 l 2
 210 58 226 75 226 108 c 2
 226 1263 l 2
 226 1305 210 1331 162 1336 c 2
 68 1346 l 1
 68 1390 l 1
 334 1478 l 1
 366 1478 l 1
 366 762 l 1
 373 756 l 1
 434 817 565 916 674 916 c 0
 760 916 814 896 864 853 c 0
 932 790 952 709 952 632 c 2
 952 108 l 2
 952 75 968 58 1002 58 c 2
 1110 58 l 1
 1110 -2 l 1
 1094 -2 940 2 882 2 c 0
 824 2 670 -2 654 -2 c 1
 654 58 l 1
 762 58 l 2
 796 58 812 75 812 108 c 2
 812 607 l 2
 812 672 799 747 749 784 c 0
 712 813 683 824 608 824 c 0
 538 824 451 766 366 689 c 1
 366 108 l 2
 366 75 382 58 416 58 c 2
 524 58 l 1
 524 -2 l 1
 508 -2 354 2 296 2 c 0
 238 2 84 -2 68 -2 c 1
EndSplineSet
Layer: 2
SplineSet
68 -2 m 1,0,-1
 68 58 l 1,1,-1
 176 58 l 2,2,3
 226 58 226 58 226 108 c 2,4,-1
 226 1263 l 2,5,6
 226 1329 226 1329 162 1336 c 2,7,-1
 68 1346 l 1,8,-1
 68 1390 l 1,9,-1
 334 1478 l 1,10,-1
 366 1478 l 1,11,-1
 366 762 l 1,12,-1
 373 756 l 1,13,14
 432 815 432 815 516.5 865.5 c 128,-1,15
 601 916 601 916 674 916 c 0,16,17
 791 916 791 916 864 853 c 1,18,19
 952 771 952 771 952 632 c 2,20,-1
 952 108 l 2,21,22
 952 58 952 58 1002 58 c 2,23,-1
 1110 58 l 1,24,-1
 1110 -2 l 1,25,26
 1107 -2 1107 -2 1011.5 0 c 128,-1,27
 916 2 916 2 882 2 c 128,-1,28
 848 2 848 2 752.5 0 c 128,-1,29
 657 -2 657 -2 654 -2 c 1,30,-1
 654 58 l 1,31,-1
 762 58 l 2,32,33
 812 58 812 58 812 108 c 2,34,-1
 812 607 l 2,35,36
 812 737 812 737 749 784 c 1,37,38
 720 807 720 807 691 815.5 c 128,-1,39
 662 824 662 824 608 824 c 0,40,41
 515 824 515 824 366 689 c 1,42,-1
 366 108 l 2,43,44
 366 58 366 58 416 58 c 2,45,-1
 524 58 l 1,46,-1
 524 -2 l 1,47,48
 521 -2 521 -2 425.5 0 c 128,-1,49
 330 2 330 2 296 2 c 128,-1,50
 262 2 262 2 166.5 0 c 128,-1,51
 71 -2 71 -2 68 -2 c 1,0,-1
EndSplineSet
EndChar

StartChar: k
Encoding: 107 107 75
Width: 1156
VWidth: 2079
Flags: W
HStem: -2 60<68 223.338 368.662 524 664 770.513 1004.01 1104> 840 61<642 755.538 977.935 1082> 1458 20G<273.545 366>
VStem: 226 140<58.199 354 431 1332.14>
DStem2: 366 431 366 354 0.794754 0.606931<0 89.475 228.068 525.667> 585 520 474 437 0.682462 -0.730921<0 437.548>
AnchorPoint: "Bottom" 592 0 basechar 0
AnchorPoint: "DotBelow" 592 -20 basechar 0
AnchorPoint: "Top" 502 1580 basechar 0
AnchorPoint: "Acute" 280 1560 basechar 0
AnchorPoint: "Dotaccent" 656 1020 basechar 0
LayerCount: 3
Fore
SplineSet
68 -2 m 1
 68 58 l 1
 176 58 l 2
 210 58 226 75 226 108 c 2
 226 1263 l 2
 226 1305 210 1331 162 1336 c 2
 68 1346 l 1
 68 1390 l 1
 334 1478 l 1
 366 1478 l 1
 366 431 l 1
 724 705 l 2
 751 726 766 745 766 778 c 0
 766 815 730 840 691 840 c 2
 642 840 l 1
 642 901 l 1
 654 901 805 896 872 896 c 0
 938 896 1070 901 1082 901 c 1
 1082 840 l 1
 1053 836 1019 830 984 813 c 0
 940 792 915 774 878 745 c 2
 585 520 l 1
 923 158 l 2
 948 131 976 106 1004 88 c 0
 1036 68 1078 60 1104 58 c 1
 1104 -2 l 1
 1092 -2 960 2 893 2 c 0
 827 2 676 -2 664 -2 c 1
 664 58 l 1
 731 58 l 2
 752 58 771 71 771 94 c 0
 771 116 752 137 733 158 c 2
 474 437 l 1
 366 354 l 1
 366 108 l 2
 366 75 382 58 416 58 c 2
 524 58 l 1
 524 -2 l 1
 508 -2 354 2 296 2 c 0
 238 2 84 -2 68 -2 c 1
EndSplineSet
Layer: 2
SplineSet
68 -2 m 1,0,-1
 68 58 l 1,1,-1
 176 58 l 2,2,3
 226 58 226 58 226 108 c 2,4,-1
 226 1263 l 2,5,6
 226 1329 226 1329 162 1336 c 2,7,-1
 68 1346 l 1,8,-1
 68 1390 l 1,9,-1
 334 1478 l 1,10,-1
 366 1478 l 1,11,-1
 366 431 l 1,12,-1
 724 705 l 2,13,14
 766 738 766 738 766 778 c 0,15,16
 766 805 766 805 743.5 822.5 c 128,-1,17
 721 840 721 840 691 840 c 2,18,-1
 642 840 l 1,19,-1
 642 901 l 1,20,21
 645 901 645 901 689 899.5 c 128,-1,22
 733 898 733 898 788 897 c 128,-1,23
 843 896 843 896 872 896 c 128,-1,24
 901 896 901 896 950.5 897 c 128,-1,25
 1000 898 1000 898 1039.5 899.5 c 128,-1,26
 1079 901 1079 901 1082 901 c 1,27,-1
 1082 840 l 1,28,29
 1023 832 1023 832 984 813 c 0,30,31
 935 790 935 790 878 745 c 2,32,-1
 585 520 l 1,33,-1
 923 158 l 2,34,35
 964 114 964 114 1004 88 c 1,36,37
 1045 63 1045 63 1104 58 c 1,38,-1
 1104 -2 l 1,39,40
 1101 -2 1101 -2 1061.5 -1 c 128,-1,41
 1022 0 1022 0 972 1 c 128,-1,42
 922 2 922 2 893 2 c 128,-1,43
 864 2 864 2 809.5 1 c 128,-1,44
 755 0 755 0 711.5 -1 c 128,-1,45
 668 -2 668 -2 664 -2 c 1,46,-1
 664 58 l 1,47,-1
 731 58 l 2,48,49
 748 58 748 58 759.5 67.5 c 128,-1,50
 771 77 771 77 771 94 c 0,51,52
 771 116 771 116 733 158 c 2,53,-1
 474 437 l 1,54,-1
 366 354 l 1,55,-1
 366 108 l 2,56,57
 366 58 366 58 416 58 c 2,58,-1
 524 58 l 1,59,-1
 524 -2 l 1,60,61
 521 -2 521 -2 425.5 0 c 128,-1,62
 330 2 330 2 296 2 c 128,-1,63
 262 2 262 2 166.5 0 c 128,-1,64
 71 -2 71 -2 68 -2 c 1,0,-1
EndSplineSet
EndChar

StartChar: l
Encoding: 108 108 76
Width: 576
VWidth: 2079
Flags: W
HStem: -2 60<68 223.338 368.662 524> 1458 20G<273.545 366>
VStem: 226 140<58.199 1332.14>
AnchorPoint: "Grave" 280 1560 basechar 0
AnchorPoint: "DotBelow" 296 -20 basechar 0
AnchorPoint: "Bottom" 296 0 basechar 0
AnchorPoint: "Top" 280 1580 basechar 0
AnchorPoint: "Acute" 280 1560 basechar 0
AnchorPoint: "Dotaccent" 280 1600 basechar 0
LayerCount: 3
Fore
SplineSet
68 -2 m 9
 68 58 l 25
 176 58 l 18
 210 58 226 75 226 108 c 10
 226 1263 l 2
 226 1305 210 1331 162 1336 c 2
 68 1346 l 1
 68 1390 l 1
 334 1478 l 1
 366 1478 l 9
 366 108 l 18
 366 75 382 58 416 58 c 10
 524 58 l 25
 524 -2 l 17
 508 -2 354 2 296 2 c 0
 238 2 84 -2 68 -2 c 9
EndSplineSet
Layer: 2
SplineSet
68 -2 m 1,0,-1
 68 58 l 1,1,-1
 176 58 l 2,2,3
 226 58 226 58 226 108 c 2,4,-1
 226 1263 l 2,5,6
 226 1329 226 1329 162 1336 c 2,7,-1
 68 1346 l 1,8,-1
 68 1390 l 1,9,-1
 334 1478 l 1,10,-1
 366 1478 l 1,11,-1
 366 108 l 2,12,13
 366 58 366 58 416 58 c 2,14,-1
 524 58 l 1,15,-1
 524 -2 l 1,16,17
 521 -2 521 -2 425.5 0 c 128,-1,18
 330 2 330 2 296 2 c 128,-1,19
 262 2 262 2 166.5 0 c 128,-1,20
 71 -2 71 -2 68 -2 c 1,0,-1
EndSplineSet
EndChar

StartChar: m
Encoding: 109 109 77
Width: 1726
VWidth: 2079
Flags: W
HStem: -2 60<74 229.338 374.662 530 644 799.338 944.662 1100 1226 1381.34 1526.66 1682> 824 92<532.021 749.496 1113.79 1331.5>
VStem: 232 140<58.199 727.743> 802 140<58.199 676.391> 1384 140<58.199 770.711>
AnchorPoint: "Bottom" 872 0 basechar 0
AnchorPoint: "Top" 872 1000 basechar 0
AnchorPoint: "Acute" 872 980 basechar 0
AnchorPoint: "Grave" 872 980 basechar 0
AnchorPoint: "Dotaccent" 872 1020 basechar 0
AnchorPoint: "DotBelow" 872 -20 basechar 0
LayerCount: 3
Fore
SplineSet
74 -2 m 1
 74 58 l 1
 182 58 l 2
 216 58 232 75 232 108 c 2
 232 695 l 2
 232 737 216 763 168 768 c 2
 74 778 l 1
 74 822 l 1
 340 910 l 1
 372 910 l 1
 372 764 l 1
 379 759 l 1
 453 828 571 916 680 916 c 0
 766 916 820 900 863 855 c 0
 898 819 917 781 928 741 c 1
 937 737 l 1
 1007 806 1141 916 1262 916 c 0
 1348 916 1402 900 1445 855 c 0
 1510 789 1524 705 1524 640 c 2
 1524 108 l 2
 1524 75 1540 58 1574 58 c 2
 1682 58 l 1
 1682 -2 l 1
 1666 -2 1512 2 1454 2 c 0
 1396 2 1242 -2 1226 -2 c 1
 1226 58 l 1
 1334 58 l 2
 1368 58 1384 75 1384 108 c 2
 1384 607 l 2
 1384 672 1380 739 1330 781 c 0
 1294 811 1262 824 1196 824 c 0
 1123 824 1029 761 940 677 c 1
 942 664 942 652 942 640 c 2
 942 108 l 2
 942 75 958 58 992 58 c 2
 1100 58 l 1
 1100 -2 l 1
 1084 -2 930 2 872 2 c 0
 814 2 660 -2 644 -2 c 1
 644 58 l 1
 752 58 l 2
 786 58 802 75 802 108 c 2
 802 607 l 2
 802 672 798 739 748 781 c 0
 712 811 680 824 614 824 c 0
 544 824 457 767 372 690 c 1
 372 108 l 2
 372 75 388 58 422 58 c 2
 530 58 l 1
 530 -2 l 1
 514 -2 360 2 302 2 c 0
 244 2 90 -2 74 -2 c 1
EndSplineSet
Layer: 2
SplineSet
74 -2 m 1,0,-1
 74 58 l 1,1,-1
 182 58 l 2,2,3
 232 58 232 58 232 108 c 2,4,-1
 232 695 l 2,5,6
 232 761 232 761 168 768 c 2,7,-1
 74 778 l 1,8,-1
 74 822 l 1,9,-1
 340 910 l 1,10,-1
 372 910 l 1,11,-1
 372 764 l 1,12,-1
 379 759 l 1,13,14
 547 916 547 916 680 916 c 0,15,16
 805 916 805 916 863 855 c 0,17,18
 910 807 910 807 928 741 c 1,19,-1
 937 737 l 1,20,21
 1007 806 1007 806 1094 861 c 128,-1,22
 1181 916 1181 916 1262 916 c 0,23,24
 1387 916 1387 916 1445 855 c 1,25,26
 1524 775 1524 775 1524 640 c 2,27,-1
 1524 108 l 2,28,29
 1524 58 1524 58 1574 58 c 2,30,-1
 1682 58 l 1,31,-1
 1682 -2 l 1,32,33
 1679 -2 1679 -2 1583.5 0 c 128,-1,34
 1488 2 1488 2 1454 2 c 128,-1,35
 1420 2 1420 2 1324.5 0 c 128,-1,36
 1229 -2 1229 -2 1226 -2 c 1,37,-1
 1226 58 l 1,38,-1
 1334 58 l 2,39,40
 1384 58 1384 58 1384 108 c 2,41,-1
 1384 607 l 2,42,43
 1384 668 1384 668 1374 710.5 c 128,-1,44
 1364 753 1364 753 1330 781 c 0,45,46
 1302 804 1302 804 1273 814 c 128,-1,47
 1244 824 1244 824 1196 824 c 0,48,49
 1096 824 1096 824 940 677 c 1,50,51
 942 664 942 664 942 640 c 2,52,-1
 942 108 l 2,53,54
 942 58 942 58 992 58 c 2,55,-1
 1100 58 l 1,56,-1
 1100 -2 l 1,57,58
 1097 -2 1097 -2 1001.5 0 c 128,-1,59
 906 2 906 2 872 2 c 128,-1,60
 838 2 838 2 742.5 0 c 128,-1,61
 647 -2 647 -2 644 -2 c 1,62,-1
 644 58 l 1,63,-1
 752 58 l 2,64,65
 802 58 802 58 802 108 c 2,66,-1
 802 607 l 2,67,68
 802 668 802 668 792 710.5 c 128,-1,69
 782 753 782 753 748 781 c 0,70,71
 720 804 720 804 691 814 c 128,-1,72
 662 824 662 824 614 824 c 0,73,74
 520 824 520 824 372 690 c 1,75,-1
 372 108 l 2,76,77
 372 58 372 58 422 58 c 2,78,-1
 530 58 l 1,79,-1
 530 -2 l 1,80,81
 527 -2 527 -2 431.5 0 c 128,-1,82
 336 2 336 2 302 2 c 128,-1,83
 268 2 268 2 172.5 0 c 128,-1,84
 77 -2 77 -2 74 -2 c 1,0,-1
EndSplineSet
EndChar

StartChar: n
Encoding: 110 110 78
Width: 1160
VWidth: 2079
Flags: W
HStem: -2 60<74 229.338 374.662 530 660 815.338 960.662 1116> 824 92<535.017 759.03>
VStem: 232 140<58.199 726.529> 818 140<58.199 765.307>
AnchorPoint: "DotBelow" 592 -20 basechar 0
AnchorPoint: "Bottom" 592 0 basechar 0
AnchorPoint: "Dotaccent" 592 1020 basechar 0
AnchorPoint: "Grave" 592 980 basechar 0
AnchorPoint: "Acute" 592 980 basechar 0
AnchorPoint: "Top" 592 1000 basechar 0
LayerCount: 3
Fore
SplineSet
74 -2 m 1
 74 58 l 1
 182 58 l 2
 216 58 232 75 232 108 c 2
 232 695 l 2
 232 737 216 763 168 768 c 2
 74 778 l 1
 74 822 l 1
 340 910 l 1
 372 910 l 1
 372 762 l 1
 379 756 l 1
 440 817 571 916 680 916 c 0
 766 916 820 896 870 853 c 0
 938 790 958 709 958 632 c 2
 958 108 l 2
 958 75 974 58 1008 58 c 2
 1116 58 l 1
 1116 -2 l 1
 1100 -2 946 2 888 2 c 0
 830 2 676 -2 660 -2 c 1
 660 58 l 1
 768 58 l 2
 802 58 818 75 818 108 c 2
 818 607 l 2
 818 672 805 747 755 784 c 0
 718 813 689 824 614 824 c 0
 544 824 457 766 372 689 c 1
 372 108 l 2
 372 75 388 58 422 58 c 2
 530 58 l 1
 530 -2 l 1
 514 -2 360 2 302 2 c 0
 244 2 90 -2 74 -2 c 1
EndSplineSet
Layer: 2
SplineSet
74 -2 m 1,0,-1
 74 58 l 1,1,-1
 182 58 l 2,2,3
 232 58 232 58 232 108 c 2,4,-1
 232 695 l 2,5,6
 232 761 232 761 168 768 c 2,7,-1
 74 778 l 1,8,-1
 74 822 l 1,9,-1
 340 910 l 1,10,-1
 372 910 l 1,11,-1
 372 762 l 1,12,-1
 379 756 l 1,13,14
 438 815 438 815 522.5 865.5 c 128,-1,15
 607 916 607 916 680 916 c 0,16,17
 797 916 797 916 870 853 c 1,18,19
 958 771 958 771 958 632 c 2,20,-1
 958 108 l 2,21,22
 958 58 958 58 1008 58 c 2,23,-1
 1116 58 l 1,24,-1
 1116 -2 l 1,25,26
 1113 -2 1113 -2 1017.5 0 c 128,-1,27
 922 2 922 2 888 2 c 128,-1,28
 854 2 854 2 758.5 0 c 128,-1,29
 663 -2 663 -2 660 -2 c 1,30,-1
 660 58 l 1,31,-1
 768 58 l 2,32,33
 818 58 818 58 818 108 c 2,34,-1
 818 607 l 2,35,36
 818 737 818 737 755 784 c 1,37,38
 726 807 726 807 697 815.5 c 128,-1,39
 668 824 668 824 614 824 c 0,40,41
 521 824 521 824 372 689 c 1,42,-1
 372 108 l 2,43,44
 372 58 372 58 422 58 c 2,45,-1
 530 58 l 1,46,-1
 530 -2 l 1,47,48
 527 -2 527 -2 431.5 0 c 128,-1,49
 336 2 336 2 302 2 c 128,-1,50
 268 2 268 2 172.5 0 c 128,-1,51
 77 -2 77 -2 74 -2 c 1,0,-1
EndSplineSet
EndChar

StartChar: o
Encoding: 111 111 79
Width: 1080
VWidth: 2079
Flags: W
HStem: -16 58<433.365 646.635> 858 58<433.365 646.635>
VStem: 84 170<244.282 655.936> 826 170<244.282 655.936>
AnchorPoint: "DotBelow" 540 -20 basechar 0
AnchorPoint: "Bottom" 540 0 basechar 0
AnchorPoint: "Dotaccent" 540 1020 basechar 0
AnchorPoint: "Grave" 540 980 basechar 0
AnchorPoint: "Acute" 540 980 basechar 0
AnchorPoint: "Top" 540 1000 basechar 0
LayerCount: 3
Fore
SplineSet
84 450 m 0
 84 717 282 916 540 916 c 0
 798 916 996 717 996 450 c 0
 996 184 798 -16 540 -16 c 0
 282 -16 84 184 84 450 c 0
254 450 m 0
 254 238 357 42 540 42 c 0
 723 42 826 238 826 450 c 0
 826 662 723 858 540 858 c 0
 357 858 254 662 254 450 c 0
EndSplineSet
Layer: 2
SplineSet
84 450 m 0,0,1
 84 650 84 650 215 783 c 128,-1,2
 346 916 346 916 540 916 c 128,-1,3
 734 916 734 916 865 783 c 128,-1,4
 996 650 996 650 996 450 c 0,5,6
 996 251 996 251 865 117.5 c 128,-1,7
 734 -16 734 -16 540 -16 c 128,-1,8
 346 -16 346 -16 215 117.5 c 128,-1,9
 84 251 84 251 84 450 c 0,0,1
254 450 m 128,-1,11
 254 282 254 282 331.5 162 c 128,-1,12
 409 42 409 42 540 42 c 128,-1,13
 671 42 671 42 748.5 162 c 128,-1,14
 826 282 826 282 826 450 c 128,-1,15
 826 618 826 618 748.5 738 c 128,-1,16
 671 858 671 858 540 858 c 128,-1,17
 409 858 409 858 331.5 738 c 128,-1,10
 254 618 254 618 254 450 c 128,-1,11
EndSplineSet
EndChar

StartChar: p
Encoding: 112 112 80
Width: 1112
VWidth: 2079
Flags: W
HStem: -500 60<40 195.338 340.662 496> -16 66<455.736 708.401> 824 92<470.24 728.506>
VStem: 198 140<-439.801 67 108.383 750.567> 858 170<241.382 672.117>
AnchorPoint: "DotBelow" 686 -20 basechar 0
AnchorPoint: "Top" 572 1000 basechar 0
AnchorPoint: "Acute" 572 980 basechar 0
AnchorPoint: "Grave" 572 980 basechar 0
AnchorPoint: "Dotaccent" 572 1020 basechar 0
LayerCount: 3
Fore
SplineSet
40 -440 m 1
 148 -440 l 2
 182 -440 198 -423 198 -390 c 2
 198 695 l 2
 198 737 182 763 134 768 c 2
 40 778 l 1
 40 822 l 1
 306 910 l 1
 338 910 l 1
 338 796 l 1
 346 791 l 1
 429 858 536 916 626 916 c 0
 732 916 837 881 889 828 c 0
 984 732 1028 622 1028 491 c 0
 1028 356 992 226 926 135 c 0
 847 27 739 -16 608 -16 c 0
 542 -16 436 14 344 71 c 1
 338 67 l 1
 338 -390 l 2
 338 -423 354 -440 388 -440 c 2
 496 -440 l 1
 496 -500 l 1
 480 -500 326 -496 268 -496 c 0
 210 -496 56 -500 40 -500 c 1
 40 -440 l 1
338 136 m 1
 414 83 509 50 576 50 c 0
 655 50 734 81 778 141 c 0
 838 220 858 335 858 418 c 0
 858 510 857 616 791 713 c 0
 732 799 660 824 578 824 c 0
 504 824 426 793 338 714 c 1
 338 136 l 1
EndSplineSet
Layer: 2
SplineSet
40 -440 m 1,0,-1
 148 -440 l 2,1,2
 198 -440 198 -440 198 -390 c 2,3,-1
 198 695 l 2,4,5
 198 761 198 761 134 768 c 2,6,-1
 40 778 l 1,7,-1
 40 822 l 1,8,-1
 306 910 l 1,9,-1
 338 910 l 1,10,-1
 338 796 l 1,11,-1
 346 791 l 1,12,13
 501 916 501 916 626 916 c 0,14,15
 706 916 706 916 778 892 c 128,-1,16
 850 868 850 868 889 828 c 0,17,18
 1028 688 1028 688 1028 491 c 0,19,20
 1028 276 1028 276 926 135 c 0,21,22
 816 -16 816 -16 608 -16 c 0,23,24
 556 -16 556 -16 483 7 c 128,-1,25
 410 30 410 30 344 71 c 1,26,-1
 338 67 l 1,27,-1
 338 -390 l 2,28,29
 338 -440 338 -440 388 -440 c 2,30,-1
 496 -440 l 1,31,-1
 496 -500 l 1,32,33
 493 -500 493 -500 397.5 -498 c 128,-1,34
 302 -496 302 -496 268 -496 c 128,-1,35
 234 -496 234 -496 138.5 -498 c 128,-1,36
 43 -500 43 -500 40 -500 c 1,37,-1
 40 -440 l 1,0,-1
338 136 m 1,38,39
 394 97 394 97 459.5 73.5 c 128,-1,40
 525 50 525 50 576 50 c 0,41,42
 637 50 637 50 691.5 73.5 c 128,-1,43
 746 97 746 97 778 141 c 0,44,45
 819 196 819 196 838.5 271.5 c 128,-1,46
 858 347 858 347 858 418 c 0,47,48
 858 479 858 479 855.5 516.5 c 128,-1,49
 853 554 853 554 837.5 611 c 128,-1,50
 822 668 822 668 791 713 c 0,51,52
 715 824 715 824 578 824 c 0,53,54
 461 824 461 824 338 714 c 1,55,-1
 338 136 l 1,38,39
EndSplineSet
EndChar

StartChar: q
Encoding: 113 113 81
Width: 1084
VWidth: 2079
Flags: W
HStem: -496 56<616 770.576 917.424 1072> -16 92<383.494 642.206> 850 66<403.599 655.59>
VStem: 84 170<227.883 658.618> 774 140<-439.801 100 149.433 791.617>
AnchorPoint: "Top" 526 1000 basechar 0
AnchorPoint: "Acute" 526 980 basechar 0
AnchorPoint: "Grave" 526 980 basechar 0
AnchorPoint: "Dotaccent" 526 1020 basechar 0
AnchorPoint: "Bottom" 539 0 basechar 0
AnchorPoint: "DotBelow" 380 -20 basechar 0
LayerCount: 3
Fore
SplineSet
84 409 m 0
 84 544 120 674 186 765 c 0
 265 873 373 916 504 916 c 0
 569 916 644 889 672 877 c 0
 698 865 723 854 744 854 c 0
 786 854 818 867 841 904 c 1
 914 904 l 1
 914 -390 l 2
 914 -423 930 -440 964 -440 c 2
 1072 -440 l 1
 1072 -500 l 1
 1056 -500 902 -496 844 -496 c 0
 786 -496 632 -500 616 -500 c 1
 616 -440 l 1
 724 -440 l 2
 758 -440 774 -423 774 -390 c 2
 774 100 l 1
 764 107 l 1
 686 44 576 -16 486 -16 c 0
 380 -16 275 19 223 72 c 0
 128 168 84 278 84 409 c 0
254 482 m 0
 254 390 255 284 321 187 c 0
 380 101 452 76 534 76 c 0
 608 76 686 107 774 186 c 1
 774 764 l 1
 698 817 603 850 536 850 c 0
 457 850 378 819 334 759 c 0
 274 680 254 565 254 482 c 0
EndSplineSet
Layer: 2
SplineSet
84 409 m 0,0,1
 84 624 84 624 186 765 c 0,2,3
 296 916 296 916 504 916 c 0,4,5
 581 916 581 916 672 877 c 1,6,7
 722 854 722 854 744 854 c 0,8,9
 810 854 810 854 841 904 c 1,10,-1
 914 904 l 1,11,-1
 914 -390 l 2,12,13
 914 -440 914 -440 964 -440 c 2,14,-1
 1072 -440 l 1,15,-1
 1072 -500 l 1,16,17
 1069 -500 1069 -500 973.5 -498 c 128,-1,18
 878 -496 878 -496 844 -496 c 128,-1,19
 810 -496 810 -496 714.5 -498 c 128,-1,20
 619 -500 619 -500 616 -500 c 1,21,-1
 616 -440 l 1,22,-1
 724 -440 l 2,23,24
 774 -440 774 -440 774 -390 c 2,25,-1
 774 100 l 1,26,-1
 764 107 l 1,27,28
 699 55 699 55 624 19.5 c 128,-1,29
 549 -16 549 -16 486 -16 c 0,30,31
 406 -16 406 -16 334 8 c 128,-1,32
 262 32 262 32 223 72 c 0,33,34
 84 212 84 212 84 409 c 0,0,1
254 482 m 0,35,36
 254 421 254 421 256.5 383.5 c 128,-1,37
 259 346 259 346 274.5 289 c 128,-1,38
 290 232 290 232 321 187 c 0,39,40
 397 76 397 76 534 76 c 0,41,42
 651 76 651 76 774 186 c 1,43,-1
 774 764 l 1,44,45
 718 803 718 803 652.5 826.5 c 128,-1,46
 587 850 587 850 536 850 c 0,47,48
 475 850 475 850 420.5 826.5 c 128,-1,49
 366 803 366 803 334 759 c 0,50,51
 293 704 293 704 273.5 628.5 c 128,-1,52
 254 553 254 553 254 482 c 0,35,36
EndSplineSet
EndChar

StartChar: r
Encoding: 114 114 82
Width: 850
VWidth: 2079
Flags: W
HStem: -2 60<74 229.338 374.662 530> 758 158<561.112 734.911>
VStem: 232 140<58.199 673.026 709 764.137>
AnchorPoint: "DotBelow" 304 -20 basechar 0
AnchorPoint: "Bottom" 304 0 basechar 0
AnchorPoint: "Top" 456 1000 basechar 0
AnchorPoint: "Acute" 456 980 basechar 0
AnchorPoint: "Grave" 456 980 basechar 0
AnchorPoint: "Dotaccent" 456 1020 basechar 0
LayerCount: 3
Fore
SplineSet
74 -2 m 1
 74 58 l 1
 182 58 l 2
 216 58 232 75 232 108 c 2
 232 695 l 2
 232 737 216 763 168 768 c 2
 74 778 l 1
 74 822 l 1
 340 910 l 1
 372 910 l 1
 372 709 l 1
 382 703 l 1
 419 750 450 784 500 827 c 0
 563 881 631 916 696 916 c 0
 765 916 798 866 798 821 c 0
 798 764 760 721 688 721 c 0
 669 721 648 729 625 741 c 0
 607 752 586 758 565 758 c 0
 500 758 419 681 372 627 c 1
 372 108 l 2
 372 75 388 58 422 58 c 2
 530 58 l 1
 530 -2 l 1
 514 -2 360 2 302 2 c 0
 244 2 90 -2 74 -2 c 1
EndSplineSet
Layer: 2
SplineSet
74 -2 m 1,0,-1
 74 58 l 1,1,-1
 182 58 l 2,2,3
 232 58 232 58 232 108 c 2,4,-1
 232 695 l 2,5,6
 232 761.191 232 761.191 168 768 c 2,7,-1
 74 778 l 1,8,-1
 74 822 l 1,9,-1
 340 910 l 1,10,-1
 372 910 l 1,11,-1
 372 709 l 1,12,-1
 382 703 l 1,13,14
 437 773 437 773 500 827 c 0,15,16
 604 916 604 916 696 916 c 0,17,18
 744 916 744 916 771 887 c 128,-1,19
 798 858 798 858 798 821 c 0,20,21
 798 777 798 777 769 749 c 128,-1,22
 740 721 740 721 688 721 c 0,23,24
 663 721 663 721 625 741 c 1,25,26
 597 758 597 758 565 758 c 0,27,28
 486 758 486 758 372 627 c 1,29,-1
 372 108 l 2,30,31
 372 58 372 58 422 58 c 2,32,-1
 530 58 l 1,33,-1
 530 -2 l 1,34,35
 527 -2 527 -2 431.5 0 c 128,-1,36
 336 2 336 2 302 2 c 128,-1,37
 268 2 268 2 172.5 0 c 128,-1,38
 77 -2 77 -2 74 -2 c 1,0,-1
EndSplineSet
EndChar

StartChar: s
Encoding: 115 115 83
Width: 838
VWidth: 2079
Flags: W
HStem: -16 58<298.185 556.725> 858 58<275.772 526.986>
VStem: 76 41<210.038 228.343> 122 92<627.713 815.898> 634 132<107.71 320.797> 679 41<674.804 699.676>
AnchorPoint: "DotBelow" 436 -20 basechar 0
AnchorPoint: "Bottom" 436 0 basechar 0
AnchorPoint: "Top" 424 1000 basechar 0
AnchorPoint: "Acute" 424 980 basechar 0
AnchorPoint: "Grave" 424 980 basechar 0
AnchorPoint: "Dotaccent" 424 1020 basechar 0
LayerCount: 3
Fore
SplineSet
76 221 m 25xf8
 117 242 l 17
 142 201 167 163 205 132 c 0
 261 84 334 42 425 42 c 0
 569 42 634 107 634 213 c 0xf8
 634 317 569 357 413 405 c 0
 257 452 122 504 122 683 c 0
 122 837 250 916 388 916 c 0
 433 916 479 910 510 895 c 0
 535 885 567 875 585 875 c 0
 621 875 635 895 641 916 c 9
 687 916 l 25
 720 679 l 25
 679 667 l 17xf4
 660 700 631 748 592 785 c 0
 535 837 469 858 388 858 c 0
 294 858 214 810 214 725 c 0
 214 608 361 561 475 525 c 0
 656 469 766 400 766 249 c 0
 766 86 625 -16 442 -16 c 0
 396 -16 342 -7 300 9 c 0
 255 28 246 30 217 30 c 0
 192 30 173 11 167 -16 c 9
 121 -16 l 25
 76 221 l 25xf8
EndSplineSet
Layer: 2
SplineSet
76 221 m 1,0,-1
 117 242 l 1,1,2
 163 166 163 166 205 132 c 1,3,4
 310 42 310 42 425 42 c 0,5,6
 530 42 530 42 582 86.5 c 128,-1,7
 634 131 634 131 634 213 c 0,8,9
 634 288 634 288 585 327.5 c 128,-1,10
 536 367 536 367 413 405 c 0,11,12
 357 422 357 422 321.5 435 c 128,-1,13
 286 448 286 448 244 471.5 c 128,-1,14
 202 495 202 495 178.5 521.5 c 128,-1,15
 155 548 155 548 138.5 589.5 c 128,-1,16
 122 631 122 631 122 683 c 0,17,18
 122 793 122 793 199.5 854.5 c 128,-1,19
 277 916 277 916 388 916 c 0,20,21
 467 916 467 916 510 895 c 1,22,23
 560 875 560 875 585 875 c 0,24,25
 629 875 629 875 641 916 c 1,26,-1
 687 916 l 1,27,-1
 720 679 l 1,28,-1
 679 667 l 1,29,30
 634 745 634 745 592 785 c 1,31,32
 512 858 512 858 388 858 c 0,33,34
 314 858 314 858 264 822 c 128,-1,35
 214 786 214 786 214 725 c 0,36,37
 214 691 214 691 231.5 662 c 128,-1,38
 249 633 249 633 271.5 614.5 c 128,-1,39
 294 596 294 596 335.5 577 c 128,-1,40
 377 558 377 558 403 549 c 128,-1,41
 429 540 429 540 475 525 c 0,42,43
 622 479 622 479 694 417.5 c 128,-1,44
 766 356 766 356 766 249 c 0,45,46
 766 129 766 129 674 56.5 c 128,-1,47
 582 -16 582 -16 442 -16 c 0,48,49
 366 -16 366 -16 300 9 c 1,50,51
 250 30 250 30 217 30 c 0,52,53
 199 30 199 30 185.5 17.5 c 128,-1,54
 172 5 172 5 167 -16 c 1,55,-1
 121 -16 l 1,56,-1
 76 221 l 1,0,-1
EndSplineSet
AlternateSubs2: "'aalt' Access All Alternates-1" longs
Substitution2: "'ss05' Historical Forms-1" longs
EndChar

StartChar: t
Encoding: 116 116 84
Width: 740
VWidth: 2079
Flags: W
HStem: -16 92<378.089 576.199> 836 64<48 144.934 346 617.952>
VStem: 206 140<105.433 836> 274 72<1045.18 1265>
AnchorPoint: "Top" 310 1376 basechar 0
AnchorPoint: "Dotaccent" 310 1396 basechar 0
AnchorPoint: "Acute" 310 1356 basechar 0
AnchorPoint: "Grave" 310 1356 basechar 0
AnchorPoint: "DotBelow" 398 -20 basechar 0
AnchorPoint: "Bottom" 398 0 basechar 0
LayerCount: 3
Fore
SplineSet
48 836 m 1xe0
 48 900 l 1
 236 916 274 1097 274 1265 c 1
 346 1265 l 1
 346 900 l 1xd0
 622 900 l 1
 622 900 622 853 614 836 c 1
 346 836 l 1
 346 246 l 2
 346 130 389 76 474 76 c 0
 562 76 612 149 639 201 c 1
 676 176 l 1
 655 122 622 72 591 41 c 0
 551 3 502 -16 437 -16 c 0
 294 -16 206 90 206 224 c 2
 206 836 l 17
 48 836 l 1xe0
EndSplineSet
Layer: 2
SplineSet
48 836 m 1,0,-1
 48 900 l 1,1,2
 274 919 274 919 274 1265 c 1,3,-1
 346 1265 l 1,4,-1
 346 900 l 1,5,-1
 622 900 l 1,6,7
 622 853 622 853 614 836 c 1,8,-1
 346 836 l 1,9,-1
 346 246 l 2,10,11
 346 76 346 76 474 76 c 0,12,13
 574 76 574 76 639 201 c 1,14,-1
 676 176 l 1,15,16
 644 94 644 94 591 41 c 1,17,18
 531 -16 531 -16 437 -16 c 0,19,20
 332 -16 332 -16 269 52.5 c 128,-1,21
 206 121 206 121 206 224 c 2,22,-1
 206 836 l 1,23,-1
 48 836 l 1,0,-1
EndSplineSet
EndChar

StartChar: u
Encoding: 117 117 85
Width: 1060
VWidth: 2079
Flags: W
HStem: -18 92<370.504 586.506> 8 58<890.587 1006> 834 58<44 159.413 598 713.413> 888 20G<44 318 598 872>
VStem: 178 140<127.289 821.674> 732 140<78.3264 122 156.932 821.674>
AnchorPoint: "DotBelow" 560 -20 basechar 0
AnchorPoint: "Bottom" 560 0 basechar 0
AnchorPoint: "Top" 512 1000 basechar 0
AnchorPoint: "Acute" 512 980 basechar 0
AnchorPoint: "Grave" 512 980 basechar 0
AnchorPoint: "Dotaccent" 512 1020 basechar 0
LayerCount: 3
Fore
SplineSet
44 834 m 1xac
 44 892 l 1xac
 318 908 l 1x1c
 318 291 l 2
 318 226 322 159 372 117 c 0
 408 87 440 74 506 74 c 0
 571 74 652 124 732 194 c 1
 732 751 l 2
 732 811 694 834 598 834 c 1
 598 892 l 1xac
 872 908 l 1
 872 149 l 2
 872 89 910 66 1006 66 c 1
 1006 8 l 1x5c
 732 -8 l 1
 732 122 l 1
 726 128 l 1
 653 61 542 -18 440 -18 c 0
 354 -18 300 -2 257 43 c 0
 192 109 178 193 178 258 c 2
 178 751 l 2
 178 811 140 834 44 834 c 1xac
EndSplineSet
Layer: 2
SplineSet
44 834 m 1,0,-1
 44 892 l 1,1,-1
 318 908 l 1,2,-1
 318 291 l 2,3,4
 318 230 318 230 328 187.5 c 128,-1,5
 338 145 338 145 372 117 c 0,6,7
 400 94 400 94 429 84 c 128,-1,8
 458 74 458 74 506 74 c 0,9,10
 595 74 595 74 732 194 c 1,11,-1
 732 751 l 2,12,13
 732 796 732 796 701 815 c 128,-1,14
 670 834 670 834 598 834 c 1,15,-1
 598 892 l 1,16,-1
 872 908 l 1,17,-1
 872 149 l 2,18,19
 872 104 872 104 903 85 c 128,-1,20
 934 66 934 66 1006 66 c 1,21,-1
 1006 8 l 1,22,-1
 732 -8 l 1,23,-1
 732 122 l 1,24,-1
 726 128 l 1,25,26
 567 -18 567 -18 440 -18 c 0,27,28
 315 -18 315 -18 257 43 c 1,29,30
 178 123 178 123 178 258 c 2,31,-1
 178 751 l 2,32,33
 178 796 178 796 147 815 c 128,-1,34
 116 834 116 834 44 834 c 1,0,-1
EndSplineSet
EndChar

StartChar: v
Encoding: 118 118 86
Width: 1072
Flags: W
HStem: -8 21G<493.384 570.982> 842 60<16 124.809 324.264 440 696 804.654 942.84 1040>
DStem2: 570 168 197 700 0.395641 -0.918405<-679.275 0> 570 168 562 -8 0.409696 0.912222<0 653.902>
AnchorPoint: "Bottom" 536 0 basechar 0
AnchorPoint: "DotBelow" 536 -20 basechar 0
AnchorPoint: "Top" 562 1000 basechar 0
AnchorPoint: "Acute" 562 980 basechar 0
AnchorPoint: "Grave" 562 980 basechar 0
AnchorPoint: "Dotaccent" 562 1020 basechar 0
LayerCount: 3
Fore
SplineSet
16 842 m 9
 16 902 l 17
 40 902 160 898 224 898 c 0
 288 898 416 902 440 902 c 9
 440 842 l 25
 381 842 l 18
 355 842 322 826 322 802 c 0
 322 776 326 761 336 738 c 10
 570 168 l 17
 782 650 l 18
 798 687 816 741 816 776 c 0
 816 807 792 842 752 842 c 10
 696 842 l 25
 696 902 l 17
 712 902 820 898 868 898 c 0
 916 898 1024 902 1040 902 c 9
 1040 842 l 25
 998 842 l 18
 982 842 960 832 944 814 c 0
 919 784 910 767 893 729 c 10
 562 -8 l 25
 502 -8 l 25
 197 700 l 18
 177 747 160 785 130 809 c 0
 93 839 58 842 16 842 c 9
EndSplineSet
Layer: 2
SplineSet
16 842 m 1,0,-1
 16 902 l 1,1,2
 23 902 23 902 105 900 c 128,-1,3
 187 898 187 898 224 898 c 128,-1,4
 261 898 261 898 347 900 c 128,-1,5
 433 902 433 902 440 902 c 1,6,-1
 440 842 l 1,7,-1
 381 842 l 2,8,9
 360 842 360 842 341 830.5 c 128,-1,10
 322 819 322 819 322 802 c 0,11,12
 322 770 322 770 336 738 c 2,13,-1
 570 168 l 1,14,-1
 782 650 l 2,15,16
 816 729 816 729 816 776 c 0,17,18
 816 801 816 801 798 821.5 c 128,-1,19
 780 842 780 842 752 842 c 2,20,-1
 696 842 l 1,21,-1
 696 902 l 1,22,23
 700 902 700 902 770 900 c 128,-1,24
 840 898 840 898 868 898 c 128,-1,25
 896 898 896 898 966 900 c 128,-1,26
 1036 902 1036 902 1040 902 c 1,27,-1
 1040 842 l 1,28,-1
 998 842 l 2,29,30
 969 842 969 842 944 814 c 1,31,32
 916 780 916 780 893 729 c 2,33,-1
 562 -8 l 1,34,-1
 502 -8 l 1,35,-1
 197 700 l 2,36,37
 161 784 161 784 130 809 c 0,38,39
 89 842 89 842 16 842 c 1,0,-1
EndSplineSet
EndChar

StartChar: w
Encoding: 119 119 87
Width: 1494
Flags: W
HStem: -8 21G<442.91 518.088 950.927 1026.06> 842 60<16 124.809 323.74 432 532 639.242 831.871 948 1118 1228.48 1364.79 1462>
DStem2: 335 738 199 700 0.334143 -0.942522<-63.5238 577.222> 528 194 510 -8 0.374904 0.927064<0 443.482> 844 738 707 700 0.334143 -0.942522<-63.8573 22.9321 114.347 575.945> 1036 195 1018 -8 0.373776 0.927519<0 611.245>
AnchorPoint: "DotBelow" 742 -20 basechar 0
AnchorPoint: "Bottom" 742 0 basechar 0
AnchorPoint: "Top" 742 1000 basechar 0
AnchorPoint: "Acute" 742 980 basechar 0
AnchorPoint: "Grave" 742 980 basechar 0
AnchorPoint: "Dotaccent" 742 1020 basechar 0
LayerCount: 3
Fore
SplineSet
16 842 m 1
 16 902 l 1
 40 902 156 898 220 898 c 0
 284 898 408 902 432 902 c 1
 432 842 l 1
 373 842 l 2
 347 842 322 826 322 802 c 0
 322 776 326 762 335 738 c 2
 528 194 l 17
 718 669 l 1
 707 700 l 2
 690 747 678 777 654 800 c 0
 616 836 566 842 532 842 c 1
 532 902 l 1
 556 902 676 898 740 898 c 0
 804 898 924 902 948 902 c 1
 948 842 l 1
 883 842 l 2
 857 842 830 826 830 802 c 0
 830 776 834 761 844 738 c 2
 1036 195 l 17
 1229 677 l 2
 1240 704 1242 730 1242 773 c 0
 1242 810 1210 842 1165 842 c 2
 1118 842 l 1
 1118 902 l 1
 1134 902 1242 898 1290 898 c 0
 1338 898 1446 902 1462 902 c 1
 1462 842 l 1
 1430 842 l 2
 1414 842 1384 834 1366 814 c 0
 1340 785 1330 766 1315 729 c 2
 1018 -8 l 1
 958 -8 l 1
 749 583 l 1
 510 -8 l 1
 450 -8 l 1
 199 700 l 2
 182 749 160 785 130 809 c 0
 93 839 58 842 16 842 c 1
EndSplineSet
Layer: 2
SplineSet
16 842 m 1,0,-1
 16 902 l 1,1,2
 23 902 23 902 103 900 c 128,-1,3
 183 898 183 898 220 898 c 128,-1,4
 257 898 257 898 341 900 c 128,-1,5
 425 902 425 902 432 902 c 1,6,-1
 432 842 l 1,7,-1
 373 842 l 2,8,9
 353 842 353 842 337.5 830.5 c 128,-1,10
 322 819 322 819 322 802 c 0,11,12
 322 773 322 773 335 738 c 2,13,-1
 528 194 l 1,14,-1
 718 669 l 1,15,-1
 707 700 l 2,16,17
 680 775 680 775 654 800 c 0,18,19
 610 842 610 842 532 842 c 1,20,-1
 532 902 l 1,21,22
 539 902 539 902 621 900 c 128,-1,23
 703 898 703 898 740 898 c 128,-1,24
 777 898 777 898 859 900 c 128,-1,25
 941 902 941 902 948 902 c 1,26,-1
 948 842 l 1,27,-1
 883 842 l 2,28,29
 862 842 862 842 846 830.5 c 128,-1,30
 830 819 830 819 830 802 c 0,31,32
 830 770 830 770 844 738 c 1,33,-1
 1036 195 l 1,34,-1
 1229 677 l 2,35,36
 1242 709 1242 709 1242 773 c 0,37,38
 1242 801 1242 801 1220 821.5 c 128,-1,39
 1198 842 1198 842 1165 842 c 2,40,-1
 1118 842 l 1,41,-1
 1118 902 l 1,42,43
 1122 902 1122 902 1192 900 c 128,-1,44
 1262 898 1262 898 1290 898 c 128,-1,45
 1318 898 1318 898 1388 900 c 128,-1,46
 1458 902 1458 902 1462 902 c 1,47,-1
 1462 842 l 1,48,-1
 1430 842 l 2,49,50
 1391 842 1391 842 1366 814 c 0,51,52
 1336 780 1336 780 1315 729 c 2,53,-1
 1018 -8 l 1,54,-1
 958 -8 l 1,55,-1
 749 583 l 1,56,-1
 510 -8 l 1,57,-1
 450 -8 l 1,58,-1
 199 700 l 2,59,60
 173 774 173 774 130 809 c 0,61,62
 89 842 89 842 16 842 c 1,0,-1
EndSplineSet
EndChar

StartChar: x
Encoding: 120 120 88
Width: 1212
Flags: W
HStem: -2 60<68 158.637 365.579 481 698 799.698 1050.98 1144> 842 60<98 186.263 451.658 544 752 840.641 1065.4 1152>
DStem2: 298 192 391 189 0.717819 0.69623<-8.21148 344.715 479.578 801.341> 647 521 341 672 0.657012 -0.75388<-335.877 0 67.1458 417.302>
AnchorPoint: "Top" 632 1000 basechar 0
AnchorPoint: "Acute" 632 980 basechar 0
AnchorPoint: "Grave" 632 980 basechar 0
AnchorPoint: "Dotaccent" 632 1020 basechar 0
AnchorPoint: "DotBelow" 592 -20 basechar 0
AnchorPoint: "Bottom" 592 0 basechar 0
LayerCount: 3
Fore
SplineSet
68 -2 m 1
 68 58 l 1
 113 65 130 71 165 91 c 0
 221 124 250 146 298 192 c 2
 551 431 l 1
 341 672 l 2
 296 724 252 770 215 795 c 0
 180 819 141 836 98 842 c 1
 98 902 l 1
 130 902 257 898 321 898 c 0
 385 898 512 902 544 902 c 1
 544 842 l 1
 501 842 l 2
 472 842 446 817 446 793 c 0
 446 758 460 734 481 711 c 2
 647 521 l 1
 823 687 l 2
 848 710 863 729 863 762 c 0
 863 793 849 809 824 824 c 0
 804 836 776 842 752 842 c 1
 752 902 l 1
 768 902 904 898 952 898 c 0
 1000 898 1136 902 1152 902 c 1
 1152 842 l 1
 1106 831 1082 824 1040 797 c 0
 994 768 964 744 923 705 c 2
 686 475 l 1
 949 174 l 2
 976 143 1008 116 1028 102 c 0
 1066 75 1102 62 1144 58 c 1
 1144 -2 l 1
 1112 -2 985 2 921 2 c 0
 857 2 730 -2 698 -2 c 1
 698 58 l 1
 751 58 l 2
 783 58 802 77 802 101 c 0
 802 134 792 155 770 180 c 2
 592 384 l 1
 391 189 l 2
 369 167 356 149 356 119 c 0
 356 86 386 58 420 58 c 2
 481 58 l 1
 481 -2 l 1
 449 -2 323 2 275 2 c 0
 227 2 100 -2 68 -2 c 1
EndSplineSet
Layer: 2
SplineSet
68 -2 m 1,0,-1
 68 58 l 1,1,2
 122 66 122 66 165 91 c 0,3,4
 237 133 237 133 298 192 c 2,5,-1
 551 431 l 1,6,-1
 341 672 l 2,7,8
 262 763 262 763 215 795 c 0,9,10
 159 834 159 834 98 842 c 1,11,-1
 98 902 l 1,12,13
 110 902 110 902 197.5 900 c 128,-1,14
 285 898 285 898 321 898 c 128,-1,15
 357 898 357 898 444.5 900 c 128,-1,16
 532 902 532 902 544 902 c 1,17,-1
 544 842 l 1,18,-1
 501 842 l 2,19,20
 480 842 480 842 463 826.5 c 128,-1,21
 446 811 446 811 446 793 c 0,22,23
 446 749 446 749 481 711 c 1,24,-1
 647 521 l 1,25,-1
 823 687 l 2,26,27
 863 724 863 724 863 762 c 0,28,29
 863 801 863 801 824 824 c 0,30,31
 794 842 794 842 752 842 c 1,32,-1
 752 902 l 1,33,34
 756 902 756 902 840 900 c 128,-1,35
 924 898 924 898 952 898 c 128,-1,36
 980 898 980 898 1064 900 c 128,-1,37
 1148 902 1148 902 1152 902 c 1,38,-1
 1152 842 l 1,39,40
 1085 826 1085 826 1040 797 c 0,41,42
 980 759 980 759 923 705 c 2,43,-1
 686 475 l 1,44,-1
 949 174 l 2,45,46
 986 131 986 131 1028 102 c 0,47,48
 1082 64 1082 64 1144 58 c 1,49,-1
 1144 -2 l 1,50,51
 1132 -2 1132 -2 1044.5 0 c 128,-1,52
 957 2 957 2 921 2 c 128,-1,53
 885 2 885 2 797.5 0 c 128,-1,54
 710 -2 710 -2 698 -2 c 1,55,-1
 698 58 l 1,56,-1
 751 58 l 2,57,58
 774 58 774 58 788 70 c 128,-1,59
 802 82 802 82 802 101 c 0,60,61
 802 144 802 144 770 180 c 2,62,-1
 592 384 l 1,63,-1
 391 189 l 2,64,65
 356 154 356 154 356 119 c 0,66,67
 356 94 356 94 375 76 c 128,-1,68
 394 58 394 58 420 58 c 2,69,-1
 481 58 l 1,70,-1
 481 -2 l 1,71,72
 467 -2 467 -2 384 0 c 128,-1,73
 301 2 301 2 275 2 c 128,-1,74
 249 2 249 2 165.5 0 c 128,-1,75
 82 -2 82 -2 68 -2 c 1,0,-1
EndSplineSet
EndChar

StartChar: y
Encoding: 121 121 89
Width: 1102
Flags: W
HStem: -516 170<68.2952 268.534> 842 60<24 132.809 332.264 448 725 832.635 981.838 1078>
DStem2: 576 174 205 700 0.39343 -0.919355<-673.024 0> 390 -193 453 -236 0.442374 0.89683<-171.366 237.917 411.418 1063.68>
AnchorPoint: "DotBelow" 812 -20 basechar 0
AnchorPoint: "Top" 568 1000 basechar 0
AnchorPoint: "Acute" 568 980 basechar 0
AnchorPoint: "Grave" 568 980 basechar 0
AnchorPoint: "Dotaccent" 568 1020 basechar 0
LayerCount: 3
Fore
SplineSet
8 -406 m 0
 8 -339 60 -307 107 -307 c 0
 127 -307 154 -315 174 -327 c 0
 188 -335 210 -346 235 -346 c 0
 290 -346 348 -276 390 -193 c 10
 496 20 l 25
 205 700 l 26
 185 746 168 785 138 809 c 0
 101 839 66 842 24 842 c 9
 24 902 l 17
 48 902 168 898 232 898 c 0
 296 898 424 902 448 902 c 9
 448 842 l 25
 389 842 l 18
 363 842 330 826 330 802 c 0
 330 776 334 761 344 738 c 10
 576 174 l 17
 807 649 l 18
 825 686 846 730 846 770 c 0
 846 805 819 842 779 842 c 10
 725 842 l 25
 725 902 l 17
 741 902 856 898 904 898 c 0
 952 898 1062 902 1078 902 c 9
 1078 842 l 25
 1038 842 l 18
 1022 842 999 832 983 814 c 0
 958 784 946 765 929 729 c 10
 453 -236 l 18
 425 -292 371 -381 320 -431 c 0
 270 -480 202 -516 132 -516 c 0
 68 -516 8 -480 8 -406 c 0
EndSplineSet
Layer: 2
SplineSet
8 -406 m 0,0,1
 8 -359 8 -359 38 -333 c 128,-1,2
 68 -307 68 -307 107 -307 c 0,3,4
 141 -307 141 -307 174 -327 c 0,5,6
 207 -346 207 -346 235 -346 c 0,7,8
 274 -346 274 -346 315 -303 c 128,-1,9
 356 -260 356 -260 390 -193 c 2,10,-1
 496 20 l 1,11,-1
 205 700 l 2,12,13
 168 785 168 785 138 809 c 0,14,15
 97 842 97 842 24 842 c 1,16,-1
 24 902 l 1,17,18
 31 902 31 902 113 900 c 128,-1,19
 195 898 195 898 232 898 c 128,-1,20
 269 898 269 898 355 900 c 128,-1,21
 441 902 441 902 448 902 c 1,22,-1
 448 842 l 1,23,-1
 389 842 l 2,24,25
 368 842 368 842 349 830.5 c 128,-1,26
 330 819 330 819 330 802 c 0,27,28
 330 770 330 770 344 738 c 2,29,-1
 576 174 l 1,30,-1
 807 649 l 2,31,32
 846 729 846 729 846 770 c 0,33,34
 846 798 846 798 827 820 c 128,-1,35
 808 842 808 842 779 842 c 2,36,-1
 725 842 l 1,37,-1
 725 902 l 1,38,39
 729 902 729 902 802.5 900 c 128,-1,40
 876 898 876 898 904 898 c 128,-1,41
 932 898 932 898 1003 900 c 128,-1,42
 1074 902 1074 902 1078 902 c 1,43,-1
 1078 842 l 1,44,-1
 1038 842 l 2,45,46
 1008 842 1008 842 983 814 c 1,47,48
 951 776 951 776 929 729 c 1,49,-1
 453 -236 l 2,50,51
 390 -363 390 -363 320 -431 c 0,52,53
 233 -516 233 -516 132 -516 c 0,54,55
 80 -516 80 -516 44 -487.5 c 128,-1,56
 8 -459 8 -459 8 -406 c 0,0,1
EndSplineSet
EndChar

StartChar: z
Encoding: 122 122 90
Width: 906
Flags: W
HStem: 0 58<257 647.469> 842 58<344.74 646>
VStem: 790 48<226.483 262.285>
DStem2: 72 40 257 58 0.582675 0.812705<122.424 986.245>
AnchorPoint: "DotBelow" 424 -20 basechar 0
AnchorPoint: "Bottom" 424 0 basechar 0
AnchorPoint: "Top" 512 1000 basechar 0
AnchorPoint: "Acute" 512 980 basechar 0
AnchorPoint: "Grave" 512 980 basechar 0
AnchorPoint: "Dotaccent" 512 1020 basechar 0
LayerCount: 3
Fore
SplineSet
72 0 m 25
 72 40 l 25
 646 842 l 25
 456 842 l 26
 378 842 314 801 272 763 c 0
 215 712 172 651 146 609 c 9
 97 630 l 25
 213 900 l 25
 832 900 l 25
 832 860 l 25
 257 58 l 25
 537 58 l 26
 609 58 663 85 705 135 c 0
 743 180 765 222 790 270 c 9
 838 259 l 25
 784 0 l 25
 72 0 l 25
EndSplineSet
Layer: 2
SplineSet
72 0 m 1,0,-1
 72 40 l 1,1,-1
 646 842 l 1,2,-1
 456 842 l 2,3,4
 359 842 359 842 272 763 c 0,5,6
 203 701 203 701 146 609 c 1,7,-1
 97 630 l 1,8,-1
 213 900 l 1,9,-1
 832 900 l 1,10,-1
 832 860 l 1,11,-1
 257 58 l 1,12,-1
 537 58 l 2,13,14
 640 58 640 58 705 135 c 0,15,16
 743 180 743 180 790 270 c 1,17,-1
 838 259 l 1,18,-1
 784 0 l 1,19,-1
 72 0 l 1,0,-1
EndSplineSet
EndChar

StartChar: braceleft
Encoding: 123 123 91
Width: 780
VWidth: 1000
Flags: W
HStem: -560 54<583.421 684.655> 442 44<182 303.451> 1434 54<583.421 684.655>
VStem: 336 132<-410.17 -74.0754 1001.58 1337.76> 415 132<-33.9206 326.637 601.032 961.421>
CounterMasks: 1 e0
LayerCount: 3
Fore
SplineSet
182 442 m 9xe8
 182 486 l 17
 323 486 415 549 415 709 c 0xe8
 415 781 397 855 377 934 c 0
 356 1018 336 1105 336 1185 c 0
 336 1369 480 1464 682 1488 c 9
 692 1434 l 17
 562 1412 468 1375 468 1263 c 0xf0
 468 1183 485 1107 506 1027 c 0
 526 951 547 866 547 792 c 0
 547 588 442 494 320 466 c 1
 320 462 l 1
 442 434 547 339 547 135 c 0xe8
 547 61 526 -24 506 -100 c 0
 485 -180 468 -256 468 -336 c 0
 468 -448 562 -484 692 -506 c 9
 682 -560 l 17
 480 -536 336 -441 336 -257 c 0xf0
 336 -177 356 -90 377 -6 c 0
 397 73 415 147 415 219 c 0
 415 379 323 442 182 442 c 9xe8
EndSplineSet
Layer: 2
SplineSet
182 442 m 1,0,-1
 182 486 l 1,1,2
 415 486 415 486 415 709 c 0,3,4
 415 784 415 784 377 934 c 0,5,6
 336 1098 336 1098 336 1185 c 0,7,8
 336 1318 336 1318 429.5 1393.5 c 128,-1,9
 523 1469 523 1469 682 1488 c 1,10,-1
 692 1434 l 1,11,12
 582 1415 582 1415 525 1378 c 128,-1,13
 468 1341 468 1341 468 1263 c 0,14,15
 468 1172 468 1172 506 1027 c 0,16,17
 547 871 547 871 547 792 c 0,18,19
 547 649 547 649 484 569 c 128,-1,20
 421 489 421 489 320 466 c 1,21,-1
 320 462 l 1,22,23
 421 439 421 439 484 358.5 c 128,-1,24
 547 278 547 278 547 135 c 0,25,26
 547 56 547 56 506 -100 c 0,27,28
 468 -245 468 -245 468 -336 c 0,29,30
 468 -414 468 -414 524.5 -450.5 c 128,-1,31
 581 -487 581 -487 692 -506 c 1,32,-1
 682 -560 l 1,33,34
 523 -541 523 -541 429.5 -465.5 c 128,-1,35
 336 -390 336 -390 336 -257 c 0,36,37
 336 -170 336 -170 377 -6 c 0,38,39
 415 144 415 144 415 219 c 0,40,41
 415 442 415 442 182 442 c 1,0,-1
EndSplineSet
EndChar

StartChar: bar
Encoding: 124 124 92
Width: 512
VWidth: 2078
Flags: W
HStem: -468 21G<202 310> 1440 20G<202 310>
VStem: 202 108<-468 1460>
LayerCount: 3
Fore
SplineSet
202 -468 m 1
 202 1460 l 1
 310 1460 l 1
 310 -468 l 1
 202 -468 l 1
EndSplineSet
Layer: 2
SplineSet
202 -468 m 1,0,-1
 202 1460 l 1,1,-1
 310 1460 l 1,2,-1
 310 -468 l 1,3,-1
 202 -468 l 1,0,-1
EndSplineSet
EndChar

StartChar: braceright
Encoding: 125 125 93
Width: 780
VWidth: 1000
Flags: W
HStem: -560 54<95.3452 196.579> 442 44<476.549 598> 1434 54<95.3452 196.579>
VStem: 233 132<-33.4206 326.968 601.363 961.921> 312 132<-409.757 -73.5754 1002.08 1338.17>
CounterMasks: 1 e0
LayerCount: 3
Fore
SplineSet
88 -506 m 17xe8
 218 -484 312 -447 312 -335 c 0xe8
 312 -255 295 -179 274 -99 c 0
 254 -23 233 62 233 136 c 0
 233 340 338 434 460 462 c 1
 460 466 l 1
 338 494 233 589 233 793 c 0xf0
 233 867 254 952 274 1028 c 0
 295 1108 312 1184 312 1264 c 0
 312 1376 218 1412 88 1434 c 9
 98 1488 l 17
 300 1464 444 1369 444 1185 c 0xe8
 444 1105 424 1018 403 934 c 0
 383 855 365 781 365 709 c 0
 365 549 457 486 598 486 c 9
 598 442 l 17
 457 442 365 379 365 219 c 0xf0
 365 147 383 73 403 -6 c 0
 424 -90 444 -177 444 -257 c 0
 444 -441 300 -536 98 -560 c 9
 88 -506 l 17xe8
EndSplineSet
Layer: 2
SplineSet
88 -506 m 1,0,1
 198 -487 198 -487 255 -450 c 128,-1,2
 312 -413 312 -413 312 -335 c 0,3,4
 312 -244 312 -244 274 -99 c 0,5,6
 233 57 233 57 233 136 c 0,7,8
 233 279 233 279 296 359 c 128,-1,9
 359 439 359 439 460 462 c 1,10,-1
 460 466 l 1,11,12
 359 489 359 489 296 569.5 c 128,-1,13
 233 650 233 650 233 793 c 0,14,15
 233 872 233 872 274 1028 c 0,16,17
 312 1173 312 1173 312 1264 c 0,18,19
 312 1342 312 1342 255.5 1378.5 c 128,-1,20
 199 1415 199 1415 88 1434 c 1,21,-1
 98 1488 l 1,22,23
 257 1469 257 1469 350.5 1393.5 c 128,-1,24
 444 1318 444 1318 444 1185 c 0,25,26
 444 1098 444 1098 403 934 c 0,27,28
 365 784 365 784 365 709 c 0,29,30
 365 486 365 486 598 486 c 1,31,-1
 598 442 l 1,32,33
 365 442 365 442 365 219 c 0,34,35
 365 144 365 144 403 -6 c 0,36,37
 444 -170 444 -170 444 -257 c 0,38,39
 444 -390 444 -390 350.5 -465.5 c 128,-1,40
 257 -541 257 -541 98 -560 c 1,41,-1
 88 -506 l 1,0,1
EndSplineSet
EndChar

StartChar: asciitilde
Encoding: 126 126 94
Width: 1152
VWidth: 2078
Flags: W
HStem: 430 108<654.647 885.75> 554 108<266.25 497.85>
LayerCount: 3
Fore
SplineSet
112 454 m 17
 182 566 276 662 420 662 c 0
 505 662 569 628 628 596 c 0
 684 566 737 538 802 538 c 0
 904 538 952 594 1004 666 c 9
 1040 638 l 17
 970 526 876 430 732 430 c 0
 648 430 584 463 524 496 c 0
 469 526 415 554 350 554 c 0
 248 554 200 498 148 426 c 9
 112 454 l 17
EndSplineSet
Layer: 2
SplineSet
112 454 m 1,0,1
 242 662 242 662 420 662 c 0,2,3
 460 662 460 662 500.5 651 c 128,-1,4
 541 640 541 640 565 628.5 c 128,-1,5
 589 617 589 617 628 596 c 0,6,7
 664 577 664 577 685 567 c 128,-1,8
 706 557 706 557 739 547.5 c 128,-1,9
 772 538 772 538 802 538 c 0,10,11
 871 538 871 538 914 569.5 c 128,-1,12
 957 601 957 601 1004 666 c 1,13,-1
 1040 638 l 1,14,15
 910 430 910 430 732 430 c 0,16,17
 676 430 676 430 629 447 c 128,-1,18
 582 464 582 464 524 496 c 0,19,20
 418 554 418 554 350 554 c 0,21,22
 281 554 281 554 238 522.5 c 128,-1,23
 195 491 195 491 148 426 c 1,24,-1
 112 454 l 1,0,1
EndSplineSet
EndChar

StartChar: exclamdown
Encoding: 161 161 96
Width: 528
VWidth: 2078
Flags: W
HStem: -560 21G<216 312> 696 256<166.773 361.227>
VStem: 146 236<-527.069 -42.6509 719.251 928.749>
LayerCount: 3
Fore
SplineSet
136 824 m 0
 136 896 192 952 264 952 c 0
 336 952 392 896 392 824 c 0
 392 752 336 696 264 696 c 0
 192 696 136 752 136 824 c 0
146 -385 m 0
 146 -329 161 -212 176 -129 c 0
 194 -31 202 30 212 127 c 10
 236 532 l 25
 292 532 l 25
 316 127 l 18
 326 30 334 -32 352 -130 c 0
 367 -213 382 -329 382 -385 c 0
 382 -449 360 -560 264 -560 c 0
 168 -560 146 -449 146 -385 c 0
EndSplineSet
Layer: 2
SplineSet
136 824 m 128,-1,1
 136 878 136 878 173 915 c 128,-1,2
 210 952 210 952 264 952 c 128,-1,3
 318 952 318 952 355 915 c 128,-1,4
 392 878 392 878 392 824 c 128,-1,5
 392 770 392 770 355 733 c 128,-1,6
 318 696 318 696 264 696 c 128,-1,7
 210 696 210 696 173 733 c 128,-1,0
 136 770 136 770 136 824 c 128,-1,1
146 -385 m 0,8,9
 146 -295 146 -295 176 -129 c 0,10,11
 198 -10 198 -10 212 127 c 1,12,-1
 236 532 l 1,13,-1
 292 532 l 1,14,-1
 316 127 l 1,15,16
 330 -12 330 -12 352 -130 c 0,17,18
 382 -296 382 -296 382 -385 c 0,19,20
 382 -412 382 -412 376.5 -439.5 c 128,-1,21
 371 -467 371 -467 359 -495.5 c 128,-1,22
 347 -524 347 -524 322.5 -542 c 128,-1,23
 298 -560 298 -560 264 -560 c 128,-1,24
 230 -560 230 -560 205.5 -542 c 128,-1,25
 181 -524 181 -524 169 -495.5 c 128,-1,26
 157 -467 157 -467 151.5 -439.5 c 128,-1,27
 146 -412 146 -412 146 -385 c 0,8,9
EndSplineSet
EndChar

StartChar: cent
Encoding: 162 162 97
Width: 1152
VWidth: 2079
Flags: W
HStem: -558 21G<196 272.901> -16 92<500.987 779.889> 842 74<496.458 675.079> 1442 20G<887.105 964>
VStem: 176 170<237.392 645.372> 766 182<629.442 785.113>
DStem2: 196 -558 266 -558 0.326596 0.945164<22.8617 624.818 758.678 1444.7 1553.59 2137.2>
LayerCount: 3
Fore
SplineSet
176 436 m 0
 176 571 225 692 307 779 c 0
 400 879 510 916 604 916 c 0
 639 916 672 914 703 908 c 1
 894 1462 l 1
 964 1462 l 1
 767 891 l 1
 871 851 948 764 948 702 c 0
 948 644 914 613 862 613 c 0
 812 613 779 650 766 696 c 0
 752 752 741 771 730 786 c 1
 499 115 l 1
 542 90 593 76 653 76 c 0
 757 76 855 147 903 213 c 1
 940 176 l 1
 888 93 761 -16 624 -16 c 0
 568 -16 513 -8 462 10 c 1
 266 -558 l 1
 196 -558 l 1
 401 36 l 1
 370 52 341 72 313 97 c 0
 225 174 176 284 176 436 c 0
346 457 m 0
 346 330 380 226 444 159 c 1
 676 831 l 1
 661 838 644 842 625 842 c 0
 450 842 346 677 346 457 c 0
EndSplineSet
Layer: 2
SplineSet
176 436 m 0,0,1
 176 640 176 640 307 779 c 1,2,3
 434 916 434 916 604 916 c 0,4,5
 662 916 662 916 703 908 c 1,6,-1
 894 1462 l 1,7,-1
 964 1462 l 1,8,-1
 767 891 l 1,9,10
 843 862 843 862 895.5 806 c 128,-1,11
 948 750 948 750 948 702 c 0,12,13
 948 659 948 659 925 636 c 128,-1,14
 902 613 902 613 862 613 c 0,15,16
 826 613 826 613 801 636 c 128,-1,17
 776 659 776 659 766 696 c 0,18,19
 750 758 750 758 730 786 c 1,20,-1
 499 115 l 1,21,22
 566 76 566 76 653 76 c 0,23,24
 726 76 726 76 794.5 117 c 128,-1,25
 863 158 863 158 903 213 c 1,26,-1
 940 176 l 1,27,28
 895 104 895 104 806.5 44 c 128,-1,29
 718 -16 718 -16 624 -16 c 0,30,31
 536 -16 536 -16 462 10 c 1,32,-1
 266 -558 l 1,33,-1
 196 -558 l 1,34,-1
 401 36 l 1,35,36
 354 60 354 60 313 97 c 0,37,38
 176 217 176 217 176 436 c 0,0,1
346 457 m 0,39,40
 346 262 346 262 444 159 c 1,41,-1
 676 831 l 1,42,43
 652 842 652 842 625 842 c 0,44,45
 496 842 496 842 421 734 c 128,-1,46
 346 626 346 626 346 457 c 0,39,40
EndSplineSet
EndChar

StartChar: sterling
Encoding: 163 163 98
Width: 1538
Flags: W
HStem: -28 182<864.335 1241.8> -28 56<211.944 436.62> 286 56<212.595 468.957> 664 80<212 590 769 1156> 1424 64<838.602 1065.94>
VStem: 80 72<74.9589 241.472> 512 172<844.221 1249.98> 678 104<265.2 627.926> 1144 217<1128.4 1328.95>
LayerCount: 3
Fore
SplineSet
80 150 m 0x7d80
 80 266 198 342 313 342 c 0
 443 342 543 304 652 262 c 1
 668 301 678 342 678 384 c 0x7d80
 678 485 663 549 621 664 c 1
 212 664 l 1
 212 744 l 1
 590 744 l 1
 543 863 512 952 512 1080 c 0
 512 1290 716 1488 950 1488 c 0
 1214 1488 1361 1330 1361 1214 c 0
 1361 1152 1310 1105 1257 1105 c 0
 1194 1105 1158 1151 1144 1190 c 0
 1133 1221 1129 1248 1125 1291 c 0
 1119 1350 1076 1424 956 1424 c 0
 810 1424 684 1293 684 1142 c 0x7e80
 684 1026 701 948 731 834 c 0
 740 801 747 772 753 744 c 1
 1156 744 l 1
 1156 664 l 1
 769 664 l 1
 778 605 782 546 782 466 c 0
 782 384 760 304 722 235 c 1
 832 192 946 154 1086 154 c 0
 1269 154 1362 234 1452 316 c 1
 1490 284 l 1
 1408 126 1266 -28 1064 -28 c 0xbd80
 909 -28 787 50 658 142 c 1
 568 39 437 -28 293 -28 c 0
 177 -28 80 36 80 150 c 0x7d80
152 160 m 0
 152 75 231 28 311 28 c 0
 420 28 532 90 603 181 c 1
 507 249 436 286 314 286 c 0
 235 286 152 243 152 160 c 0
EndSplineSet
Layer: 2
SplineSet
80 150 m 128,-1,1
 80 233 80 233 151 287.5 c 128,-1,2
 222 342 222 342 313 342 c 0,3,4
 374 342 374 342 437.5 329 c 128,-1,5
 501 316 501 316 541 302.5 c 128,-1,6
 581 289 581 289 652 262 c 1,7,8
 678 325 678 325 678 384 c 0,9,10
 678 458 678 458 665.5 516.5 c 128,-1,11
 653 575 653 575 621 664 c 1,12,-1
 212 664 l 1,13,-1
 212 744 l 1,14,-1
 590 744 l 1,15,16
 549 848 549 848 530.5 920 c 128,-1,17
 512 992 512 992 512 1080 c 0,18,19
 512 1183 512 1183 572 1277.5 c 128,-1,20
 632 1372 632 1372 734 1430 c 128,-1,21
 836 1488 836 1488 950 1488 c 0,22,23
 1044 1488 1044 1488 1124.5 1461.5 c 128,-1,24
 1205 1435 1205 1435 1255 1394 c 128,-1,25
 1305 1353 1305 1353 1333 1306 c 128,-1,26
 1361 1259 1361 1259 1361 1214 c 128,-1,27
 1361 1169 1361 1169 1329.5 1137 c 128,-1,28
 1298 1105 1298 1105 1257 1105 c 0,29,30
 1214 1105 1214 1105 1185 1130.5 c 128,-1,31
 1156 1156 1156 1156 1144 1190 c 0,32,33
 1131 1227 1131 1227 1125 1291 c 0,34,35
 1120 1344 1120 1344 1079 1384 c 128,-1,36
 1038 1424 1038 1424 956 1424 c 0,37,38
 847 1424 847 1424 765.5 1339.5 c 128,-1,39
 684 1255 684 1255 684 1142 c 0,40,41
 684 1061 684 1061 695 995.5 c 128,-1,42
 706 930 706 930 731 834 c 0,43,44
 744 788 744 788 753 744 c 1,45,-1
 1156 744 l 1,46,-1
 1156 664 l 1,47,-1
 769 664 l 1,48,49
 782 579 782 579 782 466 c 0,50,51
 782 344 782 344 722 235 c 1,52,53
 929 154 929 154 1086 154 c 0,54,55
 1151 154 1151 154 1205.5 166.5 c 128,-1,56
 1260 179 1260 179 1306 205.5 c 128,-1,57
 1352 232 1352 232 1380.5 254.5 c 128,-1,58
 1409 277 1409 277 1452 316 c 1,59,-1
 1490 284 l 1,60,61
 1457 221 1457 221 1416.5 168 c 128,-1,62
 1376 115 1376 115 1323 69.5 c 128,-1,63
 1270 24 1270 24 1203.5 -2 c 128,-1,64
 1137 -28 1137 -28 1064 -28 c 0,65,66
 959 -28 959 -28 867.5 15 c 128,-1,67
 776 58 776 58 658 142 c 1,68,69
 589 63 589 63 494 17.5 c 128,-1,70
 399 -28 399 -28 293 -28 c 0,71,72
 202 -28 202 -28 141 19.5 c 128,-1,0
 80 67 80 67 80 150 c 128,-1,1
152 160 m 0,73,74
 152 99 152 99 199.5 63.5 c 128,-1,75
 247 28 247 28 311 28 c 0,76,77
 392 28 392 28 470.5 70 c 128,-1,78
 549 112 549 112 603 181 c 1,79,80
 524 237 524 237 462 261.5 c 128,-1,81
 400 286 400 286 314 286 c 0,82,83
 250 286 250 286 201 252.5 c 128,-1,84
 152 219 152 219 152 160 c 0,73,74
EndSplineSet
EndChar

StartChar: currency
Encoding: 164 164 99
Width: 1152
Flags: W
HStem: 108 88<409.421 742.579> 828 88<407.987 742.579>
VStem: 172 88<345.421 678.579> 892 88<343.987 678.579>
DStem2: 202 956 134 887 0.706674 -0.70754<0.76643 181.309 975.63 1154.71> 255 259 323 191 0.706674 0.70754<-170.412 7.40456 803.575 982.819>
LayerCount: 3
Fore
SplineSet
134 139 m 1
 255 259 l 1
 203 327 172 414 172 512 c 0
 172 610 203 697 256 765 c 1
 134 887 l 1
 202 956 l 1
 324 833 l 1
 392 886 479 916 576 916 c 0
 674 916 761 885 829 833 c 1
 950 956 l 1
 1018 886 l 1
 897 765 l 1
 950 697 980 610 980 512 c 0
 980 415 950 328 897 260 c 1
 1018 139 l 1
 950 70 l 1
 829 192 l 1
 761 139 674 108 576 108 c 0
 478 108 391 138 323 191 c 1
 203 70 l 1
 134 139 l 1
260 512 m 0
 260 328 392 196 576 196 c 0
 760 196 892 328 892 512 c 0
 892 696 760 828 576 828 c 0
 392 828 260 696 260 512 c 0
EndSplineSet
Layer: 2
SplineSet
134 139 m 1,0,-1
 255 259 l 1,1,2
 172 368 172 368 172 512 c 0,3,4
 172 657 172 657 256 765 c 1,5,-1
 134 887 l 1,6,-1
 202 956 l 1,7,-1
 324 833 l 1,8,9
 430 916 430 916 576 916 c 0,10,11
 720 916 720 916 829 833 c 1,12,-1
 950 956 l 1,13,-1
 1018 886 l 1,14,-1
 897 765 l 1,15,16
 980 659 980 659 980 512 c 0,17,18
 980 366 980 366 897 260 c 1,19,-1
 1018 139 l 1,20,-1
 950 70 l 1,21,-1
 829 192 l 1,22,23
 721 108 721 108 576 108 c 0,24,25
 429 108 429 108 323 191 c 1,26,-1
 203 70 l 1,27,-1
 134 139 l 1,0,-1
260 512 m 128,-1,29
 260 374 260 374 349 285 c 128,-1,30
 438 196 438 196 576 196 c 128,-1,31
 714 196 714 196 803 285 c 128,-1,32
 892 374 892 374 892 512 c 128,-1,33
 892 650 892 650 803 739 c 128,-1,34
 714 828 714 828 576 828 c 128,-1,35
 438 828 438 828 349 739 c 128,-1,28
 260 650 260 650 260 512 c 128,-1,29
EndSplineSet
EndChar

StartChar: yen
Encoding: 165 165 100
Width: 1152
Flags: W
HStem: 4 56<344 498.576 645.424 800> 456 96<166 502 642 972> 744 96<166 406 720 972> 1402 60<18 120.469 326.583 440 758 867.664 1016.01 1132>
VStem: 502 140<60.199 456 552 647>
DStem2: 604 751 198 1260 0.444288 -0.895884<-666.663 -167.703 -60.372 0> 604 751 669 744 0.467274 0.884112<0 24.184 132.89 642.701>
LayerCount: 3
Fore
SplineSet
18 1402 m 1
 18 1462 l 1
 34 1462 161 1458 225 1458 c 0
 289 1458 424 1462 440 1462 c 1
 440 1402 l 1
 376 1402 l 2
 350 1402 323 1381 323 1357 c 0
 323 1331 329 1315 337 1298 c 2
 604 751 l 1
 847 1230 l 2
 865 1266 878 1306 878 1336 c 0
 878 1372 852 1402 812 1402 c 2
 758 1402 l 1
 758 1462 l 1
 774 1462 898 1458 946 1458 c 0
 994 1458 1116 1462 1132 1462 c 1
 1132 1402 l 1
 1087 1402 l 2
 1071 1402 1036 1393 1016 1373 c 0
 990 1347 978 1329 957 1289 c 2
 720 840 l 1
 972 840 l 1
 972 744 l 1
 669 744 l 1
 642 693 l 1
 642 552 l 1
 972 552 l 1
 972 456 l 1
 642 456 l 1
 642 110 l 2
 642 77 658 60 692 60 c 2
 800 60 l 1
 800 0 l 1
 784 0 630 4 572 4 c 0
 514 4 360 0 344 0 c 1
 344 60 l 1
 452 60 l 2
 486 60 502 77 502 110 c 2
 502 456 l 1
 166 456 l 1
 166 552 l 1
 502 552 l 1
 502 647 l 1
 454 744 l 1
 166 744 l 1
 166 840 l 1
 406 840 l 1
 198 1260 l 2
 175 1307 158 1338 127 1367 c 0
 92 1400 60 1402 18 1402 c 1
EndSplineSet
Layer: 2
SplineSet
18 1402 m 1,0,-1
 18 1462 l 1,1,2
 20 1462 20 1462 103.5 1460 c 128,-1,3
 187 1458 187 1458 225 1458 c 128,-1,4
 263 1458 263 1458 350.5 1460 c 128,-1,5
 438 1462 438 1462 440 1462 c 1,6,-1
 440 1402 l 1,7,-1
 376 1402 l 2,8,9
 356 1402 356 1402 339.5 1388.5 c 128,-1,10
 323 1375 323 1375 323 1357 c 0,11,12
 323 1328 323 1328 337 1298 c 2,13,-1
 604 751 l 1,14,-1
 847 1230 l 2,15,16
 878 1292 878 1292 878 1336 c 0,17,18
 878 1364 878 1364 859.5 1383 c 128,-1,19
 841 1402 841 1402 812 1402 c 2,20,-1
 758 1402 l 1,21,-1
 758 1462 l 1,22,23
 762 1462 762 1462 840 1460 c 128,-1,24
 918 1458 918 1458 946 1458 c 128,-1,25
 974 1458 974 1458 1051 1460 c 128,-1,26
 1128 1462 1128 1462 1132 1462 c 1,27,-1
 1132 1402 l 1,28,-1
 1087 1402 l 2,29,30
 1073 1402 1073 1402 1051.5 1394.5 c 128,-1,31
 1030 1387 1030 1387 1016 1373 c 0,32,33
 985 1342 985 1342 957 1289 c 2,34,-1
 720 840 l 1,35,-1
 972 840 l 1,36,-1
 972 744 l 1,37,-1
 669 744 l 1,38,-1
 642 693 l 1,39,-1
 642 552 l 1,40,-1
 972 552 l 1,41,-1
 972 456 l 1,42,-1
 642 456 l 1,43,-1
 642 110 l 2,44,45
 642 60 642 60 692 60 c 2,46,-1
 800 60 l 1,47,-1
 800 0 l 1,48,49
 797 0 797 0 701.5 2 c 128,-1,50
 606 4 606 4 572 4 c 128,-1,51
 538 4 538 4 442.5 2 c 128,-1,52
 347 0 347 0 344 0 c 1,53,-1
 344 60 l 1,54,-1
 452 60 l 2,55,56
 502 60 502 60 502 110 c 2,57,-1
 502 456 l 1,58,-1
 166 456 l 1,59,-1
 166 552 l 1,60,-1
 502 552 l 1,61,-1
 502 647 l 1,62,-1
 454 744 l 1,63,-1
 166 744 l 1,64,-1
 166 840 l 1,65,-1
 406 840 l 1,66,-1
 198 1260 l 2,67,68
 161 1335 161 1335 127 1367 c 0,69,70
 103 1390 103 1390 79.5 1396 c 128,-1,71
 56 1402 56 1402 18 1402 c 1,0,-1
EndSplineSet
EndChar

StartChar: brokenbar
Encoding: 166 166 101
Width: 512
VWidth: 2078
Flags: W
HStem: -468 21G<202 310> 1440 20G<202 310>
VStem: 202 108<-468 300 692 1460>
LayerCount: 3
Fore
SplineSet
202 300 m 1
 310 300 l 1
 310 -468 l 1
 202 -468 l 1
 202 300 l 1
202 692 m 1
 202 1460 l 1
 310 1460 l 1
 310 692 l 1
 202 692 l 1
EndSplineSet
Layer: 2
SplineSet
202 300 m 1,0,-1
 310 300 l 1,1,-1
 310 -468 l 1,2,-1
 202 -468 l 1,3,-1
 202 300 l 1,0,-1
202 692 m 1,4,-1
 202 1460 l 1,5,-1
 310 1460 l 1,6,-1
 310 692 l 1,7,-1
 202 692 l 1,4,-1
EndSplineSet
EndChar

StartChar: section
Encoding: 167 167 102
Width: 1180
VWidth: 2078
Flags: W
HStem: -432 64<420.644 658.068> 1424 64<399.932 637.356>
VStem: 134 108<504.91 728.486> 202 168<-296.516 -90.1996> 208 122<1141.04 1358.98> 688 168<1146.2 1352.52> 728 122<-302.984 -85.0366> 816 108<327.514 551.09>
DStem2: 328 462 262 315 0.740455 -0.672106<-133.599 334.541 412.753 712.61> 472 1038 424 871 0.740455 -0.672106<-223.158 76.6998 154.91 618.558>
LayerCount: 3
Fore
SplineSet
134 612 m 0xe2
 134 744 287 834 424 871 c 1
 340 948 l 2
 282 1000 208 1089 208 1212 c 0
 208 1396 372 1488 536 1488 c 0
 750 1488 856 1333 856 1212 c 0
 856 1162 833 1090 754 1090 c 0
 703 1090 658 1124 658 1183 c 0
 658 1208 670 1236 676 1250 c 0
 682 1265 688 1292 688 1302 c 0xcc
 688 1358 642 1424 514 1424 c 0
 400 1424 330 1353 330 1266 c 0
 330 1170 390 1113 472 1038 c 2
 796 741 l 2
 889 656 924 558 924 444 c 0xc9
 924 312 771 222 634 185 c 1
 718 108 l 2
 776 56 850 -33 850 -156 c 0
 850 -340 686 -432 522 -432 c 0
 308 -432 202 -277 202 -156 c 0
 202 -106 225 -34 304 -34 c 0
 355 -34 400 -68 400 -127 c 0
 400 -152 388 -180 382 -194 c 0
 376 -209 370 -236 370 -246 c 0xd2
 370 -302 416 -368 544 -368 c 0
 658 -368 728 -297 728 -210 c 0
 728 -114 668 -57 586 18 c 2
 262 315 l 2
 169 400 134 498 134 612 c 0xe2
242 639 m 0xe1
 242 558 271 514 328 462 c 2
 505 300 l 2
 533 274 582 264 601 264 c 0
 714 264 816 294 816 417 c 0
 816 498 787 542 730 594 c 2
 556 752 l 2
 522 782 476 792 457 792 c 0
 344 792 242 762 242 639 c 0xe1
EndSplineSet
Layer: 2
SplineSet
134 612 m 0,0,1
 134 703 134 703 220.5 771 c 128,-1,2
 307 839 307 839 424 871 c 1,3,-1
 340 948 l 1,4,5
 208 1066 208 1066 208 1212 c 0,6,7
 208 1342 208 1342 305.5 1415 c 128,-1,8
 403 1488 403 1488 536 1488 c 0,9,10
 613 1488 613 1488 676 1462 c 128,-1,11
 739 1436 739 1436 777 1395 c 128,-1,12
 815 1354 815 1354 835.5 1306.5 c 128,-1,13
 856 1259 856 1259 856 1212 c 128,-1,14
 856 1165 856 1165 831.5 1127.5 c 128,-1,15
 807 1090 807 1090 754 1090 c 0,16,17
 714 1090 714 1090 686 1115 c 128,-1,18
 658 1140 658 1140 658 1183 c 0,19,20
 658 1208 658 1208 676 1250 c 0,21,22
 688 1280 688 1280 688 1302 c 0,23,24
 688 1351 688 1351 645 1387.5 c 128,-1,25
 602 1424 602 1424 514 1424 c 0,26,27
 431 1424 431 1424 380.5 1378.5 c 128,-1,28
 330 1333 330 1333 330 1266 c 0,29,30
 330 1231 330 1231 339.5 1201.5 c 128,-1,31
 349 1172 349 1172 371.5 1142.5 c 128,-1,32
 394 1113 394 1113 414 1093 c 128,-1,33
 434 1073 434 1073 472 1038 c 2,34,-1
 796 741 l 2,35,36
 924 624 924 624 924 444 c 0,37,38
 924 353 924 353 837.5 285 c 128,-1,39
 751 217 751 217 634 185 c 1,40,-1
 718 108 l 1,41,42
 850 -10 850 -10 850 -156 c 0,43,44
 850 -286 850 -286 752.5 -359 c 128,-1,45
 655 -432 655 -432 522 -432 c 0,46,47
 445 -432 445 -432 382 -406 c 128,-1,48
 319 -380 319 -380 281 -339 c 128,-1,49
 243 -298 243 -298 222.5 -250.5 c 128,-1,50
 202 -203 202 -203 202 -156 c 128,-1,51
 202 -109 202 -109 226.5 -71.5 c 128,-1,52
 251 -34 251 -34 304 -34 c 0,53,54
 344 -34 344 -34 372 -59 c 128,-1,55
 400 -84 400 -84 400 -127 c 0,56,57
 400 -152 400 -152 382 -194 c 0,58,59
 370 -224 370 -224 370 -246 c 0,60,61
 370 -295 370 -295 413 -331.5 c 128,-1,62
 456 -368 456 -368 544 -368 c 0,63,64
 627 -368 627 -368 677.5 -322.5 c 128,-1,65
 728 -277 728 -277 728 -210 c 0,66,67
 728 -175 728 -175 718.5 -145.5 c 128,-1,68
 709 -116 709 -116 686.5 -86.5 c 128,-1,69
 664 -57 664 -57 644 -37 c 128,-1,70
 624 -17 624 -17 586 18 c 2,71,-1
 262 315 l 2,72,73
 134 432 134 432 134 612 c 0,0,1
242 639 m 0,74,75
 242 581 242 581 262 542.5 c 128,-1,76
 282 504 282 504 328 462 c 2,77,-1
 505 300 l 2,78,79
 524 283 524 283 553 273.5 c 128,-1,80
 582 264 582 264 601 264 c 0,81,82
 816 264 816 264 816 417 c 0,83,84
 816 475 816 475 796 513.5 c 128,-1,85
 776 552 776 552 730 594 c 2,86,-1
 556 752 l 2,87,88
 533 772 533 772 504.5 782 c 128,-1,89
 476 792 476 792 457 792 c 0,90,91
 242 792 242 792 242 639 c 0,74,75
EndSplineSet
EndChar

StartChar: dieresis
Encoding: 168 168 103
Width: 880
VWidth: 2078
Flags: W
HStem: 1112 192<153.205 318.795 561.205 726.795>
VStem: 140 192<1125.2 1290.8> 548 192<1125.2 1290.8>
LayerCount: 3
Fore
SplineSet
140 1208 m 0
 140 1264 180 1304 236 1304 c 0
 292 1304 332 1264 332 1208 c 0
 332 1152 292 1112 236 1112 c 0
 180 1112 140 1152 140 1208 c 0
548 1208 m 0
 548 1264 588 1304 644 1304 c 0
 700 1304 740 1264 740 1208 c 0
 740 1152 700 1112 644 1112 c 0
 588 1112 548 1152 548 1208 c 0
EndSplineSet
Layer: 2
SplineSet
140 1208 m 128,-1,1
 140 1250 140 1250 167 1277 c 128,-1,2
 194 1304 194 1304 236 1304 c 128,-1,3
 278 1304 278 1304 305 1277 c 128,-1,4
 332 1250 332 1250 332 1208 c 128,-1,5
 332 1166 332 1166 305 1139 c 128,-1,6
 278 1112 278 1112 236 1112 c 128,-1,7
 194 1112 194 1112 167 1139 c 128,-1,0
 140 1166 140 1166 140 1208 c 128,-1,1
548 1208 m 128,-1,9
 548 1250 548 1250 575 1277 c 128,-1,10
 602 1304 602 1304 644 1304 c 128,-1,11
 686 1304 686 1304 713 1277 c 128,-1,12
 740 1250 740 1250 740 1208 c 128,-1,13
 740 1166 740 1166 713 1139 c 128,-1,14
 686 1112 686 1112 644 1112 c 128,-1,15
 602 1112 602 1112 575 1139 c 128,-1,8
 548 1166 548 1166 548 1208 c 128,-1,9
EndSplineSet
EndChar

StartChar: copyright
Encoding: 169 169 104
Width: 1636
VWidth: 2079
Flags: W
HStem: -28 64<617.729 1018.27> 270 72<695.466 967.767> 1138 70<717.287 970.76> 1424 64<617.729 1018.27>
VStem: 60 72<512.062 947.938> 372 170<531.068 944.49> 1131 46<962.702 978.028> 1504 72<512.062 947.938>
LayerCount: 3
Fore
SplineSet
60 730 m 0
 60 1162 386 1488 818 1488 c 0
 1250 1488 1576 1162 1576 730 c 0
 1576 298 1250 -28 818 -28 c 0
 386 -28 60 298 60 730 c 0
132 730 m 0
 132 344 432 36 818 36 c 0
 1204 36 1504 344 1504 730 c 0
 1504 1116 1204 1424 818 1424 c 0
 432 1424 132 1116 132 730 c 0
372 732 m 0
 372 1031 599 1208 823 1208 c 0
 889 1208 930 1196 969 1179 c 0
 997 1167 1028 1155 1049 1155 c 0
 1072 1155 1083 1178 1090 1208 c 9
 1130 1208 l 25
 1177 968 l 25
 1131 951 l 17
 1062 1048 968 1138 839 1138 c 0
 688 1138 542 1000 542 734 c 0
 542 408 715 342 838 342 c 0
 978 342 1082 431 1138 510 c 9
 1168 486 l 17
 1105 375 966 270 824 270 c 0
 525 270 372 511 372 732 c 0
EndSplineSet
Layer: 2
SplineSet
60 730 m 128,-1,1
 60 890 60 890 118 1030.5 c 128,-1,2
 176 1171 176 1171 276.5 1271.5 c 128,-1,3
 377 1372 377 1372 517.5 1430 c 128,-1,4
 658 1488 658 1488 818 1488 c 128,-1,5
 978 1488 978 1488 1118.5 1430 c 128,-1,6
 1259 1372 1259 1372 1359.5 1271.5 c 128,-1,7
 1460 1171 1460 1171 1518 1030.5 c 128,-1,8
 1576 890 1576 890 1576 730 c 128,-1,9
 1576 570 1576 570 1518 429.5 c 128,-1,10
 1460 289 1460 289 1359.5 188.5 c 128,-1,11
 1259 88 1259 88 1118.5 30 c 128,-1,12
 978 -28 978 -28 818 -28 c 128,-1,13
 658 -28 658 -28 517.5 30 c 128,-1,14
 377 88 377 88 276.5 188.5 c 128,-1,15
 176 289 176 289 118 429.5 c 128,-1,0
 60 570 60 570 60 730 c 128,-1,1
132 730 m 128,-1,17
 132 540 132 540 222.5 380.5 c 128,-1,18
 313 221 313 221 470.5 128.5 c 128,-1,19
 628 36 628 36 818 36 c 128,-1,20
 1008 36 1008 36 1165.5 128.5 c 128,-1,21
 1323 221 1323 221 1413.5 380.5 c 128,-1,22
 1504 540 1504 540 1504 730 c 128,-1,23
 1504 920 1504 920 1413.5 1079.5 c 128,-1,24
 1323 1239 1323 1239 1165.5 1331.5 c 128,-1,25
 1008 1424 1008 1424 818 1424 c 128,-1,26
 628 1424 628 1424 470.5 1331.5 c 128,-1,27
 313 1239 313 1239 222.5 1079.5 c 128,-1,16
 132 920 132 920 132 730 c 128,-1,17
372 732 m 0,28,29
 372 840 372 840 411 931.5 c 128,-1,30
 450 1023 450 1023 514 1082.5 c 128,-1,31
 578 1142 578 1142 658 1175 c 128,-1,32
 738 1208 738 1208 823 1208 c 0,33,34
 902 1208 902 1208 969 1179 c 0,35,36
 1025 1155 1025 1155 1049 1155 c 0,37,38
 1078 1155 1078 1155 1090 1208 c 1,39,-1
 1130 1208 l 1,40,-1
 1177 968 l 1,41,-1
 1131 951 l 1,42,43
 998 1138 998 1138 839 1138 c 0,44,45
 717 1138 717 1138 629.5 1030.5 c 128,-1,46
 542 923 542 923 542 734 c 0,47,48
 542 640 542 640 561.5 568.5 c 128,-1,49
 581 497 581 497 610.5 455 c 128,-1,50
 640 413 640 413 681 386.5 c 128,-1,51
 722 360 722 360 759.5 351 c 128,-1,52
 797 342 797 342 838 342 c 0,53,54
 934 342 934 342 1011.5 391 c 128,-1,55
 1089 440 1089 440 1138 510 c 1,56,-1
 1168 486 l 1,57,58
 1118 398 1118 398 1022 334 c 128,-1,59
 926 270 926 270 824 270 c 0,60,61
 716 270 716 270 628 311 c 128,-1,62
 540 352 540 352 485.5 418.5 c 128,-1,63
 431 485 431 485 401.5 566 c 128,-1,64
 372 647 372 647 372 732 c 0,28,29
EndSplineSet
EndChar

StartChar: ordfeminine
Encoding: 170 170 105
Width: 780
VWidth: 1361
Flags: W
HStem: 904 72<562.5 669.896> 904 48<262.424 400.748> 1172 32<375.997 489> 1382 44<296.767 451.314>
VStem: 128 112<961.627 1107.53> 156 107<1257.96 1353.25> 489 96<981.393 1172 1204 1365.12>
LayerCount: 3
Fore
SplineSet
128 1012 m 0x7a
 128 1108 230 1157 325 1182 c 0
 379 1196 433 1204 489 1204 c 9
 489 1286 l 26
 489 1342 443 1382 381 1382 c 0
 344 1382 310 1376 290 1354 c 0
 274 1338 269 1322 263 1299 c 0
 259 1282 245 1257 212 1257 c 0
 179 1257 156 1278 156 1307 c 0
 156 1371 267 1426 378 1426 c 0
 422 1426 467 1417 506 1398 c 0
 554 1374 585 1332 585 1279 c 10
 585 1044 l 26
 585 1012 597 976 633 976 c 0
 663 976 682 1000 696 1019 c 9
 716 1005 l 17
 690 957 656 904 585 904 c 0xb6
 540 904 504 940 492 974 c 9
 484 974 l 17
 451 948 368 904 291 904 c 0
 247 904 206 911 175 930 c 0
 147 948 128 977 128 1012 c 0x7a
240 1024 m 0x7a
 240 979 280 952 334 952 c 0
 395 952 445 978 489 1007 c 9
 489 1172 l 17
 438 1170 372 1161 315 1135 c 0
 273 1117 240 1084 240 1024 c 0x7a
EndSplineSet
Layer: 2
SplineSet
128 1012 m 0,0,1
 128 1130 128 1130 325 1182 c 0,2,3
 410 1204 410 1204 489 1204 c 1,4,-1
 489 1286 l 2,5,6
 489 1328 489 1328 458.5 1355 c 128,-1,7
 428 1382 428 1382 381 1382 c 0,8,9
 315 1382 315 1382 290 1354 c 1,10,11
 273 1337 273 1337 263 1299 c 0,12,13
 253 1257 253 1257 212 1257 c 0,14,15
 187 1257 187 1257 171.5 1271 c 128,-1,16
 156 1285 156 1285 156 1307 c 0,17,18
 156 1354 156 1354 224.5 1390 c 128,-1,19
 293 1426 293 1426 378 1426 c 0,20,21
 449 1426 449 1426 506 1398 c 0,22,23
 585 1358 585 1358 585 1279 c 2,24,-1
 585 1044 l 2,25,26
 585 1016 585 1016 596.5 996 c 128,-1,27
 608 976 608 976 633 976 c 0,28,29
 664 976 664 976 696 1019 c 1,30,-1
 716 1005 l 1,31,32
 691 958 691 958 662 931 c 128,-1,33
 633 904 633 904 585 904 c 0,34,35
 553 904 553 904 527.5 925 c 128,-1,36
 502 946 502 946 492 974 c 1,37,-1
 484 974 l 1,38,39
 453 949 453 949 398 926.5 c 128,-1,40
 343 904 343 904 291 904 c 0,41,42
 217 904 217 904 175 930 c 0,43,44
 128 960 128 960 128 1012 c 0,0,1
240 1024 m 0,45,46
 240 991 240 991 266.5 971.5 c 128,-1,47
 293 952 293 952 334 952 c 0,48,49
 406 952 406 952 489 1007 c 1,50,-1
 489 1172 l 1,51,52
 387 1168 387 1168 315 1135 c 1,53,54
 240 1103 240 1103 240 1024 c 0,45,46
EndSplineSet
EndChar

StartChar: logicalnot
Encoding: 172 172 107
Width: 1152
VWidth: 2078
Flags: W
HStem: 650 96<62 978>
VStem: 978 112<274 650>
LayerCount: 3
Fore
SplineSet
62 650 m 1
 62 746 l 1
 1090 746 l 1
 1090 274 l 1
 978 274 l 1
 978 650 l 1
 62 650 l 1
EndSplineSet
Layer: 2
SplineSet
62 650 m 1,0,-1
 62 746 l 1,1,-1
 1090 746 l 1,2,-1
 1090 274 l 1,3,-1
 978 274 l 1,4,-1
 978 650 l 1,5,-1
 62 650 l 1,0,-1
EndSplineSet
EndChar

